<?xml version="1.0" encoding="UTF-8"?>
<svg width="15px" height="15px" viewBox="0 0 15 15" version="1.1" xmlns="http://www.w3.org/2000/svg" xmlns:xlink="http://www.w3.org/1999/xlink">
    <!-- Generator: Sketch 55.1 (78136) - https://sketchapp.com -->
    <title>ig-logo-black</title>
    <desc>Created with Sketch.</desc>
    <g id="PC" stroke="none" stroke-width="1" fill="none" fill-rule="evenodd">
        <g transform="translate(-1033.000000, -46.000000)" fill="#000000" fill-rule="nonzero" id="header">
            <g>
                <g id="icon_sns" transform="translate(1033.000000, 42.000000)">
                    <g id="ig-logo-black" transform="translate(0.000000, 4.000000)">
                        <path d="M7.02197802,0 C5.11473077,0 4.87598352,0.0078021978 4.12697253,0.0421318681 C3.37952198,0.0764615385 2.86886813,0.195054945 2.42219231,0.368653846 C1.95367489,0.5449589 1.52925311,0.821338957 1.17852198,1.17852198 C0.821407164,1.52930893 0.545037534,1.9537147 0.368653846,2.42219231 C0.195054945,2.86886813 0.0760714286,3.37952198 0.0421318681,4.12736264 C0.00819230769,4.87598352 0,5.11434066 0,7.02197802 C0,8.92961538 0.0078021978,9.16797253 0.0421318681,9.91698352 C0.0764615385,10.6644341 0.195054945,11.1750879 0.368653846,11.6217637 C0.5449589,12.0902811 0.821338957,12.5147029 1.17852198,12.8654341 C1.56863187,13.255544 1.96069231,13.4958516 2.42219231,13.6753022 C2.86886813,13.8489011 3.37952198,13.9678846 4.12697253,14.0018242 C4.87598352,14.0357637 5.11473077,14.043956 7.02197802,14.043956 C8.92922527,14.043956 9.16797253,14.0361538 9.91698352,14.0018242 C10.6644341,13.9674945 11.1750879,13.8489011 11.6217637,13.6753022 C12.0902755,13.4989859 12.514695,13.2226073 12.8654341,12.8654341 C13.255544,12.4753242 13.4958516,12.0832637 13.6753022,11.6217637 C13.8489011,11.1750879 13.9678846,10.6644341 14.0018242,9.91698352 C14.0357637,9.16797253 14.043956,8.92922527 14.043956,7.02197802 C14.043956,5.11473077 14.0361538,4.87598352 14.0018242,4.12697253 C13.9674945,3.37952198 13.8489011,2.86886813 13.6753022,2.42219231 C13.4989859,1.95368058 13.2226073,1.52926109 12.8654341,1.17852198 C12.5146471,0.821407164 12.0902413,0.545037534 11.6217637,0.368653846 C11.1750879,0.195054945 10.6644341,0.0760714286 9.91659341,0.0421318681 C9.16797253,0.00819230769 8.92961538,0 7.02197802,0 Z M7.02197802,1.26512637 C8.89684615,1.26512637 9.11920879,1.27253846 9.85963736,1.30608791 C10.5442802,1.3372967 10.9160549,1.4515989 11.1633846,1.54795604 C11.4910769,1.67513187 11.7251429,1.82766484 11.9709121,2.07304396 C12.2166813,2.31881319 12.3688242,2.55287912 12.496,2.88057143 C12.5923571,3.1279011 12.7066593,3.49967582 12.7378681,4.18431868 C12.7714176,4.92474725 12.7788297,5.14710989 12.7788297,7.02197802 C12.7788297,8.89684615 12.7714176,9.11920879 12.7378681,9.85963736 C12.7066593,10.5442802 12.5923571,10.9160549 12.496,11.1633846 C12.3835163,11.4684179 12.2040884,11.7443582 11.9709121,11.9709121 C11.7251429,12.2166813 11.4910769,12.3688242 11.1633846,12.496 C10.9160549,12.5923571 10.5442802,12.7066593 9.85963736,12.7378681 C9.11920879,12.7714176 8.89723626,12.7788297 7.02197802,12.7788297 C5.14671978,12.7788297 4.92474725,12.7714176 4.18431868,12.7378681 C3.49967582,12.7066593 3.1279011,12.5923571 2.88057143,12.496 C2.57553817,12.3835163 2.29959786,12.2040884 2.07304396,11.9709121 C1.83987791,11.7443497 1.66045167,11.4684119 1.54795604,11.1633846 C1.4515989,10.9160549 1.3372967,10.5442802 1.30608791,9.85963736 C1.27253846,9.11920879 1.26512637,8.89684615 1.26512637,7.02197802 C1.26512637,5.14710989 1.27253846,4.92474725 1.30608791,4.18431868 C1.3372967,3.49967582 1.4515989,3.1279011 1.54795604,2.88057143 C1.67513187,2.55287912 1.82766484,2.31881319 2.07304396,2.07304396 C2.31881319,1.82727473 2.55287912,1.67513187 2.88057143,1.54795604 C3.1279011,1.4515989 3.49967582,1.3372967 4.18431868,1.30608791 C4.92474725,1.27253846 5.14710989,1.26512637 7.02197802,1.26512637 L7.02197802,1.26512637 Z" id="Shape"></path>
                        <path d="M7.02197802,9.36497802 C6.18490474,9.36497802 5.41141712,8.91840476 4.99288047,8.19347803 C4.57434383,7.4685513 4.57434383,6.57540474 4.99288047,5.85047801 C5.41141712,5.12555128 6.18490474,4.67897802 7.02197802,4.67897802 C8.31598118,4.67897802 9.36497799,5.72797487 9.36497799,7.02197802 C9.36497799,8.31598118 8.31598118,9.36497802 7.02197802,9.36497802 Z M7.02197802,3.41268132 C5.0286185,3.41268132 3.41268132,5.0286185 3.41268132,7.02197802 C3.41268132,9.01533755 5.0286185,10.6312747 7.02197802,10.6312747 C9.01533755,10.6312747 10.6312747,9.01533755 10.6312747,7.02197802 C10.6312747,5.0286185 9.01533755,3.41268132 7.02197802,3.41268132 L7.02197802,3.41268132 Z M11.6814505,3.34714286 C11.6814505,3.81833582 11.2994732,4.20031319 10.8282802,4.20031319 C10.3570873,4.20031319 9.97510989,3.81833582 9.97510989,3.34714286 C9.97510989,2.8759499 10.3570873,2.49397253 10.8282802,2.49397253 C11.2994732,2.49397253 11.6814505,2.8759499 11.6814505,3.34714286 L11.6814505,3.34714286 Z" id="Shape"></path>
                    </g>
                </g>
            </g>
        </g>
    </g>
</svg>