<?xml version="1.0" encoding="UTF-8"?>
<svg width="14px" height="14px" viewBox="0 0 14 14" version="1.1" xmlns="http://www.w3.org/2000/svg" xmlns:xlink="http://www.w3.org/1999/xlink">
    <!-- Generator: Sketch 55.1 (78136) - https://sketchapp.com -->
    <title>f_logo_RGB-Black_1024</title>
    <desc>Created with Sketch.</desc>
    <g id="PC" stroke="none" stroke-width="1" fill="none" fill-rule="evenodd">
        <g transform="translate(-1087.000000, -46.000000)" fill="#000000" fill-rule="nonzero" id="header">
            <g>
                <g id="icon_sns" transform="translate(1033.000000, 42.000000)">
                    <g id="f_logo_RGB-Black_1024" transform="translate(54.000000, 4.000000)">
                        <path d="M13.2637363,6.63186813 C13.2637363,2.96879722 10.294939,0 6.63186813,0 C2.96879722,0 0,2.96879722 0,6.63186813 C0,9.94262105 2.42477679,12.6860384 5.59563874,13.1834285 L5.59563874,8.54889251 L3.91176597,8.54889251 L3.91176597,6.63186813 L5.59563874,6.63186813 L5.59563874,5.17078468 C5.59563874,3.50893179 6.58523781,2.59057349 8.1007233,2.59057349 C8.82608388,2.59057349 9.58512191,2.72010216 9.58512191,2.72010216 L9.58512191,4.35216346 L8.74836667,4.35216346 C7.9245643,4.35216346 7.66809753,4.86380173 7.66809753,5.38839286 L7.66809753,6.63186813 L9.5074047,6.63186813 L9.21337461,8.54889251 L7.66809753,8.54889251 L7.66809753,13.1834285 C10.8389595,12.6860384 13.2637363,9.94262105 13.2637363,6.63186813 Z" id="Path"></path>
                    </g>
                </g>
            </g>
        </g>
    </g>
</svg>