<?xml version="1.0" encoding="UTF-8"?>
<svg width="17px" height="23px" viewBox="0 0 17 23" version="1.1" xmlns="http://www.w3.org/2000/svg" xmlns:xlink="http://www.w3.org/1999/xlink">
    <!-- Generator: Sketch 55.1 (78136) - https://sketchapp.com -->
    <title>Group 14</title>
    <desc>Created with Sketch.</desc>
    <g id="Page-1" stroke="none" stroke-width="1" fill="none" fill-rule="evenodd">
        <g id="top" transform="translate(-16.000000, -4395.000000)">
            <g id="sec_06" transform="translate(-167.000000, 4393.000000)">
                <g id="ttl">
                    <g transform="translate(183.000000, 0.000000)" id="noun_Pen_1480353">
                        <g transform="translate(0.000000, 2.000000)">
                            <g id="Group-14" transform="translate(0.239063, 0.079687)">
                                <path d="M5.26093743,17.9586426 L13.0526855,17.9586426 C14.596468,18.0532715 15.3683593,18.5103841 15.3683593,19.3299805 C15.3683593,20.559375 15.4301757,21.4666992 13.8921874,21.4666992 C12.8668619,21.4666992 8.76738274,21.3549642 1.59374993,21.1314941 C0.768684821,19.0162598 0.923697842,17.9586426 2.05878899,17.9586426 C3.19388013,17.9586426 4.26126295,17.9586426 5.26093743,17.9586426 Z" id="Path-11" fill="#FFD94A"></path>
                                <circle id="Oval" fill="#FFD94A" cx="8.26093743" cy="11.4203125" r="1.5"></circle>
                                <path d="M14.0249999,17.159375 L13.1749999,17.159375 L15.5124999,9.615625 C15.5866552,9.36914281 15.5371881,9.10202043 15.3796874,8.8984375 L8.89843743,0.31875 C8.74794409,0.118092219 8.51175965,3.58824082e-13 8.26093743,3.58824082e-13 C8.0101152,3.58824082e-13 7.77393076,0.118092219 7.62343743,0.31875 L1.11562493,8.8984375 C0.95812422,9.10202043 0.908657113,9.36914281 0.982812426,9.615625 L3.32031243,17.159375 L2.49687493,17.159375 C1.11788897,17.159375 7.28306304e-13,18.277264 7.28306304e-13,19.65625 C7.28306304e-13,21.035236 1.11788897,22.153125 2.49687493,22.153125 L14.0249999,22.153125 C15.4039859,22.153125 16.5218749,21.035236 16.5218749,19.65625 C16.5218749,18.277264 15.4039859,17.159375 14.0249999,17.159375 Z M8.95156243,10.9703125 C8.95156243,11.3517342 8.64235908,11.6609375 8.26093743,11.6609375 C7.87951577,11.6609375 7.57031243,11.3517342 7.57031243,10.9703125 C7.57031243,10.5888908 7.87951577,10.2796875 8.26093743,10.2796875 C8.64235908,10.2796875 8.95156243,10.5888908 8.95156243,10.9703125 Z M2.62968743,9.5359375 L7.46406243,3.1609375 L7.46406243,8.8453125 C6.42804222,9.23093864 5.81680854,10.3030739 6.01272283,11.3910367 C6.20863712,12.4789994 7.15547581,13.2705657 8.26093743,13.2705657 C9.36639904,13.2705657 10.3132377,12.4789994 10.509152,11.3910367 C10.7050663,10.3030739 10.0938326,9.23093864 9.05781243,8.8453125 L9.05781243,3.1609375 L13.8921874,9.5359375 L11.5015624,17.159375 L5.02031243,17.159375 L2.62968743,9.5359375 Z M14.0249999,20.559375 L2.49687493,20.559375 C1.99809276,20.559375 1.59374993,20.1550322 1.59374993,19.65625 C1.59374993,19.1574678 1.99809276,18.753125 2.49687493,18.753125 L14.0249999,18.753125 C14.5237821,18.753125 14.9281249,19.1574678 14.9281249,19.65625 C14.9281249,20.1550322 14.5237821,20.559375 14.0249999,20.559375 Z" id="Shape" fill="#000000" fill-rule="nonzero"></path>
                            </g>
                        </g>
                    </g>
                </g>
            </g>
        </g>
    </g>
</svg>