<?xml version="1.0" encoding="UTF-8"?>
<svg width="21px" height="17px" viewBox="0 0 21 17" version="1.1" xmlns="http://www.w3.org/2000/svg" xmlns:xlink="http://www.w3.org/1999/xlink">
    <!-- Generator: Sketch 55.1 (78136) - https://sketchapp.com -->
    <title>Group 4</title>
    <desc>Created with Sketch.</desc>
    <g id="PC" stroke="none" stroke-width="1" fill="none" fill-rule="evenodd">
        <g id="detail_01" transform="translate(-33.000000, -500.000000)">
            <g id="list" transform="translate(13.000000, 485.000000)">
                <g id="icon" transform="translate(21.000000, 16.000000)">
                    <g id="Group-4">
                        <path d="M10,1.36952149 C5.53313457,1.154272 2.72053693,0.438137789 1.40465055,1.36952149 C0.527392956,1.99044395 0.320000488,6.1581541 0.782473142,13.8726519 C5.56813018,12.4002669 8.48956853,12.372423 9.54678819,13.7891204 C11.1326177,15.9141664 10.7515524,11.4867151 15.1128507,13.2142995 C18.0203829,14.3660225 19.3712985,14.5854733 19.1655975,13.8726519 C19.5237748,6.63895979 19.3622149,2.56122338 18.6809178,1.6394427 C17.6589722,0.256771685 14.4668654,1.58477097 10,1.36952149 Z" id="Path-13" fill="#FFD94A"></path>
                        <g id="noun_Book_2279629"></g>
                        <path d="M18.4752025,1.69076968 C18.4752025,2.1098669 18.4752025,2.53101852 18.4752025,2.95011574 C18.4752025,3.95882523 18.4752025,4.96753472 18.4752025,5.97418981 C18.4752025,7.19039352 18.4752025,8.40454282 18.4752025,9.62074653 C18.4752025,10.670544 18.4752025,11.7203414 18.4752025,12.7701389 C18.4752025,13.2796296 18.4628762,13.7891204 18.4752025,14.2986111 C18.4752025,14.3047743 18.4752025,14.3129919 18.4752025,14.3191551 C18.7833623,14.1424769 19.0935764,13.9637442 19.4017361,13.787066 C19.1634259,13.6103877 18.8819734,13.4768519 18.6107928,13.3597512 C17.7972512,13.0043403 16.9549479,12.7989005 16.0736111,12.7023438 C14.9868345,12.5831887 13.8795139,12.6653646 12.8009549,12.8256076 C12.0552083,12.9385995 11.315625,13.1091146 10.6006944,13.3556424 C10.2432292,13.4789063 9.88165509,13.6124421 9.54678819,13.7891204 C9.85494792,13.9657986 10.165162,14.1445313 10.4733218,14.3212095 C10.4733218,13.9021123 10.4733218,13.4809606 10.4733218,13.0618634 C10.4733218,12.0531539 10.4733218,11.0444444 10.4733218,10.0377894 C10.4733218,8.82158565 10.4733218,7.60743634 10.4733218,6.39123264 C10.4733218,5.34143519 10.4733218,4.29163773 10.4733218,3.24184028 C10.4733218,2.73234954 10.4856481,2.2228588 10.4733218,1.71336806 C10.4733218,1.70720486 10.4733218,1.69898727 10.4733218,1.69282407 C10.3706019,1.86950231 10.2699363,2.04823495 10.1672164,2.22491319 C10.2740451,2.16944444 10.3849826,2.12013889 10.4959201,2.07494213 C10.4466146,2.09548611 10.397309,2.11603009 10.3480035,2.13657407 C11.0197917,1.85306713 11.728559,1.65173611 12.4434896,1.50792824 C12.7434317,1.4462963 13.0433738,1.39699074 13.3474248,1.35590278 C13.291956,1.36412037 13.2385417,1.37028356 13.1830729,1.37850116 C14.2020544,1.24291088 15.2456887,1.19771412 16.2667245,1.33125 C16.2112558,1.32303241 16.1578414,1.31686921 16.1023727,1.30865162 C16.7782697,1.39904514 17.4418403,1.56750579 18.0704861,1.83252315 C18.0211806,1.81197917 17.971875,1.79143519 17.9225694,1.7708912 C18.214294,1.89620949 18.5183449,2.03590856 18.7751447,2.22491319 C18.8942998,2.31530671 19.112066,2.3255787 19.2497106,2.28654514 C19.3935185,2.24751157 19.5475984,2.13657407 19.6174479,2.00303819 C19.6934606,1.85923032 19.7304398,1.68666088 19.6790799,1.52847222 C19.6256655,1.36617477 19.5311632,1.26140046 19.3955729,1.16073495 C19.1572627,0.984056713 18.8758102,0.850520833 18.6046296,0.733420139 C17.791088,0.378009259 16.9487847,0.172569444 16.0674479,0.0760127315 C14.9806713,-0.0431423611 13.8733507,0.0390335648 12.7947917,0.19927662 C12.0490451,0.312268519 11.3094618,0.482783565 10.5945312,0.729311343 C10.237066,0.852575231 9.8754919,0.986111111 9.540625,1.16278935 C9.35162037,1.26345486 9.23451968,1.48532986 9.23451968,1.69487847 C9.23451968,2.11397569 9.23451968,2.53512731 9.23451968,2.95422454 C9.23451968,3.96293403 9.23451968,4.97164352 9.23451968,5.97829861 C9.23451968,7.19450231 9.23451968,8.40865162 9.23451968,9.62485532 C9.23451968,10.6746528 9.23451968,11.7244502 9.23451968,12.7742477 C9.23451968,13.2837384 9.22630208,13.7932292 9.23451968,14.3027199 C9.23451968,14.3088831 9.23451968,14.3171007 9.23451968,14.3232639 C9.23451968,14.8060475 9.75428241,15.0710648 10.1610532,14.855353 C10.2678819,14.7998843 10.3788194,14.7505787 10.4897569,14.7053819 C10.4404514,14.7259259 10.3911458,14.7464699 10.3418403,14.7670139 C11.0136285,14.4835069 11.7223958,14.2821759 12.4373264,14.1383681 C12.7372685,14.0767361 13.0372106,14.0274306 13.3412616,13.9863426 C13.2857928,13.9945602 13.2323785,14.0007234 13.1769097,14.008941 C14.1958912,13.8733507 15.2395255,13.8281539 16.2605613,13.9616898 C16.2050926,13.9534722 16.1516782,13.947309 16.0962095,13.9390914 C16.7721065,14.029485 17.4356771,14.1979456 18.0643229,14.462963 C18.0150174,14.442419 17.9657118,14.421875 17.9164062,14.401331 C18.2081308,14.5266493 18.5121817,14.6663484 18.7689815,14.855353 C18.9394965,14.9827257 19.2168403,14.9580729 19.3914641,14.855353 C19.5784144,14.7464699 19.6975694,14.5410301 19.6975694,14.3232639 C19.6975694,13.9041667 19.6975694,13.483015 19.6975694,13.0639178 C19.6975694,12.0552083 19.6975694,11.0464988 19.6975694,10.0398438 C19.6975694,8.82364005 19.6975694,7.60949074 19.6975694,6.39328704 C19.6975694,5.34348958 19.6975694,4.29369213 19.6975694,3.24389468 C19.6975694,2.73440394 19.705787,2.22491319 19.6975694,1.71542245 C19.6975694,1.70925926 19.6975694,1.70104167 19.6975694,1.69487847 C19.6975694,1.37233796 19.4140625,1.06417824 19.08125,1.07855903 C18.7587095,1.08883102 18.4752025,1.34563079 18.4752025,1.69076968 Z" id="Path" stroke="#262626" stroke-width="0.4" fill="#262626" fill-rule="nonzero"></path>
                        <path d="M0.014380787,1.69076968 C0.014380787,2.1098669 0.014380787,2.53101852 0.014380787,2.95011574 C0.014380787,3.95882523 0.014380787,4.96753472 0.014380787,5.97418981 C0.014380787,7.19039352 0.014380787,8.40454282 0.014380787,9.62074653 C0.014380787,10.670544 0.014380787,11.7203414 0.014380787,12.7701389 C0.014380787,13.2796296 0.00616319444,13.7891204 0.014380787,14.2986111 C0.014380787,14.3047743 0.014380787,14.3129919 0.014380787,14.3191551 C0.014380787,14.5369213 0.131481481,14.7423611 0.320486111,14.8512442 C0.495109954,14.9539641 0.770399306,14.9786169 0.94296875,14.8512442 C1.19976852,14.6601852 1.50381944,14.5204861 1.79554398,14.3972222 C1.74623843,14.4177662 1.69693287,14.4383102 1.64762731,14.4588542 C2.27627315,14.1938368 2.94189815,14.0253762 3.61574074,13.9349826 C3.56027199,13.9432002 3.50685764,13.9493634 3.45138889,13.957581 C4.47242477,13.8240451 5.51605903,13.8692419 6.53504051,14.0048322 C6.47957176,13.9966146 6.42615741,13.9904514 6.37068866,13.9822338 C7.25202546,14.1013889 8.12514468,14.2986111 8.96128472,14.6047164 C9.0989294,14.654022 9.23451968,14.7074363 9.36805556,14.7649595 C9.31875,14.7444155 9.26944444,14.7238715 9.22013889,14.7033275 C9.33107639,14.7505787 9.44201389,14.7978299 9.54884259,14.8532986 C9.95766782,15.0690104 10.4753762,14.8039931 10.4753762,14.3212095 C10.4753762,13.9021123 10.4753762,13.4809606 10.4753762,13.0618634 C10.4753762,12.0531539 10.4753762,11.0444444 10.4753762,10.0377894 C10.4753762,8.82158565 10.4753762,7.60743634 10.4753762,6.39123264 C10.4753762,5.34143519 10.4753762,4.29163773 10.4753762,3.24184028 C10.4753762,2.73234954 10.4835938,2.2228588 10.4753762,1.71336806 C10.4753762,1.70720486 10.4753762,1.69898727 10.4753762,1.69282407 C10.4753762,1.48327546 10.3603299,1.26140046 10.1692708,1.16073495 C9.88987269,1.01281829 9.58993056,0.899826389 9.29409722,0.790943287 C8.62230903,0.546469907 7.92586806,0.369791667 7.22120949,0.246527778 C5.31472801,-0.0842303241 3.25005787,-0.135590278 1.42575231,0.595775463 C1.04774306,0.747800926 0.645081019,0.912152778 0.314322917,1.15868056 C0.180787037,1.25729167 0.0760127315,1.36001157 0.0308159722,1.52641782 C-0.0102719907,1.67433449 0.00821759259,1.86950231 0.0924479167,2.0009838 C0.176678241,2.13246528 0.304050926,2.24751157 0.460185185,2.28449074 C0.612210648,2.31941551 0.805324074,2.31941551 0.934751157,2.2228588 C1.19155093,2.03179977 1.49560185,1.89210069 1.78732639,1.76883681 C1.73802083,1.78938079 1.68871528,1.80992477 1.63940972,1.83046875 C2.26805556,1.56545139 2.93368056,1.39699074 3.60752315,1.30659722 C3.5520544,1.31481481 3.49864005,1.32097801 3.4431713,1.3291956 C4.46420718,1.19565972 5.50784144,1.24085648 6.52682292,1.37644676 C6.47135417,1.36822917 6.41793981,1.36206597 6.36247106,1.35384838 C7.24380787,1.47300347 8.11692708,1.67022569 8.95306713,1.97633102 C9.09071181,2.02563657 9.22630208,2.07905093 9.35983796,2.13657407 C9.31053241,2.11603009 9.26122685,2.09548611 9.2119213,2.07494213 C9.3228588,2.12219329 9.4337963,2.16944444 9.540625,2.22491319 C9.43790509,2.04823495 9.33723958,1.86950231 9.23451968,1.69282407 C9.23451968,2.1119213 9.23451968,2.53307292 9.23451968,2.95217014 C9.23451968,3.96087963 9.23451968,4.96958912 9.23451968,5.97624421 C9.23451968,7.19244792 9.23451968,8.40659722 9.23451968,9.62280093 C9.23451968,10.6725984 9.23451968,11.7223958 9.23451968,12.7721933 C9.23451968,13.281684 9.22219329,13.7911748 9.23451968,14.3006655 C9.23451968,14.3068287 9.23451968,14.3150463 9.23451968,14.3212095 C9.5426794,14.1445312 9.85289352,13.9657986 10.1610532,13.7891204 C9.88165509,13.6412037 9.58171296,13.5282118 9.28587963,13.4193287 C8.61409144,13.1748553 7.91765046,12.9981771 7.2129919,12.8749132 C5.30651042,12.5441551 3.24184028,12.4927951 1.41753472,13.2241609 C1.03952546,13.3761863 0.636863426,13.5405382 0.306105324,13.787066 C0.614265046,13.9637442 0.924479167,14.1424769 1.23263889,14.3191551 C1.23263889,13.9000579 1.23263889,13.4789062 1.23263889,13.059809 C1.23263889,12.0510995 1.23263889,11.04239 1.23263889,10.035735 C1.23263889,8.81953125 1.23263889,7.60538194 1.23263889,6.38917824 C1.23263889,5.33938079 1.23263889,4.28958333 1.23263889,3.23978588 C1.23263889,2.73029514 1.24085648,2.2208044 1.23263889,1.71131366 C1.23263889,1.70515046 1.23263889,1.69693287 1.23263889,1.69076968 C1.23263889,1.36822917 0.949131944,1.06006944 0.616319444,1.07445023 C0.295833333,1.08883102 0.014380787,1.34563079 0.014380787,1.69076968 Z" id="Path" stroke="#262626" stroke-width="0.4" fill="#262626" fill-rule="nonzero"></path>
                    </g>
                </g>
            </g>
        </g>
    </g>
</svg>