<?xml version="1.0" encoding="UTF-8"?>
<svg width="15px" height="13px" viewBox="0 0 15 13" version="1.1" xmlns="http://www.w3.org/2000/svg" xmlns:xlink="http://www.w3.org/1999/xlink">
    <!-- Generator: Sketch 55.1 (78136) - https://sketchapp.com -->
    <title>Path</title>
    <desc>Created with Sketch.</desc>
    <g id="PC" stroke="none" stroke-width="1" fill="none" fill-rule="evenodd">
        <g transform="translate(-1060.000000, -46.000000)" fill="#000000" fill-rule="nonzero" id="header">
            <g>
                <g id="icon_sns" transform="translate(1033.000000, 42.000000)">
                    <path d="M31.7232477,16.9842273 C37.3909046,16.9842273 40.4908738,12.288615 40.4908738,8.21660118 C40.4908738,8.08323041 40.4908738,7.95046041 40.4818623,7.81829118 C41.0849333,7.38207916 41.6055143,6.84196872 42.0192308,6.22324887 C41.4568381,6.47244901 40.8602444,6.63587439 40.2493646,6.70806964 C40.8926347,6.32296578 41.3740788,5.71726419 41.6040992,5.00368733 C40.9992192,5.3626201 40.3374651,5.61557801 39.6473938,5.75164502 C38.6922205,4.73598112 37.1744591,4.48739381 35.9451831,5.14527658 C34.715907,5.80315934 34.0808314,7.20389994 34.39607,8.56204348 C31.9184351,8.43783417 29.6100274,7.26758 28.0453385,5.34252118 C27.2274649,6.75051081 27.6452189,8.55174599 28.99936,9.4559881 C28.5089768,9.44145402 28.0292855,9.30916801 27.6007692,9.07029425 C27.6007692,9.08291041 27.6007692,9.09612733 27.6007692,9.10934425 C27.6011706,10.5761782 28.6351445,11.8395611 30.0729346,12.1300119 C29.6192755,12.2537344 29.1432926,12.2718201 28.6815531,12.1828796 C29.0852387,13.4381406 30.2420959,14.2980582 31.5604392,14.3228196 C30.4692831,15.1803768 29.1213519,15.6459104 27.7335392,15.6445119 C27.4883675,15.6440413 27.2434341,15.6291968 27,15.600055 C28.4091859,16.5043789 30.0488518,16.9840573 31.7232477,16.9818243" id="Path"></path>
                </g>
            </g>
        </g>
    </g>
</svg>