<?xml version="1.0" encoding="UTF-8"?>
<svg width="20px" height="20px" viewBox="0 0 20 20" version="1.1" xmlns="http://www.w3.org/2000/svg" xmlns:xlink="http://www.w3.org/1999/xlink">
    <!-- Generator: Sketch 55.1 (78136) - https://sketchapp.com -->
    <title>search</title>
    <desc>Created with Sketch.</desc>
    <g id="PC" stroke="none" stroke-width="1" fill="none" fill-rule="evenodd">
        <g transform="translate(-1112.000000, -42.000000)" id="header">
            <g>
                <g id="icon_sns" transform="translate(1033.000000, 42.000000)">
                    <g id="search" transform="translate(79.000000, 0.000000)">
                        <circle id="Oval" fill="#F5F5F5" cx="10" cy="10" r="10"></circle>
                        <g id="icon" transform="translate(5.000000, 5.000000)" fill="#000000" fill-rule="nonzero" stroke="#262626" stroke-width="0.2">
                            <g id="noun_Search_1773652">
                                <path d="M6.33087588,2.01261032 C6.44145887,2.12319331 6.54430104,2.2415171 6.64050824,2.36426422 C6.61175667,2.326666 6.58300509,2.29017362 6.55425351,2.2525754 C6.74224459,2.49806963 6.8981666,2.76568045 7.01980788,3.04987872 C7.00100877,3.00564553 6.98220966,2.96141233 6.96451639,2.91828497 C7.08947516,3.2157532 7.17351823,3.52759722 7.21664559,3.84718204 C7.21001061,3.79852553 7.20337563,3.74876319 7.19674066,3.70010667 C7.23765636,4.01747984 7.23765636,4.3381705 7.19674066,4.65554366 C7.20337563,4.60688715 7.21001061,4.55712481 7.21664559,4.50846829 C7.17351823,4.82805312 7.08947516,5.13989714 6.96451639,5.43736537 C6.98331549,5.39313217 7.0021146,5.34889898 7.01980788,5.30577161 C6.89927243,5.58996989 6.74335042,5.85758071 6.55425351,6.10307494 C6.58300509,6.06547672 6.61175667,6.02898434 6.64050824,5.99138612 C6.44919968,6.23909201 6.22582205,6.46136381 5.97922199,6.65267237 C6.01682021,6.62392079 6.05331259,6.59516922 6.09091081,6.56641764 C5.84541658,6.75440872 5.57780576,6.91033072 5.29360749,7.03197201 C5.33784068,7.0131729 5.38207387,6.99437379 5.42520124,6.97668052 C5.12773301,7.10163929 4.81588899,7.18568236 4.49630416,7.22880972 C4.54496068,7.22217474 4.59472302,7.21553976 4.64337953,7.20890478 C4.32600637,7.24982049 4.00531571,7.24982049 3.68794255,7.20890478 C3.73659906,7.21553976 3.7863614,7.22217474 3.83501792,7.22880972 C3.51543309,7.18568236 3.20358907,7.10163929 2.90612084,6.97668052 C2.95035404,6.99547962 2.99458723,7.01427873 3.03771459,7.03197201 C2.75351632,6.91143655 2.4859055,6.75551455 2.24041127,6.56641764 C2.27800949,6.59516922 2.31450187,6.62392079 2.35210009,6.65267237 C2.1043942,6.46136381 1.8821224,6.23798618 1.69081384,5.99138612 C1.71956541,6.02898434 1.74831699,6.06547672 1.77706857,6.10307494 C1.58907749,5.85758071 1.43315548,5.58996989 1.3115142,5.30577161 C1.33031331,5.35000481 1.34911242,5.394238 1.36680569,5.43736537 C1.24184692,5.13989714 1.15780385,4.82805312 1.11467649,4.50846829 C1.12131147,4.55712481 1.12794645,4.60688715 1.13458142,4.65554366 C1.09366572,4.3381705 1.09366572,4.01747984 1.13458142,3.70010667 C1.12794645,3.74876319 1.12131147,3.79852553 1.11467649,3.84718204 C1.15780385,3.52759722 1.24184692,3.2157532 1.36680569,2.91828497 C1.34800659,2.96251816 1.32920748,3.00675136 1.3115142,3.04987872 C1.43204965,2.76568045 1.58797166,2.49806963 1.77706857,2.2525754 C1.74831699,2.29017362 1.71956541,2.326666 1.69081384,2.36426422 C1.8821224,2.11655833 2.10550003,1.89428653 2.35210009,1.70297797 C2.31450187,1.73172954 2.27800949,1.76048112 2.24041127,1.7892327 C2.4859055,1.60124162 2.75351632,1.44531961 3.03771459,1.32367833 C2.9934814,1.34247744 2.94924821,1.36127654 2.90612084,1.37896982 C3.20358907,1.25401105 3.51543309,1.16996798 3.83501792,1.12684062 C3.7863614,1.13347559 3.73659906,1.14011057 3.68794255,1.14674555 C4.00531571,1.10582985 4.32600637,1.10582985 4.64337953,1.14674555 C4.59472302,1.14011057 4.54496068,1.13347559 4.49630416,1.12684062 C4.81588899,1.16996798 5.12773301,1.25401105 5.42520124,1.37896982 C5.38096804,1.36017071 5.33673485,1.34137161 5.29360749,1.32367833 C5.57780576,1.44421378 5.84541658,1.60013579 6.09091081,1.7892327 C6.05331259,1.76048112 6.01682021,1.73172954 5.97922199,1.70297797 C6.10196911,1.79918516 6.2202929,1.90202734 6.33087588,2.01261032 C6.4315064,2.11324084 6.5796876,2.17406148 6.72233965,2.17406148 C6.85835672,2.17406148 7.01980788,2.11434667 7.11380342,2.01261032 C7.21001061,1.90755649 7.28188955,1.76932776 7.27525457,1.62114656 C7.2686196,1.47517702 7.21885725,1.33584246 7.11380342,1.22968279 C6.51997279,0.640275482 5.73925691,0.21784848 4.91099036,0.0796197491 C4.68761273,0.0420215343 4.46091761,0.0154816179 4.23422249,0.0110582985 C4.02632648,0.00663497909 3.82064213,0.0243282567 3.61495778,0.0519740029 C3.40816759,0.0796197491 3.2046949,0.116112134 3.0045397,0.174721116 C2.78669122,0.238859247 2.57437189,0.324008146 2.36758171,0.419109513 C1.98607041,0.596042288 1.63441652,0.843748175 1.32588999,1.12794645 C1.01072848,1.4187797 0.737588509,1.7671161 0.528586668,2.14199242 C0.329537295,2.50028129 0.176932776,2.89395671 0.0939955371,3.29647878 C0.0110582985,3.69900084 -0.0232224268,4.1158987 0.0165874477,4.52616157 C0.0563973223,4.94084776 0.14265205,5.34558149 0.302997379,5.73041028 C0.391463766,5.94272961 0.486565133,6.15062562 0.608206417,6.3463575 C0.73095353,6.5465127 0.87471141,6.73560961 1.02731593,6.91475404 C1.30598505,7.23986802 1.64547481,7.52185463 2.01039867,7.74412643 C2.36094673,7.95755159 2.75351632,8.12121441 3.1527209,8.21963327 C3.95002422,8.41647098 4.82031231,8.38329608 5.59107572,8.09246283 C5.80671254,8.01063142 6.0201377,7.91774172 6.22139873,7.80384124 C6.42376559,7.68994077 6.60954501,7.55281787 6.79200693,7.40905999 C7.13039086,7.14144916 7.41901246,6.81191187 7.65676587,6.453623 C8.1134736,5.76579683 8.35122702,4.91873117 8.33242791,4.0937821 C8.3136288,3.26551554 8.04933547,2.42840235 7.55724119,1.75826946 C7.42011829,1.57249004 7.27525457,1.39445144 7.11269759,1.23078862 C7.0131729,1.13015811 6.86278004,1.06933746 6.72123382,1.06933746 C6.58521675,1.06933746 6.42376559,1.12905228 6.32977005,1.23078862 C6.23356286,1.33584246 6.16168392,1.47407119 6.1683189,1.62225239 C6.17495388,1.76822193 6.22471622,1.90645066 6.33087588,2.01261032 Z" id="Path"></path>
                                <path d="M6.33087588,7.12375589 C6.59959254,7.39247254 6.86941502,7.66229502 7.13813167,7.93101168 C7.56719365,8.36007366 7.99625564,8.78913564 8.42531762,9.21819762 C8.52373647,9.31661648 8.62326116,9.41614116 8.72168002,9.51456002 C8.82231053,9.61519053 8.97049173,9.67601118 9.11314378,9.67601118 C9.24916085,9.67601118 9.41061201,9.61629636 9.50460755,9.51456002 C9.60081475,9.40950618 9.67269369,9.27127745 9.66605871,9.12309625 C9.65942373,8.97602088 9.60966139,8.83779215 9.50460755,8.73163249 C9.2358909,8.46291583 8.96606841,8.19309335 8.69735176,7.9243767 C8.26828978,7.49531471 7.8392278,7.06625273 7.41016582,6.63719075 C7.31174696,6.5387719 7.21222227,6.43924721 7.11380342,6.34082835 C7.0131729,6.24019784 6.8649917,6.17937719 6.72233965,6.17937719 C6.58632258,6.17937719 6.42487142,6.23909201 6.33087588,6.34082835 C6.23466869,6.44588219 6.16278975,6.58411092 6.16942473,6.73229212 C6.17495388,6.87936749 6.22471622,7.01759622 6.33087588,7.12375589 L6.33087588,7.12375589 Z" id="Path"></path>
                            </g>
                        </g>
                    </g>
                </g>
            </g>
        </g>
    </g>
</svg>