<?xml version="1.0" encoding="UTF-8"?>
<svg width="24px" height="25px" viewBox="0 0 24 25" version="1.1" xmlns="http://www.w3.org/2000/svg" xmlns:xlink="http://www.w3.org/1999/xlink">
    <!-- Generator: Sketch 55.1 (78136) - https://sketchapp.com -->
    <title>hatenabookmark-logomark</title>
    <desc>Created with Sketch.</desc>
    <g id="SP" stroke="none" stroke-width="1" fill="none" fill-rule="evenodd">
        <g id="detail" transform="translate(-289.000000, -5166.000000)" fill-rule="nonzero">
            <g id="sns" transform="translate(63.000000, 5132.000000)">
                <g id="sns_icon" transform="translate(0.000000, 31.000000)">
                    <g id="hatenabookmark-logomark" transform="translate(226.591760, 3.745318)">
                        <rect id="Rectangle" fill="#00A4DE" x="0" y="0" width="23.4082397" height="23.4082397" rx="11.7041199"></rect>
                        <g id="Group" transform="translate(5.290262, 6.367041)" fill="#FFFFFF">
                            <path d="M7.7340824,5.71629213 C7.30961298,5.24188514 6.71972534,4.97659176 5.96441948,4.92041199 C6.63857678,4.73782772 7.12546816,4.47097378 7.43445693,4.11048689 C7.74344569,3.75 7.89325843,3.27715356 7.89325843,2.67322097 C7.90098933,2.23078751 7.79457107,1.79382772 7.58426966,1.40449438 C7.3715353,1.03622506 7.06022882,0.734646912 6.68539326,0.533707865 C6.34363296,0.346441948 5.93632959,0.210674157 5.4588015,0.131086142 C4.98127341,0.0514981273 4.14325843,0.0187265918 2.94475655,0.0187265918 L0.0280898876,0.0187265918 L0.0280898876,10.6554307 L3.03370787,10.6554307 C4.24157303,10.6554307 5.11235955,10.6148564 5.64606742,10.5337079 C6.17977528,10.4494382 6.62453184,10.3089888 6.98501873,10.1170412 C7.41873788,9.89237965 7.77568271,9.54358425 8.01029963,9.11516854 C8.24906367,8.68445693 8.37078652,8.1835206 8.37078652,7.61235955 C8.37078652,6.82116105 8.16011236,6.18913858 7.7340824,5.71629213 Z M2.7247191,2.37359551 L3.34737828,2.37359551 C4.06835206,2.37359551 4.55212235,2.45474407 4.79868914,2.6170412 C5.04681648,2.78089888 5.16853933,3.06179775 5.16853933,3.45973783 C5.16853933,3.8576779 5.03277154,4.11516854 4.77059925,4.27434457 C4.50842697,4.4335206 4.01685393,4.50842697 3.3005618,4.50842697 L2.7247191,4.50842697 L2.7247191,2.37359551 L2.7247191,2.37359551 Z M5.19662921,8.47378277 C4.91104869,8.64700375 4.4241573,8.73127341 3.7406367,8.73127341 L2.7247191,8.73127341 L2.7247191,6.41385768 L3.78277154,6.41385768 C4.48501873,6.41385768 4.97191011,6.50280899 5.22940075,6.68071161 C5.48689139,6.85861423 5.62265918,7.167603 5.62265918,7.6170412 C5.62265918,8.0664794 5.48220974,8.30524345 5.19194757,8.47846442 L5.19662921,8.47378277 Z" id="Shape"></path>
                            <path d="M11.4513109,7.96348315 C10.7066573,7.96348315 10.1029963,8.56714416 10.1029963,9.31179775 C10.1029963,10.0564513 10.7066573,10.6601124 11.4513109,10.6601124 C12.1959645,10.6601124 12.7996255,10.0564513 12.7996255,9.31179775 C12.7996255,8.56714416 12.1959645,7.96348315 11.4513109,7.96348315 Z" id="Path"></path>
                            <rect id="Rectangle" x="10.2808989" y="0.0187265918" width="2.34082397" height="7.09363296"></rect>
                        </g>
                    </g>
                </g>
            </g>
        </g>
    </g>
</svg>