<?xml version="1.0" encoding="UTF-8"?>
<svg width="27px" height="27px" viewBox="0 0 27 27" version="1.1" xmlns="http://www.w3.org/2000/svg" xmlns:xlink="http://www.w3.org/1999/xlink">
    <!-- Generator: Sketch 55.1 (78136) - https://sketchapp.com -->
    <title>LINE_SOCIAL_Circle_RGB</title>
    <desc>Created with Sketch.</desc>
    <g id="SP" stroke="none" stroke-width="1" fill="none" fill-rule="evenodd">
        <g id="detail" transform="translate(-63.000000, -5165.000000)" fill-rule="nonzero">
            <g id="sns" transform="translate(63.000000, 5132.000000)">
                <g id="sns_icon" transform="translate(0.000000, 31.000000)">
                    <g id="Twitter_Logo_Blue">
                        <g id="LINE_SOCIAL_Circle_RGB" transform="translate(0.000000, 2.808989)">
                            <circle id="Oval" fill="#00B900" cx="13.06528" cy="13.0002786" r="13.0002786"></circle>
                            <g id="TYPE_A_19_" transform="translate(4.333426, 5.200111)">
                                <g id="Group">
                                    <path d="M17.377039,7.02015043 C17.377039,3.14173399 13.4986226,7.10542736e-15 8.73185378,7.10542736e-15 C3.96508497,7.10542736e-15 0.0866685238,3.14173399 0.0866685238,7.02015043 C0.0866685238,10.4868914 3.16340112,13.3902869 7.32349027,13.9536323 C7.60516297,14.0186337 7.99517133,14.1486365 8.08183985,14.386975 C8.16850837,14.6036463 8.14684124,14.9503204 8.10350698,15.1669917 C8.10350698,15.1669917 7.99517133,15.7736713 7.97350419,15.9036741 C7.93016993,16.1203454 7.80016715,16.7486922 8.73185378,16.380351 C9.66354041,15.9903427 13.7152939,13.4552883 15.5353329,11.3535766 L15.5353329,11.3535766 C16.7920265,9.96688024 17.377039,8.58018386 17.377039,7.02015043" id="Path" fill="#FFFFFF"></path>
                                    <g transform="translate(2.816727, 4.983440)" fill="#00B900" id="Path">
                                        <path d="M4.16008914,0.173337048 L3.55340948,0.173337048 C3.46674095,0.173337048 3.38007243,0.238338441 3.38007243,0.346674095 L3.38007243,4.11675488 C3.38007243,4.20342341 3.44507382,4.29009193 3.55340948,4.29009193 L4.16008914,4.29009193 C4.24675767,4.29009193 4.33342619,4.22509054 4.33342619,4.11675488 L4.33342619,0.346674095 C4.33342619,0.238338441 4.2684248,0.173337048 4.16008914,0.173337048"></path>
                                        <path d="M8.34184542,0.173337048 L7.73516575,0.173337048 C7.64849723,0.173337048 7.56182871,0.238338441 7.56182871,0.346674095 L7.56182871,2.57838858 L5.82845823,0.238338441 C5.82845823,0.238338441 5.82845823,0.21667131 5.8067911,0.21667131 C5.8067911,0.21667131 5.8067911,0.21667131 5.8067911,0.21667131 C5.8067911,0.21667131 5.8067911,0.21667131 5.8067911,0.21667131 C5.8067911,0.21667131 5.8067911,0.21667131 5.8067911,0.21667131 C5.8067911,0.21667131 5.8067911,0.21667131 5.8067911,0.21667131 C5.8067911,0.21667131 5.8067911,0.21667131 5.8067911,0.21667131 C5.8067911,0.21667131 5.8067911,0.21667131 5.8067911,0.21667131 C5.8067911,0.21667131 5.8067911,0.21667131 5.8067911,0.21667131 C5.8067911,0.21667131 5.8067911,0.21667131 5.8067911,0.21667131 C5.8067911,0.21667131 5.8067911,0.21667131 5.8067911,0.21667131 C5.8067911,0.21667131 5.8067911,0.21667131 5.8067911,0.21667131 C5.8067911,0.21667131 5.8067911,0.21667131 5.8067911,0.21667131 C5.8067911,0.21667131 5.8067911,0.21667131 5.8067911,0.21667131 C5.8067911,0.21667131 5.8067911,0.21667131 5.8067911,0.21667131 C5.8067911,0.21667131 5.8067911,0.21667131 5.8067911,0.21667131 C5.8067911,0.21667131 5.8067911,0.21667131 5.8067911,0.21667131 C5.8067911,0.21667131 5.8067911,0.21667131 5.8067911,0.21667131 C5.8067911,0.21667131 5.8067911,0.21667131 5.8067911,0.21667131 C5.8067911,0.21667131 5.8067911,0.21667131 5.8067911,0.21667131 L5.20011143,0.21667131 C5.11344291,0.21667131 5.02677438,0.281672703 5.02677438,0.390008357 L5.02677438,4.16008914 C5.02677438,4.24675767 5.09177578,4.33342619 5.20011143,4.33342619 L5.8067911,4.33342619 C5.89345962,4.33342619 5.98012815,4.2684248 5.98012815,4.16008914 L5.98012815,1.86337326 L7.71349862,4.20342341 C7.73516575,4.22509054 7.73516575,4.22509054 7.75683288,4.24675767 C7.75683288,4.24675767 7.75683288,4.24675767 7.75683288,4.24675767 C7.75683288,4.24675767 7.75683288,4.24675767 7.75683288,4.24675767 C7.75683288,4.24675767 7.75683288,4.24675767 7.75683288,4.24675767 C7.75683288,4.24675767 7.75683288,4.24675767 7.75683288,4.24675767 C7.75683288,4.24675767 7.75683288,4.24675767 7.75683288,4.24675767 C7.75683288,4.24675767 7.75683288,4.24675767 7.75683288,4.24675767 C7.75683288,4.24675767 7.75683288,4.24675767 7.77850002,4.24675767 C7.77850002,4.24675767 7.77850002,4.24675767 7.77850002,4.24675767 C7.80016715,4.24675767 7.80016715,4.24675767 7.82183428,4.24675767 L8.42851394,4.24675767 C8.51518247,4.24675767 8.60185099,4.18175628 8.60185099,4.07342062 L8.60185099,0.346674095 C8.51518247,0.238338441 8.42851394,0.173337048 8.34184542,0.173337048"></path>
                                        <path d="M2.70839137,3.33673817 L1.06168942,3.33673817 L1.06168942,0.346674095 C1.06168942,0.260005572 0.996688024,0.173337048 0.888352369,0.173337048 L0.281672703,0.173337048 C0.195004179,0.173337048 0.108335655,0.238338441 0.108335655,0.346674095 L0.108335655,4.11675488 L0.108335655,4.11675488 C0.108335655,4.16008914 0.130002786,4.20342341 0.151669917,4.22509054 C0.151669917,4.22509054 0.151669917,4.22509054 0.151669917,4.22509054 C0.151669917,4.22509054 0.151669917,4.22509054 0.151669917,4.22509054 C0.173337048,4.24675767 0.21667131,4.2684248 0.260005572,4.2684248 L0.260005572,4.2684248 L2.68672424,4.2684248 C2.77339276,4.2684248 2.86006129,4.20342341 2.86006129,4.09508775 L2.86006129,3.48840808 C2.88172842,3.40173956 2.79505989,3.33673817 2.70839137,3.33673817"></path>
                                        <path d="M11.7002507,1.10502368 C11.7869192,1.10502368 11.8735878,1.04002229 11.8735878,0.931686631 L11.8735878,0.325006964 C11.8735878,0.238338441 11.8085864,0.151669917 11.7002507,0.151669917 L9.27353205,0.151669917 L9.27353205,0.151669917 C9.23019779,0.151669917 9.18686353,0.173337048 9.1651964,0.195004179 C9.1651964,0.195004179 9.1651964,0.195004179 9.1651964,0.195004179 C9.1651964,0.195004179 9.1651964,0.195004179 9.1651964,0.195004179 C9.14352927,0.21667131 9.12186214,0.260005572 9.12186214,0.303339833 L9.12186214,0.303339833 L9.12186214,4.07342062 L9.12186214,4.07342062 C9.12186214,4.11675488 9.14352927,4.16008914 9.1651964,4.18175628 C9.1651964,4.18175628 9.1651964,4.18175628 9.1651964,4.18175628 C9.1651964,4.18175628 9.1651964,4.18175628 9.1651964,4.18175628 C9.18686353,4.20342341 9.23019779,4.22509054 9.27353205,4.22509054 L9.27353205,4.22509054 L11.7002507,4.22509054 C11.7869192,4.22509054 11.8735878,4.16008914 11.8735878,4.05175349 L11.8735878,3.44507382 C11.8735878,3.3584053 11.8085864,3.27173678 11.7002507,3.27173678 L10.0535488,3.27173678 L10.0535488,2.64338998 L11.7002507,2.64338998 C11.7869192,2.64338998 11.8735878,2.57838858 11.8735878,2.47005293 L11.8735878,1.86337326 C11.8735878,1.77670474 11.8085864,1.69003622 11.7002507,1.69003622 L10.0535488,1.69003622 L10.0535488,1.06168942 L11.7002507,1.06168942 L11.7002507,1.10502368 Z"></path>
                                    </g>
                                </g>
                            </g>
                        </g>
                    </g>
                </g>
            </g>
        </g>
    </g>
</svg>