<?xml version="1.0" encoding="UTF-8"?>
<svg width="24px" height="25px" viewBox="0 0 24 25" version="1.1" xmlns="http://www.w3.org/2000/svg" xmlns:xlink="http://www.w3.org/1999/xlink">
    <!-- Generator: Sketch 55.1 (78136) - https://sketchapp.com -->
    <title>pocket [更新済み]</title>
    <desc>Created with Sketch.</desc>
    <g id="SP" stroke="none" stroke-width="1" fill="none" fill-rule="evenodd">
        <g id="detail" transform="translate(-234.000000, -5166.000000)" fill-rule="nonzero">
            <g id="sns" transform="translate(63.000000, 5132.000000)">
                <g id="sns_icon" transform="translate(0.000000, 31.000000)">
                    <g id="pocket-[更新済み]" transform="translate(171.348315, 3.745318)">
                        <rect id="Rectangle" fill="#E03F53" x="0" y="0" width="23.4082397" height="23.4082397"></rect>
                        <g id="Group" transform="translate(5.303429, 6.812164)">
                            <path d="M11.5258149,0 L1.27556619,0 C0.580634071,0 0.00914384363,0.571490227 0.00914384363,1.26642234 L0.00914384363,1.51787804 L0.00914384363,2.9123142 L0.00914384363,5.69661458 L0.0365753745,5.69661458 C0.324606449,8.96096676 3.06318762,11.5166711 6.40069054,11.5166711 C9.73819347,11.5166711 12.4767746,8.95639484 12.7648057,5.69661458 L12.7922372,5.69661458 L12.7922372,2.9123142 L12.7922372,1.51787804 L12.7922372,1.26642234 C12.7922372,0.571490227 12.2253189,0 11.5258149,0 Z" id="Path" fill="#FFFFFF"></path>
                            <path d="M6.38240286,8.04201048 C6.16752253,8.04201048 5.95264221,7.95971588 5.7834811,7.7951267 L2.79801615,4.80966175 C2.46883778,4.48048338 2.46883778,3.94556853 2.79801615,3.61639016 C3.12719452,3.28721179 3.66210937,3.28721179 3.99128775,3.61639016 L6.37783093,6.00293335 L8.76437412,3.61639016 C9.09355249,3.28721179 9.62846735,3.28721179 9.95764572,3.61639016 C10.2868241,3.94556853 10.2868241,4.48048338 9.95764572,4.80966175 L6.97218077,7.7951267 C6.81216351,7.95971588 6.59728318,8.04201048 6.38240286,8.04201048 Z" id="Path" fill="#E03F53"></path>
                        </g>
                    </g>
                </g>
            </g>
        </g>
    </g>
</svg>