<?xml version="1.0" encoding="UTF-8"?>
<svg width="27px" height="22px" viewBox="0 0 27 22" version="1.1" xmlns="http://www.w3.org/2000/svg" xmlns:xlink="http://www.w3.org/1999/xlink">
    <!-- Generator: Sketch 55.1 (78136) - https://sketchapp.com -->
    <title>Path</title>
    <desc>Created with Sketch.</desc>
    <g id="SP" stroke="none" stroke-width="1" fill="none" fill-rule="evenodd">
        <g id="detail" transform="translate(-120.000000, -5167.000000)" fill="#1DA1F2" fill-rule="nonzero">
            <g id="sns" transform="translate(63.000000, 5132.000000)">
                <g id="sns_icon" transform="translate(0.000000, 31.000000)">
                    <path d="M65.2872846,25.7944809 C75.0922846,25.7944809 80.455206,17.6711101 80.455206,10.6265596 C80.455206,10.3958292 80.455206,10.1661382 80.4396161,9.93748654 C81.482924,9.18284333 82.3835249,8.2484567 83.0992509,7.17807643 C82.1263162,7.60919063 81.0942139,7.89191519 80.037397,8.01681238 C81.1502489,7.35058587 81.9831434,6.30272709 82.3810768,5.06824497 C81.3346393,5.68919572 80.1898101,6.12681083 78.9959925,6.36220564 C77.3435504,4.60511543 74.7178357,4.17506142 72.5911982,5.31319321 C70.4645608,6.451325 69.3658851,8.87459474 69.9112453,11.2241719 C65.6249572,11.0092908 61.6314308,8.98476073 58.9245318,5.65442474 C57.5096173,8.09023527 58.2323282,11.2063573 60.5749813,12.7706888 C59.7266224,12.7455449 58.8967604,12.5166912 58.1554307,12.1034416 C58.1554307,12.1252674 58.1554307,12.1481326 58.1554307,12.1709978 C58.1561251,14.7086085 59.9448915,16.8942506 62.4322566,17.3967281 C61.64743,17.6107669 60.8239836,17.642055 60.0251779,17.4881888 C60.7235507,19.6597799 62.7249043,21.1474304 65.0056273,21.1902674 C63.1179362,22.6738343 60.7860263,23.4792036 58.3851217,23.4767843 C57.9609766,23.47597 57.5372439,23.4502893 57.1161049,23.3998742 C59.5539849,24.964347 62.3905935,25.7941867 65.2872846,25.7903236" id="Path"></path>
                </g>
            </g>
        </g>
    </g>
</svg>