<?xml version="1.0" encoding="UTF-8"?>
<svg width="25px" height="26px" viewBox="0 0 25 26" version="1.1" xmlns="http://www.w3.org/2000/svg" xmlns:xlink="http://www.w3.org/1999/xlink">
    <!-- Generator: Sketch 55.1 (78136) - https://sketchapp.com -->
    <title>f_logo_RGB-Black_1024</title>
    <desc>Created with Sketch.</desc>
    <g id="SP" stroke="none" stroke-width="1" fill="none" fill-rule="evenodd">
        <g id="detail" transform="translate(-178.000000, -5165.000000)" fill-rule="nonzero">
            <g id="sns" transform="translate(63.000000, 5132.000000)">
                <g id="sns_icon" transform="translate(0.000000, 31.000000)">
                    <g id="f_logo_RGB-Black_1024" transform="translate(115.168539, 2.808989)">
                        <g id="f_logo_RGB-Blue_1024">
                            <path d="M24.3445693,12.1722846 C24.3445693,5.4489993 18.89557,0 12.1722846,0 C5.4489993,0 0,5.4489993 0,12.1722846 C0,18.2489174 4.45049157,23.2842492 10.2703652,24.1971705 L10.2703652,15.6908357 L7.17974602,15.6908357 L7.17974602,12.1722846 L10.2703652,12.1722846 L10.2703652,9.49057818 C10.2703652,6.44037482 12.0866983,4.75479869 14.8682555,4.75479869 C16.1995991,4.75479869 17.5927551,4.99253862 17.5927551,4.99253862 L17.5927551,7.9880618 L16.0569552,7.9880618 C14.5449292,7.9880618 14.0742041,8.92713454 14.0742041,9.88998127 L14.0742041,12.1722846 L17.4501112,12.1722846 L16.9104415,15.6908357 L14.0742041,15.6908357 L14.0742041,24.1971705 C19.8940777,23.2842492 24.3445693,18.2489174 24.3445693,12.1722846 Z" id="Path" fill="#1877F2"></path>
                            <path d="M16.9104415,15.6908357 L17.4501112,12.1722846 L14.0742041,12.1722846 L14.0742041,9.88998127 C14.0742041,8.92713454 14.5449292,7.9880618 16.0569552,7.9880618 L17.5927551,7.9880618 L17.5927551,4.99253862 C17.5927551,4.99253862 16.1995991,4.75479869 14.8682555,4.75479869 C12.0866983,4.75479869 10.2703652,6.44037482 10.2703652,9.49057818 L10.2703652,12.1722846 L7.17974602,12.1722846 L7.17974602,15.6908357 L10.2703652,15.6908357 L10.2703652,24.1971705 C10.8908664,24.2946439 11.525632,24.3445693 12.1722846,24.3445693 C12.8189373,24.3445693 13.4537029,24.2946439 14.0742041,24.1971705 L14.0742041,15.6908357 L16.9104415,15.6908357 Z" id="Path" fill="#FFFFFF"></path>
                        </g>
                    </g>
                </g>
            </g>
        </g>
    </g>
</svg>