<svg width="285" height="118" viewBox="0 0 285 118" fill="none" xmlns="http://www.w3.org/2000/svg">
<path d="M60.112 75.9396L59.4712 76.8197L59.1543 77.2903L58.4991 78.0481L57.0085 80.1425L55.3528 81.8843L54.6651 82.8938L53.6859 84.0611L53.3079 84.5389L52.4368 85.5697L51.5045 86.6077L50.6874 87.5703L50.2411 87.994L48.5671 90.1097L46.6954 92.1246L46.1952 92.6165C44.3633 94.4409 44.2624 94.6385 42.0709 96.5667L39.2426 98.8789L38.6883 99.4391L38.2349 99.8017L36.5834 101.047L36.184 101.342L35.101 102.149L34.6803 102.26L33.2661 103.417L32.4603 103.944L30.4022 105.423L28.4451 106.704L27.8155 107.15L27.2938 107.458L25.4875 108.97L23.9439 110.079L19.7098 112.555L19.5947 112.63L16.8755 113.753C15.7895 114.003 14.8869 114.232 14.0312 114.332L13.7795 114.299L13.3517 114.349C12.5428 114.32 11.7197 114.168 10.9719 114.131L9.8972 113.946C8.35897 113.506 7.02962 112.732 6.0029 111.364C5.29905 110.641 4.96194 109.875 4.56371 109.116L4.48121 108.94C4.47409 108.879 4.39872 108.763 4.38447 108.641L4.34173 108.274L4.23074 107.854L4.06276 106.944L3.90604 105.599C3.90305 105.042 4.02943 104.532 4.03357 104.035L4.23946 103.144C4.21809 102.961 4.25784 102.77 4.2976 102.58L4.55037 101.559L4.82451 100.722L5.08027 100.258L5.49504 99.0326L6.25519 97.581L6.2807 97.2683L7.20998 95.6731C7.42598 95.4001 7.62061 94.9437 7.82949 94.6096L8.67214 93.3342L9.62991 91.9835L9.85304 91.7717L11.4873 89.8465L11.7033 89.5735L13.0961 88.234L13.9459 87.0198C15.2633 85.5652 16.5949 84.2328 18.0559 82.9474L18.1782 82.9331L18.5847 82.6999L19.7686 81.6946L20.0671 81.5978L20.3911 81.1883L20.7507 81.0845L22.0711 80.1871L22.064 80.126L22.6865 79.6198L23.0787 79.2643C23.0787 79.2643 23.2947 78.9913 23.4098 78.9159L24.5866 77.8494C27.9039 75.4803 31.2425 73.2945 34.5883 71.1698L35.2933 70.8398L35.8078 70.4701C37.0742 69.641 38.4231 68.9882 39.9482 68.2528L40.4841 68.0665L40.7755 67.9086C41.2502 67.7293 41.7718 67.4207 42.1243 67.2557L42.538 67.0836L43.0127 66.9044L45.9081 65.6996L46.7496 65.4776L47.5626 65.0111L48.5661 64.5844L50.9939 63.62L51.3535 63.5161L52.6015 63.0609L55.1372 61.9599C56.0256 61.6086 56.86 61.3255 57.565 60.9955L58.9893 60.4578L59.2266 60.3682L60.658 59.8916L63.2294 59.0962L65.38 58.4119L67.4155 57.803L68.3721 57.5056L68.962 57.251L69.4694 56.8201L69.7791 56.2884L69.1578 55.7413L68.2409 55.8481L67.162 56.1597L66.6119 56.2238L66.4357 56.3063L66.13 56.3419C65.7704 56.4458 65.425 56.6719 65.0654 56.7758C64.882 56.7972 64.7598 56.8114 64.5835 56.8939L64.339 56.9224L62.2964 57.4702L61.9439 57.6352C61.7677 57.7177 61.5914 57.8002 61.4692 57.8145L60.865 57.9468L60.5594 57.9824L60.0235 58.1688L57.2077 58.9926L56.74 59.233L55.4849 59.6271C55.3698 59.7024 55.0173 59.8674 54.9633 59.9357L53.1325 60.7066L52.0608 61.0794L50.5825 61.6853L49.2948 62.3311L49.0574 62.4207L48.3382 62.6284L47.2735 63.0623L45.6873 63.8047L45.0363 64.0665L43.0904 64.9128L42.9141 64.9953L42.3711 65.1205L41.6121 65.5187L41.0294 65.8345L40.792 65.9241C40.5618 66.0748 40.5006 66.082 40.5006 66.082L39.8425 66.2826L38.4254 66.8814L38.2634 67.0862C36.4469 67.9794 34.5152 68.9479 32.8352 69.9492L32.7741 69.9563L32.4756 70.053L32.2525 70.2649L32.1373 70.3403L31.9682 70.4839L31.6157 70.6489L30.3891 71.2875L28.0183 72.7409L27.5109 73.1718L27.1727 73.459L26.3668 73.9866C24.4168 75.3291 22.9344 76.4312 21.2289 77.7451L19.9839 78.7576L18.419 79.6834L17.879 80.3659L15.2738 82.4662L14.7664 82.8971L13.9819 83.608L13.7262 84.0715L13.503 84.2834C11.826 85.8419 10.1561 87.4614 8.6156 89.1279L8.3456 89.4691L7.31245 90.7047L6.9742 90.992L6.66444 91.5237C5.49066 93.1474 4.44626 94.818 3.65348 96.5212L2.98708 97.7141C2.73845 98.2387 2.42869 98.7705 2.01805 99.4998L1.21815 101.142L1.04489 101.782C0.796252 102.306 0.522111 103.144 0.175586 104.423C0.110326 104.926 0.134686 105.667 0.22017 106.4C0.291406 107.012 0.445139 107.799 0.631501 108.335L0.827976 109.489L1.19358 110.5C2.22029 111.867 2.36391 112.036 2.64403 112.314L2.7194 112.429C3.22564 113.051 3.85412 113.659 4.41435 114.214L4.84521 114.721L5.80782 115.538L6.61255 116.064L7.39591 116.406C7.45704 116.399 7.64754 116.439 7.77691 116.486L7.91341 116.594L8.68252 116.814L9.06352 116.893C9.75726 116.998 10.1311 117.017 10.5661 117.028C10.7495 117.007 10.994 116.978 11.2456 117.011C12.1554 116.843 12.8889 116.757 13.6906 116.726C14.8591 116.652 16.211 116.556 17.5272 116.155L18.2536 116.008L21.9294 114.589L22.5875 114.388L23.1091 114.079L23.3251 113.806L23.7785 113.444L24.2461 113.203L24.5915 112.977C24.5915 112.977 24.6924 112.78 24.7535 112.773L24.8146 112.765L25.106 112.608L26.9154 111.653L26.9694 111.585L27.8435 111.111L29.9698 109.686L31.1964 109.048L32.3661 107.92C32.5892 107.708 33.2799 107.256 33.9636 106.743C34.4638 106.251 34.9641 105.759 35.4786 105.389L35.8168 105.102L36.7918 104.431L37.9289 103.555L39.9044 101.899C40.3506 101.476 40.804 101.113 41.1494 100.887L42.0164 100.352L42.7867 99.5191C43.6863 98.7327 44.5859 97.9463 45.4713 97.0377L47.9981 94.2651L48.3364 93.9778L48.7357 93.6835L50.0134 92.4194L50.4454 91.8734L50.6685 91.6615L52.0613 90.3221L52.5473 89.7078C52.6482 89.5102 52.9253 89.2301 53.0333 89.0936L55.9535 84.912L59.104 80.5798L59.8742 79.7465L60.4 78.9418L60.994 78.1911L61.1489 77.9252L62.2146 76.438C63.3344 74.8825 64.1017 73.492 64.923 72.0333C65.3876 71.2357 65.8523 70.4381 66.432 69.5651C66.432 69.5651 66.8029 69.0263 66.9109 68.8898L67.3429 68.3438L69.0608 65.5414L69.7741 64.2192L70.0441 63.878L71.0559 62.459L71.8089 60.9463L72.2124 60.1558C72.4611 59.6312 72.7311 59.2899 72.8177 58.9701L74.1902 56.3939L74.9973 54.8129L75.2459 54.2883L75.7105 53.4907L76.3953 51.9239L76.8457 51.0041C76.8457 51.0041 76.8315 50.8818 76.8855 50.8136L77.7394 49.1032L78.4242 47.5365L78.8532 46.4333L79.1018 45.9087C79.1018 45.9087 79.0876 45.7864 79.6715 44.4173L80.1942 43.0553L80.4868 41.8441L81.3531 38.6454L81.4795 38.135L81.9809 36.5897C81.9666 36.4674 82.0064 36.2769 82.0461 36.0864C82.3713 34.6236 82.4721 34.4259 82.6994 33.7179L82.8993 31.7121C83.3681 30.4184 83.4945 29.908 83.6209 29.3976C83.6719 28.7721 83.6078 28.222 82.9722 27.5526C82.9722 27.5526 82.3182 27.2571 82.1888 27.2102L81.6927 27.2061C81.0417 27.4678 80.8186 27.6797 80.6097 28.0138L79.7018 29.7924L79.6294 30.2345C79.6579 30.479 79.5641 30.7378 79.5926 30.9823L79.5855 30.9211L79.4865 32.7294C79.4936 32.7905 79.4538 32.981 79.4681 33.1033C79.4354 33.3549 79.4028 33.6065 79.4313 33.851C79.4313 33.851 79.4129 34.2249 79.3803 34.4765L78.7585 37.6467L78.3366 38.8111L78.1776 39.5731C78.0909 39.8929 77.8892 40.2882 77.8097 40.6692L77.135 42.8543L76.7386 43.7059L76.5837 43.9717L76.2811 44.5646L75.6889 46.926C75.3353 48.1443 74.8054 49.4452 74.4161 50.3579C74.2215 50.8143 74.193 50.5698 73.7527 52.108C73.7058 52.2374 73.6987 52.1763 73.6987 52.1763C73.551 52.5033 73.2483 53.0961 73.1077 53.4842L72.7042 54.2747L72.5778 54.7851C72.484 55.0438 72.268 55.3168 72.1743 55.5756L71.4141 57.0272L70.6397 58.3565L70.1353 59.3446L69.3609 60.674L68.9105 61.5938L68.561 62.3161L68.1504 63.0454C67.9018 63.5701 67.5309 64.1089 67.2822 64.6335L66.8716 65.3629L66.2378 66.3041L66.0361 66.6994L65.7661 67.0406L65.0457 68.3017L64.7359 68.8335L64.1633 69.7676L64.0084 70.0334L63.6304 70.5112L63.3746 70.9747L62.8162 72.031C62.7694 72.1604 62.6002 72.304 62.5534 72.4334L61.5813 73.6619L60.4289 75.469L60.112 75.9396ZM98.036 20.7167L97.5938 20.6443L97.3493 20.6728L96.1197 20.7542L95.699 20.8652L95.0195 20.8824L94.7821 20.972L93.6747 21.0391L91.7727 21.1988L91.2766 21.1947L91.0861 21.155L90.536 21.2191L89.4031 21.5989L87.2026 21.8554L86.2104 21.8471L85.3618 22.0079C83.9559 22.1718 82.5572 22.3968 81.1584 22.6217L77.3972 23.3079L74.5854 23.6356L74.2941 23.7935L73.7297 23.7353C73.2478 23.8534 72.7191 24.1009 72.2372 24.219L71.3814 24.3188L70.6011 24.5336L68.9792 24.9705L67.7923 25.4186L65.5592 25.9266C62.6068 26.6424 59.5464 27.4947 56.6694 28.3257L55.5692 28.4539L55.1698 28.7483C52.1706 29.5934 48.4194 30.898 45.5638 31.9123L45.3122 31.8797L44.3769 32.3604L43.3449 32.5426L42.5177 32.8869L41.7913 33.0335L40.4751 33.4347L40.2519 33.6465L39.2342 33.951L38.6586 34.3279L36.2237 35.2312L35.6736 35.2953L35.0908 35.6111L34.9074 35.6324L33.4292 36.2384L32.5266 36.4675L31.7207 36.9951L30.5267 37.3821L29.8145 37.6509L28.5665 38.1062L26.9477 39.1002L25.4083 39.7133L24.0125 40.4955L22.8257 40.9436L21.2934 41.6178L20.6424 41.8796L19.0419 42.4998L17.6248 43.0986L15.0849 44.6957L14.3075 45.4678L13.361 46.3835L12.8281 47.1271L12.7231 47.8209L12.8839 48.6695L13.5053 49.2166L14.0441 49.5875L14.7308 49.6314L15.5254 49.5388L16.4891 49.3026L17.0719 48.9868L19.1014 47.2634L19.4397 46.9762L21.4223 45.3821L22.5878 44.7506C22.7029 44.6752 22.6347 44.6212 22.7498 44.5459L24.4981 43.5987L27.0807 42.3683L27.5483 42.128L29.1417 41.4466L29.9405 40.8579C30.5232 40.5422 31.2354 40.2733 31.8181 39.9576L34.0269 38.7089L34.6992 38.6305L35.228 38.383L35.8179 38.1284L37.3644 37.5765C37.4255 37.5693 37.6486 37.3575 37.7638 37.2821L38.2996 37.0957L38.6521 36.9307L39.4254 36.6548L40.0081 36.339C40.0693 36.3319 40.1844 36.2565 40.2455 36.2494L42.0976 35.6618L42.5653 35.4215C42.9106 35.1953 42.9718 35.1882 42.9718 35.1882L43.2631 35.0304L44.4785 34.8268L45.3669 34.4754L45.9639 34.2819L46.3021 33.9947L47.0825 33.7798L47.8374 33.8777L48.6575 33.4724L49.8586 33.1465C49.9738 33.0711 50.0818 32.9346 50.1898 32.7981L50.4414 32.8308L53.3326 32.1221L54.7569 31.5844L56.7853 30.9143L57.5514 30.5772L58.6914 30.2585L59.0653 30.2768L60.0973 30.0946L60.4355 29.8074L64.8519 28.3633C68.5846 27.4327 72.4468 26.5489 76.262 25.7945L78.1966 25.3832L78.5094 25.4087L78.7467 25.319L79.2969 25.2549C79.4802 25.2336 79.7176 25.1439 79.9621 25.1154L82.3857 24.6471L84.7625 24.3082L85.3808 24.2981L86.3588 24.1841L87.7107 24.0885L88.1926 23.9704L89.3611 23.8961L90.3319 23.721L91.8061 23.6112L93.8843 23.369L94.686 23.3375L95.1068 23.2265L96.3364 23.1452L96.8325 23.1493L97.2747 23.2217L97.8105 23.0353L98.4218 22.9641L100.14 22.8258L100.392 22.8584L101.363 22.6833L101.913 22.6192C105.623 22.5585 109.348 22.6201 113.237 23.0342C113.55 23.0597 113.938 23.2003 114.251 23.2258L115.013 23.3848L116.292 23.7313C116.415 23.7171 116.544 23.764 116.727 23.7426L117.877 24.0422C118 24.028 118.374 24.0464 118.557 24.025C119.006 24.1585 119.524 24.346 119.966 24.4184L120.415 24.5519L121.205 24.9554C121.389 24.9341 121.702 24.9596 121.885 24.9382L122.633 24.975L124.933 25.5743C124.994 25.5671 125.069 25.6823 125.131 25.6751L125.9 25.8953L126.281 25.9748L126.342 25.9677L126.669 26.1154L127.111 26.1878L127.898 26.0341L128.1 25.6388L127.907 25.0418C127.846 25.0489 127.231 24.5629 127.041 24.5232L126.911 24.4763L124.489 23.8913L123.896 23.5886L123.325 23.4694C123.263 23.4765 123.012 23.4439 122.89 23.4581L121.998 23.2522L120.392 22.7579L116.744 21.7581C114.839 21.3606 113.185 20.9957 111.744 20.8539L111.036 20.6266L110.173 20.6652C110.051 20.6795 109.922 20.6326 109.799 20.6468L107.366 20.4968C104.878 20.415 102.16 20.4839 99.5172 20.668C99.0893 20.7179 98.6615 20.7677 98.2265 20.7565L98.036 20.7167ZM98.1427 62.4L98.0613 61.1704L97.6702 60.4725L97.3616 59.9509L96.2625 59.0257L95.7379 58.7771L95.6085 58.7302L95.2744 58.5213L95.6809 58.2881L97.3639 57.8441L98.565 57.5183L99.7335 57.444L99.9567 57.2322L100.431 57.0529C102.291 56.5265 104.157 56.0611 106.825 55.5643C107.131 55.5287 107.375 55.5002 107.552 55.4177C107.789 55.3281 108.026 55.2385 108.332 55.2029L109.058 55.0563L109.975 54.9494C110.892 54.8425 112.542 54.6502 113.923 54.7991L114.868 54.9368L115.332 55.1925L115.849 55.38L115.87 55.5634L115.719 56.3865L115.376 57.1699L115.189 57.6874L115.116 58.1295L115.091 58.4422L115.237 59.1686L115.611 59.187L116.323 58.9181L116.647 58.5086C116.809 58.3039 116.917 58.1674 117.112 57.711L117.562 56.7912L117.797 56.1443L117.848 55.5188L117.701 54.7924L117.4 54.3319L116.513 53.6299C116.451 53.637 116.39 53.6442 116.261 53.5973C116.124 53.4893 116.11 53.367 115.546 53.3089L115.607 53.3018L115.021 53.0603L114.777 53.0888L114.647 53.0419C113.824 52.89 113.192 52.7779 112.695 52.7737L112.383 52.7482L111.887 52.7441L111.703 52.7655L111.261 52.6931L110.657 52.8254L109.977 52.8427L109.55 52.8925L109.19 52.9964L108.823 53.0391L108.572 53.0065L108.219 53.1715C108.036 53.1929 107.859 53.2754 107.676 53.2967L107.065 53.368C106.827 53.4576 106.583 53.4861 106.4 53.5075L105.598 53.5389L105.116 53.6571L103.893 53.7995L103.289 53.9319L102.807 54.05L101.865 54.4696L100.955 54.6376L100.243 54.9064L98.8047 55.3219C98.6071 55.221 98.2801 55.0733 98.0285 55.0406L97.7086 54.954L97.3418 54.9968C96.9069 54.9855 96.3027 55.1179 95.9431 55.2217L95.4612 55.3398L94.9182 55.4651L94.4577 55.7666L94.3966 55.7737L93.9361 56.0752L93.2596 56.6497C93.2056 56.7179 92.9682 56.8075 92.8531 56.8829L92.0116 57.1049L91.76 57.0723L90.62 57.391L89.696 57.4367L88.7791 57.5436C87.9091 57.521 87.1685 57.5454 86.3127 57.6451L85.2522 57.5829L84.803 57.4494L84.0155 57.6031L83.2963 57.8108L82.5373 58.2091L82.0471 59.3194L82.0715 60.06L82.6317 60.6143L83.1563 60.8629L83.9112 60.9608L85.4322 60.7216C85.9823 60.6575 86.5253 60.5322 86.9461 60.4213C87.1294 60.3999 87.2446 60.3245 87.3668 60.3103L88.2837 60.2034L87.9994 60.4224L87.7152 60.6414L86.5924 61.6396L85.8548 62.2212L85.2323 62.7275L84.6709 63.2266L84.4875 63.2479L84.1095 63.7257L82.7707 64.9969L82.4936 65.277L81.8853 65.9055C81.7702 65.9809 81.6082 66.1856 81.5542 66.2539L81.5002 66.3221L80.2694 67.4568L80.0534 67.7298L79.4992 68.29L78.844 69.0479L76.9 71.5048L76.4425 72.3636L76.1001 73.1469L75.9981 74.3979L76.1233 74.9409L76.3637 75.4086C76.5358 75.8222 77.4088 76.402 78.0556 76.6363L78.185 76.6832C78.893 76.9105 79.2669 76.9289 79.5796 76.9544C79.9535 76.9728 80.4496 76.9769 80.9997 76.9128L82.1682 76.8385L82.5961 76.7887L83.4376 76.5667L83.7972 76.4628L83.9592 76.2581C84.5562 76.0646 85.193 75.6806 86.2434 75.1245L86.4196 75.042C86.4807 75.0349 86.5887 74.8984 86.6428 74.8302L86.8801 74.7405L87.2938 74.5684L87.9448 74.3067L88.121 74.2242L88.6426 73.9156C88.6426 73.9156 88.8046 73.7108 88.8515 73.5815L89.2111 73.4776L89.5891 72.9999L90.0965 72.569L90.2657 72.4254L90.6182 72.2604L91.3487 71.6177L91.4638 71.5423C92.7699 70.5227 94.0149 69.5102 94.9401 68.4111L95.4943 67.8509L95.9732 67.1755L96.4592 66.5613L97.0746 65.9939L97.5861 65.067C97.6799 64.8082 97.7523 64.3661 97.792 64.1756C98.1457 62.9572 98.1243 62.7739 98.1569 62.5222L98.1427 62.4ZM94.4189 65.0024L94.0409 65.4801C94.0409 65.4801 93.994 65.6095 94.0011 65.6706L93.5151 66.2849L92.968 66.9062L92.8131 67.1721C92.374 67.6569 91.942 68.2029 91.4957 68.6267L91.2186 68.9068L89.6425 70.2676L89.2146 70.3175L88.1601 71.3697L87.1239 72.0481L87.0088 72.1234C86.2498 72.5217 85.3757 72.9953 84.4333 73.4149C82.5557 74.3152 82.1492 74.5484 80.24 74.647L80.1178 74.6613L79.7908 74.5135L79.3813 74.1895L79.3386 73.8228L79.3783 73.6323L79.3825 73.1361L79.4691 72.8163C79.4691 72.8163 79.4548 72.694 79.5088 72.6258C79.6424 72.1765 79.891 71.6519 80.1467 71.1884L80.5716 70.5813L81.0363 69.7837C81.0831 69.6543 81.4072 69.2448 81.5152 69.1083L82.2385 68.4045L82.6237 67.9879L83.2462 67.4816L83.8473 66.792L84.5778 66.1493L84.909 65.8009C85.3083 65.5066 85.6935 65.0899 86.0928 64.7956L86.3771 64.5766L87.0536 64.0021L88.644 62.7635C90.4789 61.4964 91.3174 60.7172 91.9399 60.211L92.3322 59.8555C92.4004 59.9095 92.5227 59.8953 92.5227 59.8953L93.306 60.2376L93.687 60.3171L94.068 60.3967L94.5926 60.6453L95.0561 60.901L95.1244 60.955C95.1315 61.0162 95.4258 61.4156 95.5012 61.5307C95.5297 61.7752 95.4828 61.9046 95.5042 62.0879L95.3381 62.7888L95.3808 63.1555C95.1933 63.673 95.0058 64.1905 94.588 64.8588L94.4189 65.0024ZM126.31 67.4193L126.533 67.2074L127.177 66.8845L127.407 66.7338L127.731 66.3243C128.699 65.592 129.706 64.6691 130.721 63.8074L131.013 63.6495L131.426 63.4774L132.143 62.7124L132.65 62.2816L134.409 60.8994L135.33 60.2964L135.662 59.948L136.014 59.783L136.601 58.9712L136.476 58.4282L135.937 58.0573L135.257 58.0745L134.926 58.4229C134.412 58.7926 134.081 59.141 133.681 59.4354L133.336 59.6615L133.106 59.8122L132.706 60.1066L132.077 60.5517L131.861 60.8247L131.454 61.0579L131.184 61.3992L131.062 61.4134L130.67 61.7689L130.554 61.8443L130.04 62.214L128.658 63.1185L128.381 63.3986L127.46 64.0016L127.244 64.2746L126.737 64.7054L126.338 64.9998L125.6 65.5814L125.262 65.8686L124.902 65.9725L124.449 66.3351L123.711 66.9167L122.797 67.5808L122.337 67.8823L120.433 69.0954L119.959 69.2746L119.023 69.7554L117.599 70.2931L117.376 70.5049L116.462 71.169C116.462 71.169 116.347 71.2444 116.293 71.3127L115.757 71.499L115.228 71.7465C114.747 71.8646 114.401 72.0907 113.98 72.2017L113.675 72.2374L113.301 72.219L112.941 72.3228L112.704 72.4125L112.269 72.4012L111.841 72.4511L111.82 72.2677L111.856 71.5199L111.828 71.2754L111.991 70.0173L112.399 68.7307L112.485 68.4108L112.731 67.329C112.778 67.1996 112.771 67.1385 112.987 66.8655L113.257 66.5243L113.794 65.2845L114.042 64.7599L114.399 64.0988L115.141 63.0211L115.937 61.8751C115.984 61.7457 116.084 61.5481 116.077 61.487L116.646 61.049C116.639 60.9879 116.624 60.8656 116.664 60.6751L117.042 60.1974L117.399 59.5363L117.91 58.6093L118.936 57.3126L119.07 56.8633L119.894 55.9618L120.672 55.1897L121.312 54.3096L121.791 53.6343L121.814 52.7643L121.764 52.3364C121.204 51.7821 120.708 51.778 120.265 51.7056C119.349 51.8125 118.489 52.4083 118.165 52.8178L117.564 53.5074L117.052 54.4344L116.4 55.7495L116.123 56.0296L115.935 56.5471L115.68 57.0106L114.999 58.0812L114.779 58.8503L113.957 60.3091L113.324 61.2503L113.176 61.5773L112.718 62.436C112.556 62.6408 112.416 63.0289 112.261 63.2948L112.099 63.4995L111.904 63.9559L111.771 64.4051C111.677 64.6639 111.461 64.9369 111.367 65.1956L111.119 65.7202L110.625 66.2733C110.625 66.2733 110.579 66.4027 110.586 66.4638L110.215 67.0027L109.826 67.9154C109.84 68.0377 109.739 68.2353 109.746 68.2964L109.4 69.5759L109.114 70.8483L109.157 71.215C109.038 71.7865 109.069 72.5883 109.18 73.009L109.176 73.5051L109.524 73.8363C110.023 74.3976 110.555 74.7074 111.188 74.8195L112.874 74.9328L113.586 74.664L114.449 74.6254L115.29 74.4034L116.096 73.8758L117.053 73.5784L117.466 73.4063L117.873 73.1731L118.672 72.5843C118.733 72.5772 118.963 72.4265 119.017 72.3582L119.485 72.1178L120.391 71.3926L120.615 71.1808L121.712 70.4953L122.003 70.3374L122.572 69.8994C122.809 69.8098 123.093 69.5908 123.331 69.5012L123.5 69.3576L123.892 69.0021L124.367 68.8228L125.18 68.3564L125.849 67.7208L126.31 67.4193ZM128.184 36.719C127.882 36.2585 127.405 35.8805 126.351 35.8794L125.876 36.0586L125.186 36.5108L124.376 37.5345L124.045 37.8829L123.652 38.2384L123.173 38.9138L122.965 39.2479L122.554 39.9772L121.848 41.3606L121.653 41.817L121.032 43.9338L121 44.1854L121.215 44.9658C121.643 44.9159 122.07 44.8661 122.355 44.6471L122.747 44.2916L123.632 43.383L124.619 42.2768C124.835 42.0038 125.288 41.6412 125.565 41.3611L125.788 41.1492L126.458 40.5136C127.717 39.6234 128.189 38.8869 128.416 38.1789C128.467 37.5534 128.363 37.1938 128.259 36.8341L128.184 36.719ZM132.521 62.5444L131.768 64.0571L131.674 64.3159L131.21 65.1135L130.921 65.8286L129.837 67.6897L129.488 68.4119C128.807 69.4825 128.838 70.2843 128.957 70.7661C129.204 71.2949 129.513 71.8165 130.267 71.9144L130.81 71.7892L131.879 70.8592L132.203 70.4497L133.816 68.3411L134.781 67.0515L135.45 66.4159L136.138 65.4065L136.3 65.2017L136.577 64.9216L137.031 64.559L137.146 64.4836L137.909 63.5893L138.071 63.3845L138.524 63.0219L139.032 62.591C139.255 62.3792 139.68 61.7721 139.896 61.4991L140.572 60.9246L141.119 60.3032L141.659 59.6207L141.951 59.4629L142.735 58.7519L143.257 58.4433L143.833 58.0664L144.232 57.7721C144.408 57.6896 144.455 57.5602 144.455 57.5602C144.631 57.4777 144.93 57.3809 145.113 57.3596C145.494 57.4391 145.673 57.9138 145.684 58.5322C145.698 58.6545 145.665 58.9061 145.679 59.0283L145.317 61.2389L145.1 62.5653L144.941 63.3273L145.027 64.0608C145.077 64.4887 145.119 64.8554 145.216 65.1539C145.485 65.866 146.052 66.4814 146.699 66.7158L146.958 66.8096L147.019 66.8024C147.598 66.9828 148.237 67.1561 148.91 67.0777L149.528 67.0676L149.881 66.9026L150.621 66.8783L151.287 66.7388L151.876 66.4842L152.412 66.2978C152.779 66.2551 153.016 66.1654 153.132 66.0901L153.308 66.0076L153.545 65.9179L153.775 65.7672L154.196 65.6562L154.915 65.4485L155.574 65.2479L156.095 64.9393C156.325 64.7885 156.603 64.5084 156.84 64.4188L157.667 64.0745L158.466 63.4858C158.628 63.2811 158.973 63.055 159.196 62.8431L159.319 62.8288L161.852 61.1707L162.765 60.5065C163.571 59.9789 164.208 59.595 164.661 59.2323L165.352 58.7801L166.198 58.062L166.781 57.7463L167.619 56.967C168.195 56.5902 168.763 56.1522 169.433 55.5166L170.447 54.6549L171.009 54.1558L171.053 53.4691L170.834 53.1849L170.431 52.922L169.759 53.0004L169.028 53.6431L168.737 53.801L167.999 54.3826L167.661 54.6698L165.725 56.1345L164.106 57.1286L163.592 57.4983L163.153 57.9832L162.761 58.3387L161.494 59.1678L161.196 59.2645L160.465 59.9073L158.501 61.1275L157.505 61.6153L157.321 61.6367L155.573 62.5839L154.699 63.0575L154.217 63.1756C154.041 63.2581 153.695 63.4842 153.458 63.5738L153.037 63.6848L151.994 64.302C150.976 64.6065 150.189 64.7603 149.448 64.7846L148.869 64.6042C148.808 64.6114 148.869 64.6042 148.801 64.5502L148.507 64.1509L148.41 63.8524C148.342 63.7983 148.177 63.4458 148.094 63.2696L147.998 62.9711L147.818 62.4963C147.797 62.313 147.844 62.1836 147.822 62.0002L148.011 60.4294L147.94 59.8181L147.951 59.3831L147.988 58.6354L147.978 58.017L147.914 57.4669L147.609 56.4491L146.966 55.7186L146.039 55.2071L144.688 55.3027L144.443 55.3312C144.008 55.3199 143.019 55.8689 142.551 56.1093C142.375 56.1918 142.213 56.3965 142.037 56.479L141.123 57.1431L140.885 57.2327L139.417 58.4571L139.248 58.6007L138.41 59.3799L138.194 59.6529L137.294 60.4393L137.2 60.698L137.045 60.9639L135.627 62.6161L134.918 63.4422L134.803 63.5176L135.206 62.7271C135.307 62.5295 135.419 61.8968 135.506 61.577L136.32 60.0571C136.569 59.5325 136.965 58.6809 137.275 58.1492L137.599 57.7397L137.671 57.2975L138.399 56.0976L138.633 55.4507L138.861 54.7427L139.365 53.7546L140.234 51.1131C140.516 50.3369 140.804 49.6218 140.949 48.7375C141.198 47.1596 140.473 46.2528 138.884 46.438C138.212 46.5164 137.481 47.1591 137.362 47.7306C137.282 48.1116 137.318 48.4172 137.375 48.9062C137.411 49.2118 137.522 49.6326 137.463 50.197C137.366 50.9518 137.214 51.7749 137.127 52.0948L136.222 54.4307L135.566 56.2419L135.411 56.5077L135.162 57.0324L134.027 59.519L133.469 60.5753L133.126 61.3587L132.784 62.142C132.791 62.2032 132.737 62.2714 132.737 62.2714L132.521 62.5444ZM208.887 58.477C208.894 58.5381 208.854 58.7286 208.861 58.7897C208.782 59.1707 208.893 59.5915 209.119 59.9368L209.209 60.1742L210.035 60.8834C210.157 60.8691 210.409 60.9017 210.47 60.8946L210.592 60.8804C210.905 60.9059 211.448 60.7806 211.868 60.6696C212.052 60.6483 212.228 60.5658 212.473 60.5373L213.084 60.466L213.857 60.1901L214.576 59.9823C214.699 59.9681 214.882 59.9467 214.997 59.8713L215.418 59.7604L216.083 59.6209L216.849 59.2838L217.087 59.1941L217.752 59.0547L219.752 58.1401L220.525 57.8641L221.115 57.6095L222.025 57.4415L222.201 57.359L222.622 57.248L223.169 56.6267L223.173 56.1305L222.94 55.724L222.07 55.7015L221.649 55.8125C221.527 55.8268 221.466 55.8339 221.35 55.9093L220.807 56.0345L220.02 56.1882L219.606 56.3603L218.168 56.7758L217.794 56.7574L216.967 57.1017L216.668 57.1984C216.546 57.2126 216.37 57.2951 216.247 57.3094C215.589 57.51 215.046 57.6352 214.557 57.6922L214.129 57.7421L213.756 57.7237L213.267 57.7807C213.083 57.8021 212.893 57.7623 212.709 57.7837C212.213 57.7795 211.954 57.6858 211.75 57.5238L211.735 57.4015C211.714 57.2182 211.74 56.9054 211.819 56.5244L212.089 56.1832L212.331 55.5974C212.323 55.5363 212.363 55.3458 212.349 55.2236L212.529 54.6449C212.522 54.5838 212.569 54.4545 212.555 54.3322L212.958 53.5417L212.944 53.4195L213.315 52.8806L213.495 52.302L213.669 51.6622L214.173 50.6741C214.173 50.6741 214.199 50.3614 214.245 50.232L214.581 49.3875L215.355 48.0582L215.489 47.6089L215.561 47.1668L215.518 46.8001L215.217 46.3396L214.739 45.9616C214.351 45.8209 213.916 45.8097 213.671 45.8382L213.373 45.9349L212.837 46.1213L212.377 46.4227L211.056 47.3201L210.779 47.6002L210.549 47.751L208.739 48.7053L208.455 48.9243L208.286 49.0679L207.527 49.4661L207.189 49.7534L206.559 50.1985L205.911 51.0175L205.227 51.5308L204.612 52.0982L202.899 53.351L201.917 53.9611L201.478 54.446C201.37 54.5825 201.248 54.5967 201.14 54.7332L199.895 55.7457L199.834 55.7528L199.535 55.8495L198.093 56.7611L197.261 57.6015L196.916 57.8276L196.625 57.9855L195.988 58.3695C195.873 58.4448 195.772 58.6424 195.657 58.7178L193.286 60.1713L192.94 60.3974L192.527 60.5695L191.538 61.1185L190.541 61.6063C190.426 61.6817 189.897 61.9292 189.361 62.1155C188.833 62.363 188.412 62.474 188.167 62.5025L187.923 62.531C187.848 62.4159 187.923 62.531 187.902 62.3476C187.887 62.2254 187.887 62.2254 187.941 62.1571L188.161 61.388L188.295 60.9388L188.494 59.9863L188.688 59.5299L189.2 58.6029C189.395 58.1466 189.65 57.6831 189.906 57.2196L190.371 56.422L191.401 54.6291L191.509 54.4926L191.84 54.1443L192.157 53.6737L192.427 53.3324L192.744 52.8618L193.284 52.1793L193.648 51.5793L194.112 50.7817L194.494 49.8079L194.79 49.1539L194.888 48.399L194.745 47.1765C194.62 46.6335 194.387 46.227 194.168 45.9427L193.561 45.5179L193.187 45.4995L192.705 45.6176L192.007 46.0087L191.395 47.1333L191.182 47.9635L191.091 48.7795L191.094 49.3368C191.115 49.5202 191.014 49.7178 191.021 49.7789L190.855 50.4798L190.762 50.7385L190.56 51.1338L190.001 52.1901L189.753 52.7147L189.504 53.2393L189.094 53.9687L188.723 54.5076L188.279 55.4886L188.024 55.9521L187.714 56.4838L187.587 56.9942L187.004 58.3633L186.579 58.9704L186.229 59.6926L186.236 59.7537L186.11 60.2641L185.847 60.6665L185.702 61.5507L185.55 62.3738L185.607 62.8628C185.657 63.2907 185.7 63.6575 186.199 64.2188C186.472 64.4348 186.547 64.55 187.5 64.7487L188.262 64.9077L190.117 64.8774L190.538 64.7664L191.074 64.5801L191.426 64.4151L192.796 63.9456L193.372 63.5687L193.534 63.364L193.872 63.0768L194.049 62.9943L194.469 62.8833L194.894 62.2762L195.016 62.2619L195.308 62.104L196.107 61.5153L196.628 61.2067L196.797 61.0631L197.168 60.5242L197.283 60.4488L199.51 58.8263L200.262 58.3669L201.921 57.1823L202.306 56.7657L202.529 56.5539L205.832 54.0624L206.178 53.8363L207.2 53.0357L208.581 52.1313L208.973 51.7758L209.387 51.6037L209.678 51.4458L211.617 50.5383L211.422 50.9947C211.437 51.1169 211.39 51.2463 211.397 51.3074L211.155 51.8932C211.076 52.2742 210.914 52.4789 210.874 52.6694L210.719 52.9353C210.726 52.9964 210.734 53.0575 210.687 53.1869C210.539 53.5139 210.29 54.0385 210.196 54.2973L209.713 55.4688C209.667 55.5981 209.613 55.6664 209.627 55.7886L209.432 56.245L209.446 56.3672C209.219 57.0752 209.147 57.5174 209.046 57.715L208.887 58.477ZM250.962 38.2705L250.769 37.6735L250.507 37.0225L250.356 36.7922L249.872 36.3531L249.013 35.8956L248.19 35.7437L247.816 35.7253L246.565 35.6233L244.242 35.894L242.613 36.2697C242.254 36.3736 241.894 36.4774 241.541 36.6424L240.944 36.8359C240.768 36.9184 240.707 36.9255 240.707 36.9255L240.409 37.0223L239.995 37.1944L238.707 37.8401L237.704 38.2668L236.11 38.9482L235.635 39.1274L235.114 39.436L233.826 40.0817L233.466 40.1856L232.491 40.8568L232.268 41.0687L231.862 41.3019L231.808 41.3702L230.948 41.966L230.664 42.185L229.75 42.8491L228.951 43.4379L228.282 44.0735L228.12 44.2782L227.605 44.648C227.612 44.7091 227.465 45.0361 227.411 45.1043L227.187 45.3162L226.763 45.9233L226.122 46.8034L225.495 47.8058C225.502 47.8669 225.401 48.0645 225.408 48.1256L225.307 48.3233C225.059 48.8479 224.911 49.1749 224.886 49.4876L224.881 49.9837L224.924 50.3505L225.193 51.0626L226.08 51.7646L226.741 52.1213L226.673 52.0673L226.939 52.2221L227.41 52.539C227.471 52.5319 227.661 52.5717 227.784 52.5574L228.355 52.6767C228.416 52.6695 228.607 52.7093 228.729 52.6951L228.858 52.7419C229.261 53.0048 229.519 53.0986 229.961 53.1709C230.968 53.3015 231.104 53.4095 231.485 53.489C231.737 53.5216 231.69 53.651 231.881 53.6907L232.52 53.864L233.487 54.185L234.066 54.3654C234.127 54.3583 234.202 54.4734 234.325 54.4592L236.006 55.0686L236.319 55.0941C236.441 55.0798 236.7 55.1736 236.884 55.1522L237.455 55.2715L238.163 55.4987L238.673 55.6251L238.062 55.6964L237.71 55.8613L235.57 56.1107L234.682 56.462L233.107 56.7695C232.992 56.8449 232.639 57.0099 232.585 57.0781C232.402 57.0995 232.409 57.1606 232.226 57.182L231.798 57.2318L231.607 57.1921L231.133 57.3713L230.277 57.4711L229.007 57.7429L228.098 57.9109L227.073 58.1542L225.803 58.4261L225.329 58.6053L224.663 58.7448L223.739 58.7905L223.265 58.9698L222.47 59.0624L220.837 59.9342L220.118 60.1419L219.283 60.4251L218.503 60.6399L217.018 61.1847L216.435 61.5005L215.906 61.748L215.711 62.2043L215.884 62.618L216.505 63.1651L216.926 63.0541L217.156 62.9034L217.4 62.8749L218.242 62.6529L218.54 62.5561L220.026 62.0113L220.691 61.8718L221.417 61.7252L222.191 61.4492C222.55 61.3454 222.896 61.1192 223.255 61.0154L223.744 60.9584L224.579 60.6753L224.884 60.6397L225.963 60.3281L225.902 60.3352L226.506 60.2028L227.484 60.0889L229.088 60.0259L230.127 59.9048L230.839 59.6359L231.763 59.5902L232.55 59.4365L233.284 59.351L235.715 58.9438L236.509 58.8512L239.238 58.3472L240.813 58.0398L241.403 57.7852L241.533 57.832L242.36 57.4878L242.698 57.2006L243.004 57.1649L243.932 56.6231L244.425 56.07L244.796 55.5311L244.807 55.0961L244.653 54.3086L243.935 53.463L242.512 52.9473L241.132 52.7984C240.887 52.8269 240.445 52.7545 240.201 52.783C239.705 52.7789 239.194 52.6525 238.759 52.6413L238.432 52.4935C238.249 52.5149 238.058 52.4751 237.875 52.4965L236.671 52.2651L236.405 52.1102L236.283 52.1245L235.704 51.9441L235.018 51.9002C234.834 51.9216 234.514 51.8349 234.331 51.8563L232.922 51.4629L232.329 51.1603C232.207 51.1745 231.894 51.149 231.765 51.1021L231.309 50.9075L230.662 50.6731C230.41 50.6405 230.083 50.4927 229.831 50.4601L229.177 50.1646L228.85 50.0168L227.895 49.2608L227.683 49.0377L227.532 48.8074C227.511 48.6241 227.659 48.2971 227.814 48.0312L228.436 47.525L228.652 47.252L229.159 46.8211L229.57 46.0917L229.732 45.887L230.07 45.5998L230.294 45.3879L230.625 45.0395L231.431 44.5119L231.647 44.2389L232.431 43.5279L233.751 42.6306L234.043 42.4727L235.147 41.8484L235.859 41.5795L236.327 41.3392L237.126 40.7504L238 40.2768L241.01 38.9966L241.892 38.5842C243.14 38.1289 243.377 38.0393 243.69 38.0648L245.096 37.901C245.34 37.8725 245.531 37.9122 245.775 37.8838L246.156 37.9633L246.49 38.1721L246.688 38.273L246.846 38.5644L246.971 39.1074L246.891 39.4884L246.948 39.9774L247.106 40.2688L247.278 40.6824L248.166 41.3844L248.874 41.6117C249.711 41.8858 250.366 41.128 250.622 40.6645C251.101 39.9891 251.058 39.6224 251.008 39.1945C251.001 39.1334 250.987 39.0111 251.034 38.8817L250.962 38.2705ZM279.278 13.5341L279.667 12.6213L281.648 9.41663L282.646 7.87541L283.723 5.9532L283.925 5.55795C284.443 4.6921 284.76 4.22148 284.837 3.28323C284.862 2.97049 284.827 2.66487 284.784 2.29812C284.713 1.68687 284.448 0.478621 282.97 1.08459L282.3 1.72019L281.469 2.56055L280.601 4.14864L280.655 4.08039L280.352 4.67326C280.042 5.205 279.625 5.87323 279.336 6.58835L278.806 7.8892L278.33 9.12181L277.941 10.0345L277.739 10.4298L276.799 12.46C276.658 12.8481 276.51 13.1751 276.356 13.441L275.361 15.5395C275.307 15.6077 275.213 15.8665 275.22 15.9276C275.073 16.2546 274.918 16.5204 274.207 18.3999L273.732 19.6325L273.605 20.1429L273.122 21.3144L273.176 21.2461L272.78 22.0977L272.297 23.2692L271.903 24.6781L271.481 25.8424C271.489 25.9036 271.395 26.1623 271.409 26.2846L271.153 26.748C271.16 26.8092 271.121 26.9997 271.135 27.1219L271.156 27.3053C271.03 27.8157 270.695 28.6602 270.561 29.1094L270.32 29.6951L270.254 30.1984C270.269 30.3206 270.161 30.4571 270.168 30.5183L269.98 31.0357C269.987 31.0969 269.94 31.2262 269.94 31.2262C269.723 32.5526 269.615 32.6891 269.514 32.8867C269.414 33.0843 269.352 33.0915 269.395 33.4582C269.402 33.5193 269.402 33.5193 269.348 33.5876L269.081 34.4861L268.861 35.2552C268.868 35.3163 268.767 35.5139 268.782 35.6362L268.461 36.6029C268.468 36.6641 268.421 36.7934 268.414 36.7323L268.294 37.3038L268.359 37.8539L268.505 38.5803L269.429 38.5346L270.127 38.1435L270.469 37.3601L270.509 37.1696L270.826 36.699L270.87 36.0124C270.863 35.9512 270.903 35.7607 270.903 35.7607L270.946 35.0741L271.232 33.8018C271.225 33.7406 271.264 33.5501 271.326 33.543L271.492 32.8421L271.611 32.2706L271.799 31.7532L271.918 31.1817L271.943 30.8689L272.03 30.549C272.023 30.4879 272.084 30.4808 272.077 30.4197L272.217 30.0315L272.21 29.9704L272.452 29.3847C272.452 29.3847 272.43 29.2013 272.484 29.1331C272.578 28.8743 272.751 28.2346 272.946 27.7782L273.404 26.9195L273.847 25.9385L274.972 22.8335L275.408 21.7914L275.804 20.9398L275.952 20.6128L276.287 19.7683L276.792 18.7802L277.39 17.5334L277.948 16.477L278.143 16.0206L278.15 16.0818L278.64 14.9714L279.278 13.5341ZM268.221 48.898L267.301 48.4476L266.92 48.3681L266.255 48.5076L265.949 48.5432L265.474 48.7224L264.873 49.412C264.88 49.4731 264.779 49.6708 264.383 50.5224L264.195 51.0399C264.144 51.6654 264.09 51.7336 263.68 52.463C263.694 52.5852 263.661 52.8368 263.676 52.9591L263.463 53.7893L263.476 54.965C263.49 55.0872 263.443 55.2166 263.464 55.3999L263.571 56.3168C263.803 57.7767 264.652 57.6158 265.189 56.3761C265.377 55.8586 265.827 54.9388 266.245 54.2705L266.5 53.807L266.724 53.5952L267.858 52.1619L268.092 51.5151L268.218 51.0047L268.161 50.5157C268.154 50.4546 268.208 50.3863 268.201 50.3252L268.363 50.1205L268.407 49.4338L268.221 48.898Z" fill="#333333"/>
</svg>
