<?xml version="1.0" encoding="UTF-8"?>
<svg width="18px" height="18px" viewBox="0 0 18 18" version="1.1" xmlns="http://www.w3.org/2000/svg" xmlns:xlink="http://www.w3.org/1999/xlink">
    <!-- Generator: Sketch 55.1 (78136) - https://sketchapp.com -->
    <title>icon_star</title>
    <desc>Created with Sketch.</desc>
    <g id="PC" stroke="none" stroke-width="1" fill="none" fill-rule="evenodd">
        <g id="PC-Copy" transform="translate(-873.000000, -31.000000)">
            <g id="header">
                <g id="btn" transform="translate(712.000000, 16.000000)">
                    <g id="btn_l-copy" transform="translate(151.000000, 0.000000)">
                        <g id="icon_star" transform="translate(10.000000, 16.000000)">
                            <path d="M9.39222777,13.4152287 C9.39222777,16.8953312 6.78916346,8.07303682 3.84533691,8.02777778 C0.901510367,7.98251873 8.5,7.87721083 8.5,2.97813585 C8.5,-1.92093913 9.50426363,8.00893635 14.3271226,7.55555556 C19.1499815,7.10217476 9.39222777,9.93512613 9.39222777,13.4152287 Z" id="Path-17" fill="#FFFFFF"></path>
                            <path d="M16.4670053,7.39890206 L13.2667235,6.33253906 C11.9830438,5.90146694 10.9754644,4.89388757 10.5443923,3.61020786 L9.47802932,0.40992608 C9.37426018,0.180761083 9.14597701,0.0335345724 8.89441265,0.0335345724 C8.64284828,0.0335345724 8.41456511,0.180761083 8.31079597,0.40992608 L7.24443297,3.61020786 C6.81336085,4.89388757 5.80578148,5.90146694 4.52210178,6.33253906 L1.32181999,7.39890206 C1.07077716,7.48279541 0.901510367,7.7178291 0.901510367,7.98251873 C0.901510367,8.24720836 1.07077716,8.48224205 1.32181999,8.5661354 L4.52210178,9.6324984 C5.80578148,10.0635705 6.81336085,11.0711499 7.24443297,12.3548296 L8.31079597,15.5551114 C8.39468933,15.8061542 8.62972302,15.975421 8.89441265,15.975421 C9.15910227,15.975421 9.39413596,15.8061542 9.47802932,15.5551114 L10.5443923,12.3548296 C10.9754644,11.0711499 11.9830438,10.0635705 13.2667235,9.6324984 L16.4670053,8.5661354 C16.7180481,8.48224205 16.8873149,8.24720836 16.8873149,7.98251873 C16.8873149,7.7178291 16.7180481,7.48279541 16.4670053,7.39890206 L16.4670053,7.39890206 Z M12.8776539,8.46526506 C11.2274754,9.02025736 9.93215127,10.3155815 9.37715897,11.96576 L8.89441265,13.4152287 L8.41166632,11.9657969 C7.85667402,10.3156184 6.56134988,9.02029425 4.91117136,8.46530195 L3.46170271,7.98251873 L4.91113447,7.4997724 C6.56131299,6.9447801 7.85663713,5.64945596 8.41162943,3.99927745 L8.89441265,2.54980879 L9.37715897,3.99924056 C9.93215127,5.64941907 11.2274754,6.94474321 12.8776539,7.49973551 L14.3271226,7.98251873 L12.8776539,8.46526506 Z" id="Shape" stroke="#262626" stroke-width="0.3" fill="#262626" fill-rule="nonzero"></path>
                        </g>
                    </g>
                </g>
            </g>
        </g>
    </g>
</svg>