<?xml version="1.0" encoding="UTF-8"?>
<svg width="20px" height="28px" viewBox="0 0 20 28" version="1.1" xmlns="http://www.w3.org/2000/svg" xmlns:xlink="http://www.w3.org/1999/xlink">
    <!-- Generator: Sketch 55.1 (78136) - https://sketchapp.com -->
    <title>Group 11</title>
    <desc>Created with Sketch.</desc>
    <g id="Page-1" stroke="none" stroke-width="1" fill="none" fill-rule="evenodd">
        <g id="top" transform="translate(-14.000000, -1699.000000)">
            <g id="sec_03" transform="translate(-203.000000, 1700.000000)">
                <g id="ttl" transform="translate(184.000000, 0.000000)">
                    <g transform="translate(34.000000, 0.000000)" id="noun_Medal_1348198">
                        <g>
                            <g id="Group-11">
                                <path d="M4.24523926,7.5 L4.67376477,8.70884623 L6.01525879,10.0791016 L6.01525879,11.2064209 L5.67211914,12.5771484 C6.03849284,12.8616536 6.22167969,13.0039063 6.22167969,13.0039063 C6.22167969,13.0039063 6.9934082,13.0863134 7.32348633,12.8317309 C7.65356445,12.5771484 7.87268066,12.5771484 8.10375977,12.5771484 C8.33483887,12.5771484 8.80519084,12.3149414 8.99872579,12.3149414 C9.19226074,12.3149414 9.42651367,12.3149414 9.42651367,12.3149414 C9.42651367,12.3149414 10.2491455,12.8317309 10.4260254,12.8317309 C10.6029053,12.8317309 11.1357422,13.0039063 11.3901367,13.0039063 C11.5597331,13.0039062 11.8559977,13.0039062 12.2789307,13.0039063 C12.2789307,12.5347493 12.2789307,12.2473145 12.2789307,12.1416016 C12.2789307,11.9830322 12.2789307,11.2064209 12.2789307,11.2064209 C12.2789307,11.2064209 12.2130941,10.8306478 12.0814209,10.0791016 C12.1955973,9.34064583 12.3242594,8.97141797 12.4674072,8.97141797 C12.6821289,8.97141797 13.082308,8.50305176 13.3424235,8.31982422 C13.6025391,8.13659668 13.8557129,7.5 13.8557129,7.5 C13.8557129,7.5 13.6749593,7.04150391 13.3424235,7.04150391 C13.0098877,7.04150391 12.0411377,7.2109375 11.8251953,7.04150391 C11.6092529,6.87207031 10.9382324,6.63818359 10.6821289,6.63818359 C10.4260254,6.63818359 10.1678467,6.55627441 9.94250488,6.08911133 C9.71716309,5.62194824 9.42651367,5.45214844 9.42651367,5.19018555 C9.42651367,4.92822266 9.80255127,4.81828741 9.42651367,4.58608462 C9.17582194,4.43128276 8.93774414,4.30928548 8.71228027,4.22009277 L8.33349609,4.9810791 C8.18033854,5.30236816 8.10375977,5.4630127 8.10375977,5.4630127 C8.10375977,5.4630127 7.76257324,6.08911133 7.76257324,6.08911133 C7.76257324,6.08911133 7.6706543,6.30700684 7.49707031,6.30700684 C7.32348633,6.30700684 7.43212891,6.63818359 7.01123047,6.63818359 C6.59033203,6.63818359 6.42810059,6.63818359 6.22167969,6.63818359 C6.01525879,6.63818359 5.67211914,6.63818359 5.67211914,6.63818359 C5.67211914,6.63818359 5.52380371,7.04150391 5.25622559,7.04150391 C5.07784017,7.04150391 4.74084473,7.19433594 4.24523926,7.5 Z" id="Path-3" fill="#FFD94A"></path>
                                <polygon id="Path-8" fill="#FFD94A" points="6.5 17.6873779 6.5 24.7830811 9.05047607 23.5819092 11.6900635 24.9916992 11.6900635 17.4720459"></polygon>
                                <path d="M13.3286425,7.71565085 C13.3440635,7.76292781 13.3683791,7.88429472 13.261064,7.9885034 L11.8251795,9.38403924 C11.5140238,9.68638085 11.37213,10.1216856 11.4456032,10.5485424 L11.7845482,12.5190101 C11.8099164,12.6662455 11.7187592,12.7500952 11.678391,12.7793743 C11.6379703,12.8086011 11.5296552,12.8690484 11.3971299,12.7996284 L9.62219507,11.8692537 C9.42993328,11.7685081 9.21904003,11.7180829 9.00809415,11.7180829 C8.79720089,11.7180829 8.58630764,11.7685081 8.39399322,11.8692537 L6.61911105,12.7996284 C6.48648041,12.8690484 6.37821803,12.8086011 6.33784988,12.7793743 C6.29742912,12.7500952 6.20632451,12.6662455 6.23164012,12.5190101 L6.57063771,10.5485424 C6.64405825,10.1216856 6.50216451,9.68638085 6.19111408,9.38403924 L4.75512425,7.9885034 C4.64780922,7.88429472 4.67212482,7.76292781 4.68754577,7.71565085 C4.70296671,7.66832142 4.7548611,7.55597965 4.9031232,7.53451875 L6.88747757,7.24697414 C7.31742191,7.18474275 7.68894559,6.91572063 7.88120739,6.52732553 L8.76867478,4.73452688 C8.8349901,4.60056678 8.95819976,4.58608462 9.00809415,4.58608462 C9.05798853,4.58608462 9.1811982,4.60056678 9.24751351,4.73452688 L10.1349809,6.52732553 C10.3272953,6.91572063 10.6987664,7.18474275 11.1286055,7.24697414 L13.1131177,7.53451875 C13.2613798,7.55597965 13.3132216,7.66832142 13.3286425,7.71565085 L13.3286425,7.71565085 Z M11.0789742,6.06284656 L10.1915068,4.27004791 C9.96750842,3.81768986 9.51403792,3.53665175 9.00809415,3.53665175 C8.50215037,3.53665175 8.0487325,3.81768986 7.82473411,4.27004791 L6.93721407,6.06284656 C6.89837222,6.14144907 6.82321488,6.19586218 6.73616285,6.20840288 L4.75175585,6.49594749 C4.25102255,6.56851577 3.84286754,6.9115754 3.6864476,7.39132361 C3.53008029,7.87112432 3.65807937,8.38797003 4.0203926,8.74000227 L5.45638244,10.1355381 C5.51927673,10.1967201 5.54801337,10.2847675 5.53311874,10.3711358 L5.19412112,12.3416034 C5.10859543,12.8387723 5.3097519,13.3317958 5.71906479,13.6283655 C6.12853556,13.9248828 6.66090023,13.9632396 7.10889707,13.7285339 L8.88383186,12.7981592 C8.96172604,12.7573887 9.05467277,12.7574412 9.13240906,12.7981592 L10.9072912,13.7285339 C11.1020793,13.8305912 11.3129199,13.8810407 11.5226553,13.8810407 C11.795127,13.8810407 12.0658093,13.7959075 12.2971235,13.6283655 C12.706489,13.3317958 12.9075929,12.8387723 12.8220672,12.3416034 L12.4831222,10.3711358 C12.4681749,10.2847675 12.4969116,10.1967201 12.5599111,10.1355381 L13.9957957,8.74000227 C14.3581615,8.38797003 14.486108,7.87112432 14.3297407,7.39132361 C14.1733734,6.9115754 13.7651657,6.56851577 13.2644851,6.49594749 L11.2799202,6.20840288 C11.1929734,6.19586218 11.1178161,6.14144907 11.0789742,6.06284656 L11.0789742,6.06284656 Z M16.9448274,12.2528109 L14.0235323,15.1652495 L12.2901235,16.8934031 L11.7931271,16.8934031 L6.20432451,16.8934031 L5.70732804,16.8934031 L3.97391924,15.1652495 L1.05262414,12.2528109 L1.05262414,5.6900775 L5.70732804,1.04943287 L12.2901235,1.04943287 L16.9448274,5.6900775 L16.9448274,12.2528109 Z M13.8693755,25.4422931 L12.3194391,24.7044893 L12.3194391,17.9428359 L12.5080694,17.9428359 C12.6477,17.9428359 12.7814885,17.8875833 12.8802246,17.789199 L13.8693755,16.8030469 L13.8693755,25.4422931 Z M8.77193791,23.2316628 L6.73063657,24.2034376 L6.73063657,17.9428359 L11.266815,17.9428359 L11.266815,24.2034376 L9.22546104,23.2316628 C9.15377732,23.1975562 9.07619892,23.1805029 8.99867315,23.1805029 C8.92120003,23.1805029 8.84362163,23.1975562 8.77193791,23.2316628 L8.77193791,23.2316628 Z M4.12802341,16.8030994 L5.11712167,17.789199 C5.21585782,17.8875833 5.34969899,17.9428359 5.48932957,17.9428359 L5.67801245,17.9428359 L5.67801245,24.7044893 L4.12802341,25.4422931 L4.12802341,16.8030994 Z M17.8432948,5.10166048 L12.8802246,0.153689444 C12.7814885,0.0553051123 12.6477,2.0250468e-13 12.5080694,2.0250468e-13 L5.48932957,2.0250468e-13 C5.34969899,2.0250468e-13 5.21585782,0.0553051123 5.11712167,0.153689444 L0.154156793,5.10166048 C0.055473297,5.2000973 1.74438242e-12,5.33353269 1.74438242e-12,5.47268748 L1.74438242e-12,12.4702009 C1.74438242e-12,12.6093557 0.055473297,12.7427911 0.154156793,12.8412279 L3.07539929,15.7536665 L3.07539929,26.274336 C3.07539929,26.4544711 3.16813547,26.6220656 3.32102913,26.7181411 C3.40639693,26.7718196 3.50386995,26.7990524 3.60176398,26.7990524 C3.67902661,26.7990524 3.75655235,26.7820516 3.82849921,26.7478401 L6.43053345,25.5091945 C6.43069134,25.509142 6.43090186,25.5090895 6.43105974,25.5089846 L8.99867315,24.2866577 L11.5663918,25.5089846 C11.5665497,25.5090371 11.566655,25.5090895 11.5668129,25.5091945 L14.1689524,26.7478401 C14.3320038,26.8253932 14.5236341,26.8142167 14.6764225,26.7181411 C14.8293161,26.6220656 14.9219997,26.4544711 14.9219997,26.274336 L14.9219997,15.7536665 L17.8432948,12.8412279 C17.9419783,12.7427911 17.9974516,12.6093557 17.9974516,12.4702009 L17.9974516,5.47268748 C17.9974516,5.33353269 17.9419783,5.2000973 17.8432948,5.10166048 L17.8432948,5.10166048 Z" id="Shape" stroke="#000000" stroke-width="0.4" fill="#000000" fill-rule="nonzero"></path>
                            </g>
                        </g>
                    </g>
                </g>
            </g>
        </g>
    </g>
</svg>