<?xml version="1.0" encoding="UTF-8"?>
<svg width="21px" height="26px" viewBox="0 0 21 26" version="1.1" xmlns="http://www.w3.org/2000/svg" xmlns:xlink="http://www.w3.org/1999/xlink">
    <!-- Generator: Sketch 55.1 (78136) - https://sketchapp.com -->
    <title>Group 12</title>
    <desc>Created with Sketch.</desc>
    <g id="Page-1" stroke="none" stroke-width="1" fill="none" fill-rule="evenodd">
        <g id="top" transform="translate(-14.000000, -2588.000000)">
            <g id="sec_04" transform="translate(-203.000000, 2589.000000)">
                <g id="ttl" transform="translate(183.000000, 0.000000)">
                    <g transform="translate(35.000000, 0.000000)" id="noun_Heart_972113">
                        <g>
                            <g id="Group-12" transform="translate(0.001477, 0.000000)">
                                <path d="M9.498523,23.5 L0.760973945,14 C0.328193997,11.4094334 0.592923815,9.82015926 1.5551634,9.23217773 C2.99852277,8.35020544 5.20219902,7.16271466 6.43529035,8.35020544 C7.25735124,9.14186596 8.31016699,9.95953837 9.59373762,10.8032227 C11.4612506,8.86832682 12.6554238,7.90087891 13.1762571,7.90087891 C13.9575071,7.90087891 17.5097389,7.78222656 17.8322558,9.76269531 C18.1547728,11.7431641 18.6659889,13.6254499 17.8322558,14.609375 C17.2764338,15.2653251 14.4985228,18.2288667 9.498523,23.5 Z" id="Path-9" fill="#FFD94A"></path>
                                <path d="M4.97835154,7.21118367 C3.69768394,7.21118367 2.42099079,7.72137818 1.45223108,8.73795753 C-0.485249798,10.7710833 -0.482903898,14.0282513 1.45223108,16.0628505 L9.07398301,24.0784035 C9.18376353,24.1935916 9.33593964,24.2587781 9.49506239,24.2587781 C9.65418514,24.2587781 9.80636126,24.1935916 9.91614178,24.0784035 C12.459873,21.4090794 15.0001921,18.7382623 17.5439428,16.0688994 C19.4814041,14.0357349 19.4814234,10.7771749 17.5439428,8.74401616 C15.6064425,6.71086521 12.4231529,6.71081674 10.4856527,8.74401616 L9.49808686,9.77398265 L8.51054045,8.73795753 C7.54178062,7.72137818 6.25901915,7.21118367 4.97835154,7.21118367 L4.97835154,7.21118367 Z M4.97835154,8.35020544 C5.9455022,8.35020544 6.91472733,8.74683706 7.66838168,9.53769622 L9.08005133,11.0220597 C9.18983127,11.1372416 9.34200315,11.2024241 9.50112102,11.2024241 C9.66023889,11.2024241 9.81241077,11.1372416 9.92219071,11.0220597 L11.327792,9.54375485 C12.8351007,7.96200356 15.1944753,7.96203264 16.7018034,9.54375485 C18.2090733,11.1254732 18.2090733,13.6874366 16.7018034,15.2691626 C14.2989812,17.790635 11.900909,20.3149399 9.49808686,22.8363948 L2.29438973,15.2631137 C0.78805052,13.6793442 0.787100527,11.1193777 2.29438973,9.53769622 C3.04802469,8.74683706 4.01120089,8.35020544 4.97835154,8.35020544 L4.97835154,8.35020544 Z" id="Shape" stroke="#000000" stroke-width="0.5" fill="#000000" fill-rule="nonzero"></path>
                                <g id="Group-4" transform="translate(2.998523, 0.000000)" fill="#000000" fill-rule="nonzero">
                                    <path d="M-0.530330086,2.03033009 L0.71014843,3.2708086 C1.00304165,3.56370182 1.47791538,3.56370182 1.7708086,3.2708086 C2.06370182,2.97791538 2.06370182,2.50304165 1.7708086,2.21014843 L0.530330086,0.969669914 C0.237436867,0.676776695 -0.237436867,0.676776695 -0.530330086,0.969669914 C-0.823223305,1.26256313 -0.823223305,1.73743687 -0.530330086,2.03033009 Z" id="Path-13"></path>
                                    <path d="M11.5648848,2.03033009 L12.8053633,3.2708086 C13.0982565,3.56370182 13.5731302,3.56370182 13.8660234,3.2708086 C14.1589167,2.97791538 14.1589167,2.50304165 13.8660234,2.21014843 L12.6255449,0.969669914 C12.3326517,0.676776695 11.857778,0.676776695 11.5648848,0.969669914 C11.2719915,1.26256313 11.2719915,1.73743687 11.5648848,2.03033009 Z" id="Path-13" transform="translate(12.715454, 2.120239) scale(-1, 1) translate(-12.715454, -2.120239) "></path>
                                    <path d="M5.84521484,0 L5.84521484,2 C5.84521484,2.41421356 6.18100128,2.75 6.59521484,2.75 C7.00942841,2.75 7.34521484,2.41421356 7.34521484,2 L7.34521484,0 C7.34521484,-0.414213562 7.00942841,-0.75 6.59521484,-0.75 C6.18100128,-0.75 5.84521484,-0.414213562 5.84521484,0 Z" id="Path-14"></path>
                                </g>
                            </g>
                        </g>
                    </g>
                </g>
            </g>
        </g>
    </g>
</svg>