<?xml version="1.0" encoding="UTF-8"?>
<svg width="18px" height="20px" viewBox="0 0 18 20" version="1.1" xmlns="http://www.w3.org/2000/svg" xmlns:xlink="http://www.w3.org/1999/xlink">
    <!-- Generator: Sketch 55.1 (78136) - https://sketchapp.com -->
    <title>Group 13</title>
    <desc>Created with Sketch.</desc>
    <g id="Page-1" stroke="none" stroke-width="1" fill="none" fill-rule="evenodd">
        <g id="top" transform="translate(-15.000000, -3465.000000)">
            <g id="sec_05" transform="translate(-19.000000, 3462.000000)">
                <g id="ttl">
                    <g transform="translate(34.000000, 0.000000)" id="noun_User_1779990">
                        <g transform="translate(0.000000, 3.000000)">
                            <g id="Group-13" transform="translate(0.000000, 0.214286)">
                                <path d="M0.5,18.6892787 C2.10758464,13.896432 3.71907552,11.3809595 5.33447266,11.1428614 C7.75756836,10.7857143 10.8999023,9.84967913 12.4125977,11.694894 C13.925293,13.5401088 17.0693359,15.1065151 17.0693359,17.4461147 C17.0693359,19.0058477 11.546224,19.4202358 0.5,18.6892787 Z" id="Path-10" fill="#FFD94A"></path>
                                <path d="M9,-8.8817842e-15 C6.52485857,-8.8817842e-15 4.5,2.02487143 4.5,4.5 C4.5,6.97512857 6.52485857,9 9,9 C11.4751414,9 13.5,6.97512857 13.5,4.5 C13.5,2.02487143 11.4751414,-8.8817842e-15 9,-8.8817842e-15 Z M9,1.71428571 C10.5486771,1.71428571 11.7857143,2.95133571 11.7857143,4.5 C11.7857143,6.04866429 10.5486771,7.28571429 9,7.28571429 C7.45132286,7.28571429 6.21428571,6.04866429 6.21428571,4.5 C6.21428571,2.95133571 7.45132286,1.71428571 9,1.71428571 Z M9,9.42857571 C4.01518929,9.42857571 0,13.6831971 0,18.8571471 C0,19.3305145 0.383775535,19.71429 0.857142857,19.71429 L17.1428571,19.71429 C17.6162245,19.71429 18,19.3305145 18,18.8571471 C18,13.6831971 13.9848129,9.42857571 9,9.42857571 L9,9.42857571 Z M9,11.1428614 C12.7354329,11.1428614 15.7990564,14.12214 16.2053571,18.0000043 L1.79464286,18.0000043 C2.20094357,14.12214 5.26456929,11.1428614 9,11.1428614 L9,11.1428614 Z" id="Shape" fill="#000000" fill-rule="nonzero"></path>
                            </g>
                        </g>
                    </g>
                </g>
            </g>
        </g>
    </g>
</svg>