<?xml version="1.0" encoding="UTF-8"?>
<svg width="17px" height="23px" viewBox="0 0 17 23" version="1.1" xmlns="http://www.w3.org/2000/svg" xmlns:xlink="http://www.w3.org/1999/xlink">
    <!-- Generator: Sketch 54.1 (76490) - https://sketchapp.com -->
    <title>noun_Pen_1480353</title>
    <desc>Created with Sketch.</desc>
    <g id="PC" stroke="none" stroke-width="1" fill="none" fill-rule="evenodd">
        <g id="menu_01" transform="translate(-656.000000, -20.000000)">
            <g id="header">
                <g id="list" transform="translate(440.000000, 16.000000)">
                    <g id="li" transform="translate(212.000000, 4.000000)">
                        <g id="noun_Pen_1480353" transform="translate(4.000000, 0.000000)">
                            <path d="M5.5,18.0383301 L13.291748,18.0383301 C14.8355306,18.132959 15.6074219,18.5900716 15.6074219,19.409668 C15.6074219,20.6390625 15.6692383,21.5463867 14.13125,21.5463867 C13.1059245,21.5463867 9.00644531,21.4346517 1.8328125,21.2111816 C1.0077474,19.0959473 1.16276042,18.0383301 2.29785156,18.0383301 C3.43294271,18.0383301 4.50032552,18.0383301 5.5,18.0383301 Z" id="Path-11" fill="#FFD94A"></path>
                            <polygon id="Path-2" fill="#FFFFFF" points="4.5 18.0383301 1.8328125 9.63745117 8.5 0.917480469 15.1671875 9.15649414 12.4775391 18.0383301"></polygon>
                            <circle id="Oval" fill="#FFD94A" cx="8.5" cy="11.5" r="1.5"></circle>
                            <path d="M14.2640625,17.2390625 L13.4140625,17.2390625 L15.7515625,9.6953125 C15.8257178,9.44883031 15.7762507,9.18170793 15.61875,8.978125 L9.1375,0.3984375 C8.98700666,0.197779719 8.75082223,0.0796875 8.5,0.0796875 C8.24917777,0.0796875 8.01299334,0.197779719 7.8625,0.3984375 L1.3546875,8.978125 C1.19718679,9.18170793 1.14771969,9.44883031 1.221875,9.6953125 L3.559375,17.2390625 L2.7359375,17.2390625 C1.35695154,17.2390625 0.239062574,18.3569515 0.239062574,19.7359375 C0.239062574,21.1149235 1.35695154,22.2328125 2.7359375,22.2328125 L14.2640625,22.2328125 C15.6430485,22.2328125 16.7609374,21.1149235 16.7609374,19.7359375 C16.7609374,18.3569515 15.6430485,17.2390625 14.2640625,17.2390625 Z M9.190625,11.05 C9.190625,11.4314217 8.88142166,11.740625 8.5,11.740625 C8.11857834,11.740625 7.809375,11.4314217 7.809375,11.05 C7.809375,10.6685783 8.11857834,10.359375 8.5,10.359375 C8.88142166,10.359375 9.190625,10.6685783 9.190625,11.05 Z M2.86875,9.615625 L7.703125,3.240625 L7.703125,8.925 C6.6671048,9.31062614 6.05587112,10.3827614 6.25178541,11.4707242 C6.44769969,12.5586869 7.39453839,13.3502532 8.5,13.3502532 C9.60546161,13.3502532 10.5523003,12.5586869 10.7482146,11.4707242 C10.9441289,10.3827614 10.3328952,9.31062614 9.296875,8.925 L9.296875,3.240625 L14.13125,9.615625 L11.740625,17.2390625 L5.259375,17.2390625 L2.86875,9.615625 Z M14.2640625,20.6390625 L2.7359375,20.6390625 C2.23715534,20.6390625 1.8328125,20.2347197 1.8328125,19.7359375 C1.8328125,19.2371553 2.23715534,18.8328125 2.7359375,18.8328125 L14.2640625,18.8328125 C14.7628447,18.8328125 15.1671875,19.2371553 15.1671875,19.7359375 C15.1671875,20.2347197 14.7628447,20.6390625 14.2640625,20.6390625 Z" id="Shape" fill="#000000" fill-rule="nonzero"></path>
                        </g>
                    </g>
                </g>
            </g>
        </g>
    </g>
</svg>