<?xml version="1.0" encoding="UTF-8"?>
<svg width="26px" height="37px" viewBox="0 0 26 37" version="1.1" xmlns="http://www.w3.org/2000/svg" xmlns:xlink="http://www.w3.org/1999/xlink">
    <!-- Generator: Sketch 55.1 (78136) - https://sketchapp.com -->
    <title>noun_Medal_1348198</title>
    <desc>Created with Sketch.</desc>
    <g id="SP" stroke="none" stroke-width="1" fill="none" fill-rule="evenodd">
        <g id="feature_top" transform="translate(-147.000000, -105.000000)">
            <g id="ttl" transform="translate(0.000000, 62.000000)">
                <g transform="translate(148.000000, 39.000000)" id="noun_Medal_1348198">
                    <g transform="translate(0.000000, 5.000000)">
                        <polygon id="Path-18" fill="#FFFFFF" points="7.57068327 0.755533854 0.813987468 7.51222966 0.813987468 17.1089746 7.57068327 23.8656704 16.4259188 23.8656704 23.1826146 17.1089746 23.1826146 7.51222966 16.4259188 0.755533854"></polygon>
                        <path d="M5.66031901,10 L6.23168636,11.611795 L8.02034505,13.4388021 L8.02034505,14.9418945 L7.56282552,16.7695313 C8.05132378,17.1488715 8.29557292,17.3385417 8.29557292,17.3385417 C8.29557292,17.3385417 9.32454427,17.4484179 9.76464844,17.1089746 C10.2047526,16.7695313 10.4969076,16.7695312 10.805013,16.7695313 C11.1131185,16.7695313 11.7402544,16.4199219 11.9983011,16.4199219 C12.2563477,16.4199219 12.5686849,16.4199219 12.5686849,16.4199219 C12.5686849,16.4199219 13.6655273,17.1089746 13.9013672,17.1089746 C14.137207,17.1089746 14.8476563,17.3385417 15.186849,17.3385417 C15.4129774,17.3385417 15.807997,17.3385417 16.3719076,17.3385417 C16.3719076,16.7129991 16.3719076,16.3297526 16.3719076,16.1888021 C16.3719076,15.9773763 16.3719076,14.9418945 16.3719076,14.9418945 C16.3719076,14.9418945 16.2841254,14.4408637 16.1085612,13.4388021 C16.2607964,12.4541944 16.4323459,11.9618906 16.6232096,11.9618906 C16.9095052,11.9618906 17.4430773,11.3374023 17.789898,11.093099 C18.1367187,10.8487956 18.4742839,10 18.4742839,10 C18.4742839,10 18.2332791,9.38867187 17.789898,9.38867187 C17.3465169,9.38867187 16.0548503,9.61458333 15.7669271,9.38867187 C15.4790039,9.16276042 14.5843099,8.85091146 14.2428385,8.85091146 C13.9013672,8.85091146 13.5571289,8.74169922 13.2566732,8.1188151 C12.9562174,7.49593099 12.5686849,7.26953125 12.5686849,6.9202474 C12.5686849,6.57096354 13.0700684,6.42438321 12.5686849,6.1147795 C12.2344293,5.90837702 11.9169922,5.74571398 11.6163737,5.62679036 L11.1113281,6.6414388 C10.9071181,7.06982422 10.805013,7.28401693 10.805013,7.28401693 C10.805013,7.28401693 10.3500977,8.1188151 10.3500977,8.1188151 C10.3500977,8.1188151 10.2275391,8.40934245 9.99609375,8.40934245 C9.76464844,8.40934245 9.90950521,8.85091146 9.34830729,8.85091146 C8.78710937,8.85091146 8.57080078,8.85091146 8.29557292,8.85091146 C8.02034505,8.85091146 7.56282552,8.85091146 7.56282552,8.85091146 C7.56282552,8.85091146 7.36507161,9.38867187 7.00830078,9.38867187 C6.77045356,9.38867188 6.3211263,9.59244792 5.66031901,10 Z" id="Path-3" fill="#FFD94A"></path>
                        <polygon id="Path-2" fill="#FFFFFF" points="4.82784034 21.4248047 4.82784034 35.1621094 12.126709 31.5849609 19.1937561 35.1621094 19.1937561 21.4248047"></polygon>
                        <polygon id="Path-8" fill="#FFD94A" points="8.66666667 23.5831706 8.66666667 33.0441081 12.0673014 31.4425456 15.5867513 33.3222656 15.5867513 23.2960612"></polygon>
                        <path d="M17.7715234,10.2875345 C17.7920846,10.3505704 17.8245054,10.512393 17.6814187,10.6513379 L15.766906,12.5120523 C15.3520317,12.9151745 15.16284,13.4955808 15.2608043,14.0647232 L15.7127309,16.6920134 C15.7465552,16.8883273 15.6250122,17.0001269 15.5711881,17.0391658 C15.5172937,17.0781347 15.3728737,17.1587312 15.1961732,17.0661712 L12.8295934,15.8256716 C12.5732444,15.6913442 12.2920534,15.6241105 12.0107922,15.6241105 C11.7296012,15.6241105 11.4484102,15.6913442 11.191991,15.8256716 L8.8254814,17.0661712 C8.64864055,17.1587312 8.5042907,17.0781347 8.4504665,17.0391658 C8.39657216,17.0001269 8.27509935,16.8883273 8.3088535,16.6920134 L8.76085029,14.0647232 C8.85874434,13.4955808 8.66955268,12.9151745 8.25481877,12.5120523 L6.34016566,10.6513379 C6.19707896,10.512393 6.22949976,10.3505704 6.25006102,10.2875345 C6.27062229,10.2244286 6.3398148,10.0746395 6.5374976,10.046025 L9.18330343,9.66263219 C9.75656255,9.57965701 10.2519275,9.22096085 10.5082765,8.70310071 L11.6915664,6.31270251 C11.7799868,6.13408904 11.9442663,6.1147795 12.0107922,6.1147795 C12.077318,6.1147795 12.2415976,6.13408904 12.330018,6.31270251 L13.5133079,8.70310071 C13.7697271,9.22096085 14.2650218,9.57965701 14.8381406,9.66263219 L17.484157,10.046025 C17.6818398,10.0746395 17.7509621,10.2244286 17.7715234,10.2875345 L17.7715234,10.2875345 Z M14.7719656,8.08379541 L13.5886757,5.69339721 C13.2900112,5.09025315 12.6853839,4.71553567 12.0107922,4.71553567 C11.3362005,4.71553567 10.7316433,5.09025315 10.4329788,5.69339721 L9.24961876,8.08379541 C9.19782963,8.18859877 9.09761984,8.26114957 8.98155047,8.2778705 L6.33567447,8.66126331 C5.66803007,8.75802103 5.12382339,9.21543386 4.91526347,9.85509815 C4.70677372,10.4948324 4.87743917,11.18396 5.36052347,11.6533364 L7.27517659,13.5140508 C7.35903565,13.5956267 7.39735116,13.7130233 7.37749166,13.8281811 L6.92549483,16.4554712 C6.81146057,17.118363 7.0796692,17.7757277 7.62541972,18.1711541 C8.17138075,18.5665104 8.8812003,18.6176527 9.47852942,18.3047119 L11.8451092,17.0642123 C11.9489681,17.0098516 12.072897,17.0099216 12.1765454,17.0642123 L14.543055,18.3047119 C14.8027724,18.4407883 15.0838933,18.5080543 15.3635404,18.5080543 C15.7268361,18.5080543 16.0877458,18.3945433 16.3961647,18.1711541 C16.9419854,17.7757277 17.2101238,17.118363 17.0960896,16.4554712 L16.6441629,13.8281811 C16.6242332,13.7130233 16.6625487,13.5956267 16.7465481,13.5140508 L18.6610609,11.6533364 C19.1442154,11.18396 19.3148107,10.4948324 19.1063209,9.85509815 C18.8978312,9.21543386 18.3535543,8.75802103 17.6859801,8.66126331 L15.0398936,8.2778705 C14.9239645,8.26114957 14.8237548,8.18859877 14.7719656,8.08379541 L14.7719656,8.08379541 Z M22.5931032,16.3370812 L18.6980431,20.2203326 L16.3868314,22.5245374 L15.7241694,22.5245374 L8.27243268,22.5245374 L7.60977072,22.5245374 L5.29855899,20.2203326 L1.40349886,16.3370812 L1.40349886,7.58677 L7.60977072,1.39924383 L16.3868314,1.39924383 L22.5931032,7.58677 L22.5931032,16.3370812 Z M18.4925007,33.9230575 L16.4259188,32.9393191 L16.4259188,23.9237812 L16.6774258,23.9237812 C16.8635999,23.9237812 17.0419847,23.8501111 17.1736329,23.718932 L18.4925007,22.4040625 L18.4925007,33.9230575 Z M11.6959172,30.9755504 L8.97418209,32.2712501 L8.97418209,23.9237812 L15.02242,23.9237812 L15.02242,32.2712501 L12.3006147,30.9755504 C12.2050364,30.9300749 12.1015986,30.9073372 11.9982309,30.9073372 C11.8949334,30.9073372 11.7914955,30.9300749 11.6959172,30.9755504 L11.6959172,30.9755504 Z M5.50403121,22.4041325 L6.8228289,23.718932 C6.9544771,23.8501111 7.13293199,23.9237812 7.31910609,23.9237812 L7.57068327,23.9237812 L7.57068327,32.9393191 L5.50403121,33.9230575 L5.50403121,22.4041325 Z M23.7910597,6.80221397 L17.1736329,0.204919259 C17.0419847,0.0737401498 16.8635999,0 16.6774258,0 L7.31910609,0 C7.13293199,0 6.9544771,0.0737401498 6.8228289,0.204919259 L0.20554239,6.80221397 C0.073964396,6.93346306 0,7.11137692 0,7.29691663 L0,16.6269346 C0,16.8124743 0.073964396,16.9903881 0.20554239,17.1216372 L4.10053239,21.0048887 L4.10053239,35.032448 C4.10053239,35.2726282 4.22418063,35.4960874 4.42803884,35.6241882 C4.54186258,35.6957595 4.6718266,35.7320699 4.80235197,35.7320699 C4.90536881,35.7320699 5.00873647,35.7094021 5.10466562,35.6637868 L8.5740446,34.0122593 C8.57425512,34.0121893 8.57453581,34.0121194 8.57474633,34.0119795 L11.9982309,32.3822102 L15.4218558,34.0119795 C15.4220663,34.0120494 15.4222066,34.0121194 15.4224172,34.0122593 L18.8919365,35.6637868 C19.1093384,35.7671909 19.3648454,35.752289 19.5685633,35.6241882 C19.7724215,35.4960874 19.8959995,35.2726282 19.8959995,35.032448 L19.8959995,21.0048887 L23.7910597,17.1216372 C23.9226377,16.9903881 23.9966021,16.8124743 23.9966021,16.6269346 L23.9966021,7.29691663 C23.9966021,7.11137692 23.9226377,6.93346306 23.7910597,6.80221397 L23.7910597,6.80221397 Z" id="Shape" stroke="#000000" stroke-width="0.4" fill="#000000" fill-rule="nonzero"></path>
                    </g>
                </g>
            </g>
        </g>
    </g>
</svg>