<?xml version="1.0" encoding="UTF-8"?>
<svg width="18px" height="20px" viewBox="0 0 18 20" version="1.1" xmlns="http://www.w3.org/2000/svg" xmlns:xlink="http://www.w3.org/1999/xlink">
    <!-- Generator: Sketch 54.1 (76490) - https://sketchapp.com -->
    <title>noun_User_1779990</title>
    <desc>Created with Sketch.</desc>
    <g id="PC" stroke="none" stroke-width="1" fill="none" fill-rule="evenodd">
        <g id="menu_01" transform="translate(-584.000000, -21.000000)">
            <g id="header">
                <g id="list" transform="translate(440.000000, 16.000000)">
                    <g id="li" transform="translate(141.000000, 5.000000)">
                        <g id="noun_User_1779990" transform="translate(3.000000, 0.000000)">
                            <path d="M0.5,18.9035645 C2.10758464,14.1107177 3.71907552,11.5952452 5.33447266,11.3571471 C7.75756836,11 10.8999023,10.0639648 12.4125977,11.9091797 C13.925293,13.7543945 17.0693359,15.3208008 17.0693359,17.6604004 C17.0693359,19.2201335 11.546224,19.6345215 0.5,18.9035645 Z" id="Path-10" fill="#FFD94A"></path>
                            <circle id="Oval" fill="#FFFFFF" cx="9" cy="5" r="4"></circle>
                            <path d="M9,0.214285714 C6.52485857,0.214285714 4.5,2.23915714 4.5,4.71428571 C4.5,7.18941429 6.52485857,9.21428571 9,9.21428571 C11.4751414,9.21428571 13.5,7.18941429 13.5,4.71428571 C13.5,2.23915714 11.4751414,0.214285714 9,0.214285714 Z M9,1.92857143 C10.5486771,1.92857143 11.7857143,3.16562143 11.7857143,4.71428571 C11.7857143,6.26295 10.5486771,7.5 9,7.5 C7.45132286,7.5 6.21428571,6.26295 6.21428571,4.71428571 C6.21428571,3.16562143 7.45132286,1.92857143 9,1.92857143 Z M9,9.64286143 C4.01518929,9.64286143 0,13.8974829 0,19.0714329 C4.73296332e-05,19.5448002 0.383775535,19.9285284 0.857142857,19.9285757 L17.1428571,19.9285757 C17.6162245,19.9285284 17.9999527,19.5448002 18,19.0714329 C18,13.8974829 13.9848129,9.64286143 9,9.64286143 L9,9.64286143 Z M9,11.3571471 C12.7354329,11.3571471 15.7990564,14.3364257 16.2053571,18.21429 L1.79464286,18.21429 C2.20094357,14.3364257 5.26456929,11.3571471 9,11.3571471 L9,11.3571471 Z" id="Shape" fill="#000000" fill-rule="nonzero"></path>
                        </g>
                    </g>
                </g>
            </g>
        </g>
    </g>
</svg>