<?xml version="1.0" encoding="UTF-8"?>
<svg width="220px" height="53px" viewBox="0 0 220 53" version="1.1" xmlns="http://www.w3.org/2000/svg" xmlns:xlink="http://www.w3.org/1999/xlink">
    <!-- Generator: Sketch 55.1 (78136) - https://sketchapp.com -->
    <title>Group 27</title>
    <desc>Created with Sketch.</desc>
    <defs>
        <polygon id="path-1" points="0.104376113 0.0449795705 21.9240545 0.0449795705 21.9240545 21.1323656 0.104376113 21.1323656"></polygon>
        <polygon id="path-3" points="0 0.0125615506 47.086638 0.0125615506 47.086638 52.4358072 0 52.4358072"></polygon>
    </defs>
    <g id="PC" stroke="none" stroke-width="1" fill="none" fill-rule="evenodd">
        <g id="PC-Copy" transform="translate(-206.000000, -4559.000000)">
            <g id="sec_07" transform="translate(0.000000, 4417.000000)">
                <g id="ttl" transform="translate(205.000000, 117.000000)">
                    <g id="Group-27" transform="translate(1.000000, 25.000000)">
                        <path d="M72.1337014,33.7757391 C73.2769178,32.5939162 73.8492174,31.038704 73.8492174,29.1110246 C73.8492174,27.1834605 73.2769178,25.6288245 72.1337014,24.4464254 C70.9897936,23.2646024 69.5315013,22.6730571 67.7581331,22.6730571 C66.6016637,22.6730571 65.5607837,22.9369649 64.6356082,23.4633976 C63.7103174,23.9905217 62.9778292,24.7422556 62.4381435,25.7185993 C61.8984578,26.6956344 61.6285574,27.8262892 61.6285574,29.1110246 C61.6285574,30.3965668 61.8984578,31.5271063 62.4381435,32.5035652 C62.9778292,33.4806003 63.7103174,34.2323342 64.6356082,34.7587669 C65.5607837,35.285891 66.6016637,35.5491074 67.7581331,35.5491074 C69.5315013,35.5491074 70.9897936,34.9581383 72.1337014,33.7757391 M73.6757758,19.8974154 C75.2563415,20.7714227 76.4960168,22.0051053 77.3958387,23.5983478 C78.2951996,25.1921666 78.7452258,27.0292645 78.7452258,29.1110246 C78.7452258,31.1927847 78.2951996,33.0372583 77.3958387,34.6430623 C76.4960168,36.2495579 75.2563415,37.4899246 73.6757758,38.3633557 C72.0952101,39.2372478 70.3025961,39.674021 68.297934,39.674021 C66.8841257,39.674021 65.5927061,39.4294741 64.42356,38.9415327 C63.7308308,38.6526171 63.10356,38.2779602 62.5417475,37.8174468 C62.1151158,37.4676826 61.4743614,37.7699665 61.4743614,38.3217528 L61.4743614,38.7508046 C61.4743614,39.1116323 61.1818732,39.4041205 60.8210456,39.4041205 L57.540176,39.4041205 C57.1793483,39.4041205 56.8868601,39.1116323 56.8868601,38.7508046 L56.8868601,11.4528266 C56.8868601,11.091999 57.1793483,10.7993955 57.540176,10.7993955 L61.0523394,10.7993955 C61.4131671,10.7993955 61.7056553,11.091999 61.7056553,11.4528266 L61.7056553,19.8373735 C61.7056553,20.3806317 62.3287774,20.6847596 62.7588664,20.352858 C63.3244819,19.9164306 63.9436857,19.558945 64.6162472,19.2806317 C65.7342252,18.818044 66.9612237,18.5866349 68.297934,18.5866349 C70.3025961,18.5866349 72.0952101,19.0240995 73.6757758,19.8974154" id="Fill-1" fill="#060101"></path>
                        <path d="M88.3149953,24.176594 C87.386132,25.159737 86.8537067,26.4569188 86.7148381,28.0233096 C86.6765773,28.4548968 87.0641414,28.8030477 87.4896207,28.7214552 L97.7784526,26.7476784 C98.0740524,26.6908633 98.2514123,26.3824715 98.1478083,26.0998942 C97.7770697,25.0890927 97.1594793,24.2549597 96.2950372,23.5983017 C95.2793955,22.8273222 94.0523971,22.4418324 92.6134657,22.4418324 C90.8400974,22.4418324 89.4070435,23.0200094 88.3149953,24.176594 M99.5301551,33.8653525 L101.265608,35.8899518 C101.484456,36.1453316 101.47224,36.5236763 101.241522,36.7682232 C100.405661,37.6538701 99.3801079,38.3399151 98.1647491,38.8258973 C96.7509408,39.3915128 95.1576983,39.6740901 93.3844453,39.6740901 C91.1225595,39.6740901 89.1305741,39.2246401 87.4090655,38.3248182 C85.6868654,37.4253421 84.3569544,36.1725291 83.4189869,34.5660335 C82.4805584,32.9601142 82.011978,31.1416857 82.011978,29.1110938 C82.011978,27.1064316 82.4678816,25.3011409 83.3804955,23.6946454 C84.292418,22.0888413 85.5520304,20.835913 87.1584107,19.9360911 C88.76433,19.036615 90.5828738,18.586704 92.6134657,18.586704 C94.5409146,18.586704 96.2950372,19.0046925 97.8756029,19.8396323 C99.4561687,20.675033 100.709097,21.870109 101.634272,23.4248601 C102.475896,24.8394751 102.934681,26.4715547 103.010742,28.3216752 C103.023995,28.6422829 102.797541,28.9237077 102.482696,28.985363 L88.0990288,31.7986894 C87.6523447,31.886044 87.4302703,32.3919633 87.6662892,32.7811409 C88.1443195,33.5695223 88.7911818,34.1965626 89.6064149,34.6624924 C90.6859015,35.2792761 91.9833138,35.5876679 93.5000346,35.5876679 C95.5027376,35.5876679 97.2062682,34.9898994 98.6110875,33.7940168 C98.8851367,33.5606485 99.2958649,33.5919948 99.5301551,33.8653525" id="Fill-3" fill="#060101"></path>
                        <path d="M108.56463,26.6824044 L117.85937,26.6824044 C118.220198,26.6824044 118.512801,26.9748926 118.512801,27.3357203 L118.512801,30.0382975 C118.512801,30.3991252 118.220198,30.6916134 117.85937,30.6916134 L108.56463,30.6916134 C108.203802,30.6916134 107.911314,30.3991252 107.911314,30.0382975 L107.911314,27.3357203 C107.911314,26.9748926 108.203802,26.6824044 108.56463,26.6824044" id="Fill-5" fill="#060101"></path>
                        <path d="M134.958591,37.8172624 C135.070723,38.1026056 134.972074,38.4312803 134.715427,38.5988444 C134.240969,38.9083887 133.696097,39.1512069 133.080466,39.3270686 C132.270995,39.5583625 131.416234,39.6740671 130.516873,39.6740671 C128.255102,39.6740671 126.507548,39.083098 125.273981,37.9006988 C124.040414,36.7188759 123.423515,34.9966757 123.423515,32.7349052 L123.423515,14.9222808 C123.423515,14.5615684 123.716118,14.2690801 124.076831,14.2690801 L127.588994,14.2690801 C127.949822,14.2690801 128.242425,14.5615684 128.242425,14.9222808 L128.242425,18.3188549 C128.242425,18.6796826 128.534914,18.972286 128.895741,18.972286 L133.101786,18.972286 C133.462614,18.972286 133.755102,19.2647742 133.755102,19.6256019 L133.755102,22.1739832 C133.755102,22.5348109 133.462614,22.8272991 133.101786,22.8272991 L128.895741,22.8272991 C128.534914,22.8272991 128.242425,23.1199026 128.242425,23.4807302 L128.242425,32.6192006 C128.242425,33.6215893 128.492965,34.386461 128.994159,34.9130089 C129.495238,35.4401331 130.195228,35.7032342 131.095165,35.7032342 C131.889193,35.7032342 132.585841,35.5504212 133.185223,35.2443342 C133.526113,35.0703164 133.942719,35.2339623 134.08274,35.5901802 L134.958591,37.8172624 Z" id="Fill-7" fill="#060101"></path>
                        <path d="M153.046544,33.7757391 C154.203013,32.5939162 154.781305,31.038704 154.781305,29.1110246 C154.781305,27.1834605 154.203013,25.6288245 153.046544,24.4464254 C151.890074,23.2646024 150.425098,22.6730571 148.65173,22.6730571 C146.878477,22.6730571 145.419493,23.2646024 144.276277,24.4464254 C143.132369,25.6288245 142.560761,27.1834605 142.560761,29.1110246 C142.560761,31.038704 143.132369,32.5939162 144.276277,33.7757391 C145.419493,34.9581383 146.878477,35.5491074 148.65173,35.5491074 C150.425098,35.5491074 151.890074,34.9581383 153.046544,33.7757391 M143.023348,38.3247491 C141.352432,37.4253882 140.048335,36.1724599 139.110483,34.5659644 C138.171939,32.9601603 137.703359,31.1416166 137.703359,29.1110246 C137.703359,27.0812394 138.171939,25.2692645 139.110483,23.6754458 C140.048335,22.0822032 141.352432,20.8359591 143.023348,19.936022 C144.693689,19.0366611 146.56997,18.5866349 148.65173,18.5866349 C150.758728,18.5866349 152.647801,19.0366611 154.318718,19.936022 C155.989058,20.8359591 157.293155,22.0822032 158.231583,23.6754458 C159.169551,25.2692645 159.638707,27.0812394 159.638707,29.1110246 C159.638707,31.1416166 159.169551,32.9601603 158.231583,34.5659644 C157.293155,36.1724599 155.989058,37.4253882 154.318718,38.3247491 C152.647801,39.2246862 150.758728,39.674021 148.65173,39.674021 C146.56997,39.674021 144.693689,39.2246862 143.023348,38.3247491" id="Fill-9" fill="#060101"></path>
                        <path d="M178.816507,33.7757391 C179.959723,32.5939162 180.532023,31.038704 180.532023,29.1110246 C180.532023,27.1834605 179.959723,25.6288245 178.816507,24.4464254 C177.672599,23.2646024 176.214307,22.6730571 174.440939,22.6730571 C173.284469,22.6730571 172.243589,22.9369649 171.318414,23.4633976 C170.393123,23.9905217 169.660635,24.7422556 169.120949,25.7185993 C168.581263,26.6956344 168.311363,27.8262892 168.311363,29.1110246 C168.311363,30.3965668 168.581263,31.5271063 169.120949,32.5035652 C169.660635,33.4806003 170.393123,34.2323342 171.318414,34.7587669 C172.243589,35.285891 173.284469,35.5491074 174.440939,35.5491074 C176.214307,35.5491074 177.672599,34.9581383 178.816507,33.7757391 M180.358581,19.8974154 C181.939147,20.7714227 183.178822,22.0051053 184.078644,23.5983478 C184.978005,25.1921666 185.428031,27.0292645 185.428031,29.1110246 C185.428031,31.1927847 184.978005,33.0372583 184.078644,34.6430623 C183.178822,36.2495579 181.939147,37.4899246 180.358581,38.3633557 C178.778016,39.2372478 176.985402,39.674021 174.98074,39.674021 C172.771059,39.674021 170.927969,39.0876616 169.451237,37.9149429 C169.021379,37.5737067 168.388461,37.8742619 168.388461,38.4231671 L168.388461,46.2296522 C168.388461,46.5904798 168.095973,46.882968 167.735145,46.882968 L164.222982,46.882968 C163.862154,46.882968 163.569666,46.5904798 163.569666,46.2296522 L163.569666,19.4713599 C163.569666,19.1105322 163.862154,18.818044 164.222982,18.818044 L167.503851,18.818044 C167.864679,18.818044 168.157167,19.1105322 168.157167,19.4713599 L168.157167,19.9394793 C168.157167,20.4911503 168.797806,20.7934343 169.224553,20.4437852 C169.786366,19.9833871 170.413521,19.6084997 171.106366,19.3191231 C172.275512,18.831297 173.566931,18.5866349 174.98074,18.5866349 C176.985402,18.5866349 178.778016,19.0240995 180.358581,19.8974154" id="Fill-11" fill="#060101"></path>
                        <path d="M190.007834,18.818044 L193.519998,18.818044 C193.880826,18.818044 194.173314,19.1105322 194.173314,19.4713599 L194.173314,38.7508046 C194.173314,39.1116323 193.880826,39.4041205 193.519998,39.4041205 L190.007834,39.4041205 C189.647007,39.4041205 189.354519,39.1116323 189.354519,38.7508046 L189.354519,19.4713599 C189.354519,19.1105322 189.647007,18.818044 190.007834,18.818044 M189.585812,14.5966716 C188.994267,14.0443091 188.699128,13.3571116 188.699128,12.5342724 C188.699128,11.7120094 188.994267,11.0246967 189.585812,10.471758 C190.176666,9.9193955 190.909155,9.64292614 191.783162,9.64292614 C192.656593,9.64292614 193.389081,9.9067187 193.980627,10.4331514 C194.57148,10.9602755 194.867311,11.6223499 194.867311,12.4185678 C194.867311,13.2666454 194.578164,13.9798879 193.999872,14.5581802 C193.42158,15.1363573 192.682523,15.4256186 191.783162,15.4256186 C190.909155,15.4256186 190.176666,15.1496103 189.585812,14.5966716" id="Fill-13" fill="#060101"></path>
                        <g id="Group-17" transform="translate(197.988476, 18.541655)">
                            <mask id="mask-2" fill="white">
                                <use xlink:href="#path-1"></use>
                            </mask>
                            <g id="Clip-16"></g>
                            <path d="M15.447561,15.2340838 C16.6040304,14.0522609 17.1823227,12.4970487 17.1823227,10.5693693 C17.1823227,8.64180513 16.6040304,7.0871692 15.447561,5.90477004 C14.2909764,4.72294709 12.8261152,4.13140178 11.052747,4.13140178 C9.27937873,4.13140178 7.82051021,4.72294709 6.67717863,5.90477004 C5.53338607,7.0871692 4.96166265,8.64180513 4.96166265,10.5693693 C4.96166265,12.4970487 5.53338607,14.0522609 6.67717863,15.2340838 C7.82051021,16.416483 9.27937873,17.0074521 11.052747,17.0074521 C12.8261152,17.0074521 14.2909764,16.416483 15.447561,15.2340838 M21.9241351,0.929704557 L21.9241351,20.2091493 C21.9241351,20.569977 21.6315317,20.8624652 21.270704,20.8624652 L17.9899497,20.8624652 C17.6290068,20.8624652 17.3365186,20.569977 17.3365186,20.2091493 L17.3365186,19.7796365 C17.3365186,19.2279654 16.6958795,18.9256815 16.2692478,19.2754458 C15.7072048,19.7360744 15.079934,20.1108465 14.3874353,20.3998774 C13.2175977,20.8878188 11.9261781,21.1323656 10.5130613,21.1323656 C8.50839916,21.1323656 6.71578523,20.6955925 5.13521949,19.8217004 C3.55465375,18.9482693 2.32097119,17.7145867 1.43428706,16.1207679 C0.547602933,14.5275254 0.104376113,12.6770592 0.104376113,10.5693693 C0.104376113,8.46237087 0.547602933,6.61789733 1.43428706,5.03744683 C2.32097119,3.45676585 3.55465375,2.22976742 5.13521949,1.35576008 C6.71578523,0.482444212 8.50839916,0.0449795705 10.5130613,0.0449795705 C11.8490801,0.0449795705 13.0766548,0.276388685 14.1946328,0.738976427 C14.8673096,1.01740492 15.4863981,1.37489052 16.0520136,1.81143321 C16.4821027,2.14333473 17.1052247,1.83920691 17.1052247,1.29594866 L17.1052247,0.929704557 C17.1052247,0.568876899 17.3977129,0.276388685 17.7585406,0.276388685 L21.270704,0.276388685 C21.6315317,0.276388685 21.9241351,0.568876899 21.9241351,0.929704557" id="Fill-15" fill="#060101" mask="url(#mask-2)"></path>
                        </g>
                        <g id="Group-20" transform="translate(0.000000, 0.102682)">
                            <mask id="mask-4" fill="white">
                                <use xlink:href="#path-3"></use>
                            </mask>
                            <g id="Clip-19"></g>
                            <path d="M43.8787177,10.7683373 L26.7512163,0.872716606 C24.7661456,-0.274187533 22.3204463,-0.274187533 20.3353756,0.872716606 L3.20787428,10.7683373 C1.22280356,11.9152415 -4.60974332e-05,14.0348015 -4.60974332e-05,16.3286097 L-4.60974332e-05,36.1198512 C-4.60974332e-05,38.4135443 1.22280356,40.5331042 3.20787428,41.6800084 L20.3353756,51.5756291 C22.3204463,52.7225333 24.7661456,52.7225333 26.7512163,51.5756291 L30.4218397,49.4549167 C31.5894877,48.7802808 31.9894982,47.2861477 31.3153232,46.117693 L29.9638617,43.775252 C29.4277486,42.8459277 28.3483772,42.3756186 27.3033483,42.6160168 C20.2983824,44.2276983 12.7736679,41.1851524 8.99241069,34.6311346 C4.35270403,26.5892069 7.10621896,16.3059068 15.1423845,11.6629733 C23.17855,7.01992457 33.4544746,9.77528339 38.0941812,17.8172111 C41.8754384,24.3712289 40.7461666,32.4137328 35.8488905,37.6787512 C35.1183614,38.4641362 34.9857161,39.6347805 35.5218292,40.5641048 L36.8732907,42.9065458 C37.5474657,44.0750005 39.0404463,44.4753567 40.2080943,43.8007208 L43.8787177,41.6800084 C45.8637884,40.5331042 47.086638,38.4135443 47.086638,36.1198512 L47.086638,16.3284945 C47.086638,14.0348015 45.8637884,11.9152415 43.8787177,10.7683373" id="Fill-18" fill="#060101" mask="url(#mask-4)"></path>
                        </g>
                        <path d="M28.7354804,35.3264107 C31.4393253,33.7641687 33.1754699,31.1688832 33.7335946,28.326285 C33.792945,28.0238858 33.4684191,27.792131 33.2016302,27.9462116 L20.1156061,35.5068821 C19.8488172,35.6609628 19.8870781,36.0582074 20.1785291,36.1578931 C22.9175233,37.0955149 26.0316354,36.8886527 28.7354804,35.3264107" id="Fill-21" fill="#060101"></path>
                        <path d="M18.3511231,17.3273106 C15.6472782,18.8895526 13.9112488,21.4848381 13.3531241,24.3274364 C13.2936585,24.6298355 13.6182996,24.8615904 13.8849733,24.7075097 L26.9715736,17.1466087 C27.238132,16.992528 27.1998711,16.5957444 26.9086506,16.4960587 C24.1695411,15.5582064 21.0551985,15.7649534 18.3511231,17.3273106" id="Fill-23" fill="#060101"></path>
                        <path d="M14.5501938,31.5227501 C14.8218229,31.9934049 15.1246831,32.4349031 15.4546255,32.8457465 C15.6300262,33.0641331 15.9395705,33.1199109 16.1819277,32.97989 L32.981561,23.2736145 C33.2239183,23.1335935 33.3305186,22.8375327 33.2292195,22.5763908 C33.0384914,22.0848769 32.8080042,21.6017758 32.5363751,21.1310058 C32.2648612,20.6602357 31.9618858,20.218968 31.6319434,19.8078942 C31.4566579,19.5896228 31.1471137,19.5338449 30.9046412,19.6738659 L14.1058146,29.3795652 C13.8629963,29.5199319 13.7562808,29.8165689 13.8578104,30.0781718 C14.0484233,30.5694552 14.2787952,31.0522106 14.5501938,31.5227501" id="Fill-25" fill="#060101"></path>
                    </g>
                </g>
            </g>
        </g>
    </g>
</svg>