<?xml version="1.0" encoding="utf-8"?>
<!-- Generator: Adobe Illustrator 23.1.1, SVG Export Plug-In . SVG Version: 6.00 Build 0)  -->
<svg version="1.1" id="レイヤー_1" xmlns="http://www.w3.org/2000/svg" xmlns:xlink="http://www.w3.org/1999/xlink" x="0px"
	 y="0px" viewBox="0 0 840 222.67" style="enable-background:new 0 0 840 222.67;" xml:space="preserve">
<style type="text/css">
	.st0{fill:#F6D34F;}
	.st1{fill:#040000;}
</style>
<g>
	<g>
		<ellipse class="st0" cx="100" cy="111.33" rx="44.12" ry="44.13"/>
		<g>
			<path class="st0" d="M186.37,45.69L113.63,3.65c-8.43-4.87-18.82-4.87-27.25,0L13.63,45.69C5.19,50.56,0,59.56,0,69.3l0,84.06
				c0,9.74,5.19,18.75,13.63,23.62l72.75,42.03c8.43,4.87,18.82,4.87,27.25,0l15.59-9.01c4.96-2.87,6.66-9.21,3.8-14.17l-5.74-9.95
				c-2.28-3.95-6.86-5.94-11.3-4.92c-29.75,6.85-61.71-6.08-77.78-33.92c-19.71-34.16-8.01-77.84,26.12-97.56
				s77.78-8.02,97.49,26.14c16.06,27.84,11.26,62-9.54,84.36c-3.1,3.34-3.67,8.31-1.39,12.26l5.74,9.95
				c2.86,4.96,9.21,6.66,14.16,3.8l15.59-9.01c8.43-4.87,13.63-13.87,13.63-23.62l0-84.06C200,59.56,194.81,50.56,186.37,45.69z"/>
		</g>
		<g>
			<path class="st1" d="M122.05,149.56c11.48-6.64,18.86-17.66,21.23-29.73c0.25-1.28-1.13-2.27-2.26-1.61l-55.58,32.11
				c-1.13,0.65-0.97,2.34,0.27,2.77C97.34,157.07,110.57,156.19,122.05,149.56z"/>
			<path class="st1" d="M77.95,73.11c-11.48,6.64-18.86,17.66-21.23,29.73c-0.25,1.28,1.13,2.27,2.26,1.61l55.59-32.12
				c1.13-0.65,0.97-2.34-0.27-2.76C102.66,65.59,89.43,66.47,77.95,73.11z"/>
			<path class="st1" d="M61.8,133.4c1.15,2,2.44,3.87,3.84,5.62c0.74,0.93,2.06,1.16,3.09,0.57l71.36-41.23
				c1.03-0.59,1.48-1.85,1.05-2.96c-0.81-2.09-1.79-4.14-2.94-6.14c-1.15-2-2.44-3.87-3.84-5.62c-0.74-0.93-2.06-1.16-3.09-0.57
				L59.91,124.3c-1.03,0.6-1.48,1.86-1.05,2.97C59.67,129.35,60.65,131.41,61.8,133.4z"/>
		</g>
	</g>
	<g>
		<g>
			<path class="st1" d="M301.81,57.87c5.82,3.22,10.38,7.76,13.69,13.62c3.31,5.87,4.97,12.63,4.97,20.29s-1.66,14.45-4.97,20.36
				c-3.31,5.91-7.87,10.48-13.69,13.69c-5.82,3.22-12.41,4.82-19.79,4.82c-5.2,0-9.96-0.9-14.26-2.7c-2.55-1.06-4.86-2.44-6.93-4.14
				c-1.57-1.29-3.93-0.17-3.93,1.86v1.58c0,1.33-1.08,2.4-2.4,2.4h-12.07c-1.33,0-2.4-1.08-2.4-2.4V26.79c0-1.33,1.08-2.4,2.4-2.4
				h12.93c1.33,0,2.4,1.08,2.4,2.4v30.86c0,2,2.29,3.12,3.88,1.9c2.08-1.61,4.36-2.92,6.84-3.95c4.11-1.7,8.63-2.55,13.55-2.55
				C289.4,53.04,295.99,54.65,301.81,57.87z M296.14,108.94c4.21-4.35,6.31-10.07,6.31-17.17s-2.11-12.81-6.31-17.17
				c-4.21-4.35-9.58-6.53-16.1-6.53c-4.26,0-8.09,0.97-11.49,2.91c-3.4,1.94-6.1,4.71-8.09,8.3c-1.99,3.6-2.98,7.76-2.98,12.48
				c0,4.73,0.99,8.89,2.98,12.48c1.99,3.6,4.68,6.36,8.09,8.3c3.4,1.94,7.24,2.91,11.49,2.91
				C286.56,115.47,291.93,113.29,296.14,108.94z"/>
			<path class="st1" d="M396.96,109.27l6.39,7.45c0.81,0.94,0.76,2.33-0.09,3.23c-3.08,3.26-6.85,5.78-11.32,7.57
				c-5.2,2.08-11.07,3.12-17.59,3.12c-8.32,0-15.65-1.65-21.99-4.97c-6.34-3.31-11.23-7.92-14.68-13.83
				c-3.45-5.91-5.18-12.6-5.18-20.07c0-7.38,1.68-14.02,5.04-19.93c3.36-5.91,7.99-10.52,13.9-13.83c5.91-3.31,12.6-4.97,20.07-4.97
				c7.09,0,13.55,1.54,19.37,4.61c5.82,3.07,10.43,7.47,13.83,13.19c3.1,5.21,4.79,11.21,5.07,18.02c0.05,1.18-0.78,2.22-1.94,2.44
				l-52.93,10.35c-1.64,0.32-2.46,2.18-1.59,3.62c1.76,2.9,4.14,5.21,7.14,6.92c3.97,2.27,8.75,3.4,14.33,3.4
				c7.37,0,13.64-2.2,18.81-6.6C394.58,108.15,396.09,108.26,396.96,109.27z M355.68,73.62c-3.42,3.62-5.38,8.39-5.89,14.16
				c-0.14,1.59,1.29,2.87,2.85,2.57l37.86-7.26c1.09-0.21,1.74-1.34,1.36-2.38c-1.36-3.72-3.64-6.79-6.82-9.21
				c-3.74-2.84-8.25-4.26-13.55-4.26C364.98,67.23,359.7,69.36,355.68,73.62z"/>
			<path class="st1" d="M430.2,82.84h34.21c1.33,0,2.4,1.08,2.4,2.4v9.95c0,1.33-1.08,2.4-2.4,2.4H430.2c-1.33,0-2.4-1.08-2.4-2.4
				v-9.95C427.8,83.91,428.88,82.84,430.2,82.84z"/>
			<path class="st1" d="M527.34,123.81c0.41,1.05,0.05,2.26-0.89,2.88c-1.75,1.14-3.75,2.03-6.02,2.68
				c-2.98,0.85-6.12,1.28-9.43,1.28c-8.32,0-14.75-2.17-19.29-6.53c-4.54-4.35-6.81-10.69-6.81-19.01V39.56c0-1.33,1.08-2.4,2.4-2.4
				h12.92c1.33,0,2.4,1.08,2.4,2.4v12.5c0,1.33,1.08,2.4,2.4,2.4h15.48c1.33,0,2.4,1.08,2.4,2.4v9.38c0,1.33-1.08,2.4-2.4,2.4
				h-15.48c-1.33,0-2.4,1.08-2.4,2.4v33.63c0,3.69,0.92,6.5,2.77,8.44c1.84,1.94,4.42,2.91,7.73,2.91c2.92,0,5.49-0.56,7.69-1.69
				c1.25-0.64,2.79-0.04,3.3,1.27L527.34,123.81z"/>
			<path class="st1" d="M557.02,125.68c-6.15-3.31-10.95-7.92-14.4-13.83c-3.45-5.91-5.18-12.6-5.18-20.07
				c0-7.47,1.72-14.14,5.18-20c3.45-5.86,8.25-10.45,14.4-13.76c6.15-3.31,13.05-4.97,20.71-4.97c7.75,0,14.71,1.66,20.85,4.97
				c6.15,3.31,10.95,7.9,14.4,13.76c3.45,5.87,5.18,12.53,5.18,20c0,7.47-1.73,14.16-5.18,20.07c-3.45,5.91-8.25,10.52-14.4,13.83
				c-6.15,3.31-13.1,4.97-20.85,4.97C570.07,130.65,563.16,128.99,557.02,125.68z M593.9,108.94c4.26-4.35,6.38-10.07,6.38-17.17
				s-2.13-12.81-6.38-17.17c-4.26-4.35-9.65-6.53-16.17-6.53c-6.53,0-11.89,2.18-16.1,6.53c-4.21,4.35-6.31,10.07-6.31,17.17
				s2.1,12.82,6.31,17.17c4.21,4.35,9.58,6.53,16.1,6.53C584.25,115.47,589.65,113.29,593.9,108.94z"/>
			<path class="st1" d="M694.41,57.87c5.82,3.22,10.38,7.76,13.69,13.62c3.31,5.87,4.97,12.63,4.97,20.29s-1.66,14.45-4.97,20.36
				c-3.31,5.91-7.87,10.48-13.69,13.69c-5.82,3.22-12.41,4.82-19.79,4.82c-8.13,0-14.91-2.16-20.35-6.47
				c-1.58-1.26-3.91-0.15-3.91,1.87v28.73c0,1.33-1.08,2.4-2.4,2.4h-12.93c-1.33,0-2.4-1.08-2.4-2.4V56.3c0-1.33,1.08-2.4,2.4-2.4
				h12.07c1.33,0,2.4,1.08,2.4,2.4v1.72c0,2.03,2.36,3.14,3.93,1.86c2.07-1.69,4.38-3.07,6.93-4.14c4.3-1.8,9.06-2.7,14.26-2.7
				C682,53.04,688.6,54.65,694.41,57.87z M688.74,108.94c4.21-4.35,6.31-10.07,6.31-17.17s-2.11-12.81-6.31-17.17
				c-4.21-4.35-9.58-6.53-16.1-6.53c-4.26,0-8.09,0.97-11.49,2.91c-3.4,1.94-6.1,4.71-8.09,8.3c-1.99,3.6-2.98,7.76-2.98,12.48
				c0,4.73,0.99,8.89,2.98,12.48c1.99,3.6,4.68,6.36,8.09,8.3c3.4,1.94,7.24,2.91,11.49,2.91
				C679.16,115.47,684.53,113.29,688.74,108.94z"/>
			<path class="st1" d="M728.37,38.36c-2.18-2.03-3.26-4.56-3.26-7.59c0-3.03,1.09-5.56,3.26-7.59c2.17-2.03,4.87-3.05,8.09-3.05
				c3.21,0,5.91,0.97,8.09,2.91c2.17,1.94,3.26,4.38,3.26,7.31c0,3.12-1.06,5.75-3.19,7.87c-2.13,2.13-4.85,3.19-8.16,3.19
				C733.24,41.41,730.54,40.4,728.37,38.36z M729.92,53.9h12.93c1.33,0,2.4,1.08,2.4,2.4v70.95c0,1.33-1.08,2.4-2.4,2.4h-12.93
				c-1.33,0-2.4-1.08-2.4-2.4V56.3C727.52,54.97,728.59,53.9,729.92,53.9z"/>
			<path class="st1" d="M839.97,56.3v70.95c0,1.33-1.08,2.4-2.4,2.4H825.5c-1.33,0-2.4-1.08-2.4-2.4v-1.58
				c0-2.03-2.36-3.14-3.93-1.86c-2.07,1.7-4.38,3.07-6.93,4.14c-4.3,1.8-9.06,2.7-14.26,2.7c-7.38,0-13.97-1.61-19.79-4.82
				c-5.82-3.21-10.36-7.75-13.62-13.62c-3.26-5.86-4.89-12.67-4.89-20.43c0-7.75,1.63-14.54,4.89-20.36
				c3.26-5.82,7.8-10.33,13.62-13.55c5.82-3.21,12.41-4.82,19.79-4.82c4.92,0,9.43,0.85,13.55,2.55c2.48,1.02,4.75,2.34,6.84,3.95
				c1.58,1.22,3.88,0.1,3.88-1.9V56.3c0-1.33,1.08-2.4,2.4-2.4h12.93C838.9,53.9,839.97,54.97,839.97,56.3z M816.14,108.94
				c4.26-4.35,6.38-10.07,6.38-17.17s-2.13-12.81-6.38-17.17c-4.26-4.35-9.65-6.53-16.17-6.53c-6.53,0-11.89,2.18-16.1,6.53
				c-4.21,4.35-6.31,10.07-6.31,17.17s2.1,12.82,6.31,17.17c4.21,4.35,9.58,6.53,16.1,6.53
				C806.49,115.47,811.88,113.29,816.14,108.94z"/>
		</g>
		<g>
			<path d="M269.38,194.3c-2.09-1.62-3.19-2.37-4.1-2.96c-2.29,4.89-4.14,7.1-7.81,9.82l-3.9-2.72c3.47-2.25,5.48-4.26,7.85-9.27
				c-3-1.34-4.85-1.81-7.89-2.21c-3.9,8.36-5.6,10.88-9.07,10.88c-2.68,0-4.46-2.17-4.46-5.09c0-3.04,1.89-5.96,4.65-7.81
				c2.68-1.81,4.89-1.85,6.27-1.89c1.14-2.72,2.05-4.97,3.19-8.56c-3.55,0.91-4.97,1.18-7.18,1.22l-1.77-3.98
				c6.07,0.04,10.73-0.75,12.86-2.13l2.6,2.6c-0.51,0.67-1.22,1.58-2.05,3.35c-0.04,0.16-2.84,6.51-3.39,7.73
				c3.39,0.35,5.21,0.87,7.61,1.81c0.67-2.72,0.87-4.34,1.03-7.22l4.42,1.22c0.39,0.12,0.95,0.32,0.95,0.67
				c0,0.2-0.04,0.24-0.59,0.51c-0.32,0.2-0.32,0.28-0.43,0.83c-0.35,2.05-0.59,3.23-1.34,5.88c2.17,1.22,3.39,1.97,5.09,3.08
				L269.38,194.3z M244.1,191.85c0,1.03,0.51,1.06,0.79,1.06c0.43,0,1.03-0.04,1.66-0.95c0.87-1.22,2.33-4.3,2.6-4.89
				C245.76,188.14,244.1,190.39,244.1,191.85z"/>
			<path d="M315.78,194.97c-4.14,2.09-8.79,2.84-13.41,3l-2.01-5.17c1.18,0.16,2.64,0.2,3.86,0.2c6.74,0,14.04-2.76,14.04-9.03
				c0-4.97-4.26-6.47-7.26-6.47c-2.25,0-5.99,0.99-8.76,1.77c-1.46,0.39-7.93,2.29-9.27,2.64l-2.13-4.97
				c3.75-0.39,7.53-1.26,10.14-1.89c4.73-1.18,7.18-1.77,9.86-1.77c5.28,0,12.11,2.68,12.11,11.16
				C322.96,190.19,319.25,193.19,315.78,194.97z"/>
			<path d="M352.23,199.22l-3.79,0.59c-1.06-2.45-3.16-7.14-3.16-16.8c0-5.01,0.59-8.52,1.58-14l3.98,1.14
				c0.12,0.04,1.14,0.32,1.14,0.71c0,0.16-0.12,0.24-0.63,0.63c-0.83,0.67-1.89,7.3-1.89,12.7c0,2.33,0.12,4.93,0.79,7.45
				c0.55-1.46,0.79-2.01,1.58-3.79l2.96,2.05C353.45,192.99,352.7,196.07,352.23,199.22z M369.54,181.28
				c0.04,1.18,0.04,1.7,0.04,2.37c0,9.98-3.08,14.71-5.28,18.1l-4.46-2.29c1.54-1.97,2.76-3.59,3.86-6.59
				c0.91-2.48,1.46-3.86,1.46-8.64v-2.09c-3,0.43-4.97,0.55-8.16,0.59l-0.91-4.54c1.26,0.08,1.81,0.08,2.52,0.08
				c2.96,0,4.97-0.28,6.35-0.43c-0.24-3.04-0.51-5.21-1.14-8.52l4.61,0.16c0.35,0,1.03,0,1.03,0.47c0,0.16-0.24,0.43-0.36,0.59
				c-0.28,0.35-0.35,0.51-0.35,0.71s0.08,1.03,0.12,1.22c0,0.16,0.2,2.48,0.35,4.46c2.13-0.59,3.35-1.03,5.36-1.89l0.16,4.54
				C373.13,180.22,371.87,180.65,369.54,181.28z"/>
			<path d="M407.97,201c-4.93,0-7.45-2.48-7.45-5.4c0-2.25,1.93-5.25,5.8-5.25c4.1,0,6.67,3.23,7.77,4.61
				c0.87-0.79,2.6-2.45,2.6-5.25c0-3.9-3.83-5.17-6.39-5.17c-1.7,0-3.55,0.47-4.5,0.99c-2.45,1.3-5.92,4.81-8.12,7.06l-3.31-3.47
				c4.1-3.08,8.28-6.59,14.59-14.24c-2.37,0.55-4.54,0.95-9.23,0.99l-0.91-4.42c0.95,0.08,3.19,0.24,4.42,0.24
				c1.5,0,8.2-0.51,11.95-1.97l2.05,3.19c-2.37,1.97-3.04,2.6-8.76,8.44c1.3-0.2,3.23-0.24,3.83-0.24c5.36,0,8.76,4.38,8.76,8.72
				C421.06,196.39,414.91,201,407.97,201z M406.47,193.82c-1.62,0-1.97,1.14-1.97,1.66c0,1.38,1.81,1.77,3.23,1.77
				c1.26,0,2.13-0.24,2.68-0.36C409.9,195.99,408.72,193.82,406.47,193.82z"/>
			<path d="M450.21,190.71c3.31,1.93,6.31,4.42,8.76,8.56l-4.1,3.27c-2.05-3.43-4.54-6.27-7.61-8.76L450.21,190.71z"/>
			<path d="M517.72,178.32c-3.19,9.23-5.25,13.17-7.3,16.92l-4.22-1.81c3.16-4.81,5.13-9.9,6.74-14.36
				c-1.81,0.24-2.92,0.35-4.77,0.47l-0.59-4.1c2.6-0.04,4.26-0.2,6.7-0.51c0.67-2.37,1.14-4.1,1.42-6.51l4.3,0.95
				c0.2,0.04,0.95,0.24,0.95,0.67c0,0.39-0.67,0.63-0.91,0.87c-0.04,0.04-0.79,2.56-0.95,3.08c2.33-0.59,3.51-0.99,4.54-1.34v4.42
				C522.3,177.42,521.07,177.73,517.72,178.32z M531.68,199.3c-1.34-1.1-2.37-1.77-3.9-2.6c-0.35,3.16-1.54,4.81-6.7,4.81
				c-2.52,0-4.77-0.39-6.43-1.85c-0.63-0.55-1.46-1.7-1.46-3.35c0-2.13,1.54-5.6,6.98-5.6c1.3,0,2.29,0.12,3.08,0.24
				c-0.08-0.91-0.55-4.93-0.55-5.76c0-1.89,0.91-3.08,1.7-4.02l4.1,2.21c-1.26,1.03-1.5,2.01-1.5,3.16c0,0.83,0.08,2.56,0.51,5.48
				c2.6,1.03,4.3,2.01,6.78,3.59L531.68,199.3z M520.01,194.3c-2.05,0-3,1.1-3,1.89c0,0.87,1.1,1.77,3.27,1.77
				c3.19,0,3.16-1.66,3.16-3.08C522.73,194.69,521.35,194.3,520.01,194.3z M533.46,182.46c-2.6-1.58-4.73-2.6-8.64-3.59l1.77-3.39
				c2.92,0.51,5.88,1.42,8.79,3.63L533.46,182.46z"/>
			<path d="M564.55,192.52h-3.35c-1.26-3.43-1.77-7.1-1.77-10.73c0-4.85,0.75-9.43,1.1-11.67l4.3,0.24c0.24,0,0.83,0.08,0.83,0.47
				c0,0.28-0.39,0.43-0.55,0.59c-0.83,0.67-1.46,8.2-1.46,10.57c0,1.14,0.08,1.58,0.28,2.45c0.51-1.34,1.3-3.39,2.29-5.6l2.76,1.81
				C567.27,184.51,565.69,188.46,564.55,192.52z M579.22,193.62c-1.85,4.22-4.1,6.59-5.52,8.08l-4.69-2.48
				c1.42-1.06,3.67-2.8,5.6-6.66c1.62-3.27,2.41-6.94,2.41-10.57c0-0.43-0.12-6.51-0.99-12.27h4.77c0.12,0,0.83,0,0.83,0.51
				c0,0.35-0.71,0.59-0.71,0.95c0,0.35,0.2,2.01,0.24,2.41c0.24,2.76,0.47,5.68,0.47,8.28
				C581.62,184.24,581.39,188.69,579.22,193.62z"/>
			<path d="M617.39,179.86c-1.93,6.55-3.98,12.9-8.12,20.98l-4.81-1.46c2.37-3.83,4.89-8.08,8.01-18.77
				c-3.16,0.39-4.5,0.43-5.88,0.47l-0.32-4.1c0.43,0.08,1.26,0.24,3.19,0.24c0.55,0,3.04-0.04,3.9-0.24
				c0.59-2.68,1.26-5.72,1.34-8.36l4.85,1.14c0.08,0,0.99,0.2,0.99,0.63c0,0.28-0.12,0.39-0.47,0.55c-0.51,0.24-0.59,0.28-0.67,0.67
				c-0.35,1.77-0.67,3.19-0.95,4.3c2.33-0.51,4.69-1.58,6.27-2.33v4.38C623.39,178.4,621.73,179.03,617.39,179.86z M627.37,201.12
				c-7.1,0-10.14-1.97-10.14-5.99c0-0.2,0-1.46,0.47-2.84l3.9,0.83c-0.16,0.75-0.16,1.38-0.16,1.46c0,0.51,0.08,0.83,0.47,1.18
				c1.1,1.03,4.1,1.06,5.01,1.06c3.67,0,5.8-0.59,6.94-0.87l0.39,4.57C632.26,200.88,630.13,201.12,627.37,201.12z M628.24,185.46
				c-2.52,0-4.97,0.32-5.92,0.43v-4.14c2.05-0.16,4.02-0.28,6.11-0.28c2.76,0,4.02,0.12,5.21,0.24v4.18
				C630.69,185.5,628.83,185.46,628.24,185.46z"/>
			<path d="M663.04,198.44c-1.26,0-2.25-0.67-2.92-1.3c-2.76-2.68-4.02-7.3-4.02-14.79c0-5.05,0.55-7.61,1.18-10.25l4.34,1.18
				c0.28,0.08,0.91,0.28,0.91,0.75c0,0.43-0.47,0.59-1.14,0.83c-0.43,2.17-0.75,4.46-0.75,8.79c0,7.69,1.89,9.11,2.68,9.11
				c1.42,0,3.04-4.18,3.79-6.07l3.27,2.92C668.2,194.26,666.23,198.44,663.04,198.44z M683.03,191.42
				c-1.14-8.2-3.75-12.86-5.8-16.01l4.06-1.97c1.89,2.68,5.4,7.65,6.47,16.76L683.03,191.42z"/>
			<path d="M716.51,185.46c-2.48-1.66-4.93-2.92-7.85-3.83l2.17-3.98c3,0.95,5.6,2.25,8.08,4.1L716.51,185.46z M728.58,192.17
				c-4.02,3.47-8.52,6.35-13.25,8.72c-0.51,0.28-0.59,0.28-0.67,0.59c-0.12,0.51-0.2,0.71-0.39,0.71c-0.36,0-0.79-0.83-0.91-1.06
				l-2.09-3.86c10.89-4.65,18.42-11.75,23.27-19.29l3.16,3.9C736.43,183.8,733.95,187.59,728.58,192.17z M720.54,176.23
				c-2.6-1.97-6.19-3.12-7.73-3.55l2.09-3.79c2.17,0.59,5.48,1.62,7.97,3.51L720.54,176.23z M732.57,175.21
				c-1.18-1.22-2.41-2.13-3.86-2.96l1.66-2.17c1.18,0.67,2.68,1.62,3.98,2.96L732.57,175.21z M736.59,172.01
				c-1.18-1.22-2.88-2.29-4.1-3l1.66-2.17c0.71,0.39,2.76,1.54,4.18,3L736.59,172.01z"/>
			<path d="M785.87,177.49c-1.5,4.06-3.27,8.91-7.18,13.88c-4.22,5.32-8.79,7.85-11.56,9.35l-4.14-3.39
				c4.38-2.05,13.33-6.63,17.94-20.23h-21.02v-4.57h22.32c0.43,0,0.83-0.32,1.3-0.63l3.86,3.63
				C786.78,176.07,786.18,176.67,785.87,177.49z M783.23,171.07c-0.59-0.75-1.81-2.29-3.27-3.47l1.93-1.74
				c1.42,1.14,2.8,2.84,3.27,3.47L783.23,171.07z M789.02,170.87c-0.95-1.3-1.93-2.52-3.23-3.55l1.93-1.74
				c1.38,1.1,2.6,2.6,3.35,3.59L789.02,170.87z"/>
			<path d="M818.62,179.35c-2.25-1.85-4.93-3.55-8.08-4.97l2.41-3.71c2.6,1.14,5.8,2.84,8.28,4.89L818.62,179.35z M830.18,190.08
				c-6.23,5.05-9.98,6.7-14.87,8.79c-0.2,0.55-0.28,1.22-0.59,1.22c-0.24,0-0.59-0.24-0.87-0.75l-2.76-4.73
				c3.16-0.75,8.32-2.09,14.63-6.82c6.03-4.5,9.82-9.7,11.56-12.07l2.72,3.94C838.46,181.71,835.39,185.86,830.18,190.08z"/>
		</g>
	</g>
</g>
<text transform="matrix(1 0 0 1 1218.2174 -1205.1962)" style="font-family:'MidashiGoPro-MB31-83pv-RKSJ-H'; font-size:91px; letter-spacing:38;">みつける、なりたいジブン</text>
</svg>
