<?xml version="1.0" encoding="utf-8"?>
<!-- Generator: Adobe Illustrator 23.1.1, SVG Export Plug-In . SVG Version: 6.00 Build 0)  -->
<svg version="1.1" id="レイヤー_1" xmlns="http://www.w3.org/2000/svg" xmlns:xlink="http://www.w3.org/1999/xlink" x="0px"
	 y="0px" viewBox="0 0 1000 228.43" style="enable-background:new 0 0 1000 228.43;" xml:space="preserve">
<style type="text/css">
	.st0{fill:#040000;}
</style>
<g>
	<path class="st0" d="M102.98,62.9c9.7,5.36,17.3,12.93,22.82,22.7c5.52,9.78,8.28,21.05,8.28,33.82s-2.76,24.08-8.28,33.93
		c-5.52,9.85-13.12,17.46-22.82,22.82c-9.7,5.36-20.69,8.04-32.99,8.04c-8.67,0-16.59-1.5-23.77-4.49c-4.25-1.77-8.1-4.07-11.54-6.9
		c-2.62-2.15-6.55-0.29-6.55,3.09v2.63c0,2.21-1.79,4.01-4.01,4.01H4.01c-2.21,0-4.01-1.79-4.01-4.01V11.1
		c0-2.21,1.79-4.01,4.01-4.01h21.54c2.21,0,4.01,1.79,4.01,4.01v51.43c0,3.33,3.82,5.2,6.46,3.16c3.47-2.68,7.27-4.87,11.39-6.58
		c6.86-2.84,14.38-4.26,22.58-4.26C82.29,54.86,93.29,57.54,102.98,62.9z M93.52,148.03c7.01-7.25,10.52-16.79,10.52-28.61
		s-3.51-21.36-10.52-28.61c-7.02-7.25-15.96-10.88-26.84-10.88c-7.09,0-13.48,1.62-19.15,4.85c-5.68,3.23-10.17,7.84-13.48,13.83
		c-3.31,5.99-4.97,12.93-4.97,20.81c0,7.88,1.66,14.82,4.97,20.81c3.31,5.99,7.8,10.6,13.48,13.83c5.68,3.23,12.06,4.85,19.15,4.85
		C77.56,158.91,86.51,155.28,93.52,148.03z"/>
	<path class="st0" d="M261.57,148.58L272.22,161c1.34,1.57,1.27,3.89-0.15,5.39c-5.13,5.43-11.42,9.64-18.87,12.62
		c-8.67,3.47-18.44,5.2-29.32,5.2c-13.87,0-26.09-2.76-36.65-8.28c-10.56-5.52-18.72-13.2-24.47-23.06
		c-5.76-9.85-8.63-21.01-8.63-33.46c0-12.3,2.8-23.37,8.39-33.22c5.59-9.85,13.32-17.54,23.17-23.06
		c9.85-5.52,21.01-8.28,33.46-8.28c11.82,0,22.58,2.56,32.28,7.69c9.7,5.12,17.38,12.46,23.06,21.99
		c5.16,8.68,7.98,18.69,8.44,30.04c0.08,1.97-1.31,3.69-3.24,4.07l-88.23,17.26c-2.74,0.54-4.1,3.64-2.65,6.03
		c2.93,4.84,6.9,8.68,11.9,11.54c6.62,3.78,14.58,5.67,23.88,5.67c12.28,0,22.73-3.67,31.35-11
		C257.62,146.71,260.14,146.9,261.57,148.58z M192.78,89.15c-5.7,6.03-8.96,13.99-9.82,23.6c-0.23,2.65,2.14,4.78,4.75,4.28
		l63.11-12.11c1.81-0.35,2.9-2.24,2.27-3.97c-2.27-6.2-6.06-11.32-11.36-15.34c-6.23-4.73-13.76-7.09-22.58-7.09
		C208.27,78.51,199.48,82.06,192.78,89.15z"/>
	<path class="st0" d="M316.99,104.52h57.01c2.21,0,4.01,1.79,4.01,4.01v16.58c0,2.21-1.79,4.01-4.01,4.01h-57.01
		c-2.21,0-4.01-1.79-4.01-4.01v-16.58C312.98,106.31,314.78,104.52,316.99,104.52z"/>
	<path class="st0" d="M478.89,172.82c0.69,1.75,0.08,3.77-1.49,4.79c-2.91,1.9-6.25,3.39-10.03,4.47
		c-4.97,1.42-10.21,2.13-15.73,2.13c-13.87,0-24.59-3.62-32.16-10.88c-7.57-7.25-11.35-17.81-11.35-31.69V32.38
		c0-2.21,1.79-4.01,4.01-4.01h21.54c2.21,0,4.01,1.79,4.01,4.01v20.83c0,2.21,1.79,4.01,4.01,4.01h25.8c2.21,0,4.01,1.79,4.01,4.01
		v15.63c0,2.21-1.79,4.01-4.01,4.01h-25.8c-2.21,0-4.01,1.79-4.01,4.01v56.06c0,6.15,1.54,10.84,4.61,14.07
		c3.07,3.23,7.37,4.85,12.89,4.85c4.87,0,9.14-0.94,12.82-2.81c2.09-1.07,4.65-0.06,5.51,2.12L478.89,172.82z"/>
	<path class="st0" d="M528.36,175.93c-10.25-5.52-18.25-13.2-24-23.06c-5.76-9.85-8.63-21.01-8.63-33.46
		c0-12.45,2.87-23.57,8.63-33.34c5.75-9.77,13.75-17.42,24-22.94c10.25-5.52,21.76-8.28,34.52-8.28c12.92,0,24.51,2.76,34.76,8.28
		c10.25,5.52,18.25,13.16,24,22.94c5.75,9.78,8.63,20.89,8.63,33.34c0,12.46-2.88,23.61-8.63,33.46c-5.76,9.85-13.76,17.54-24,23.06
		c-10.25,5.52-21.84,8.28-34.76,8.28C550.12,184.21,538.61,181.45,528.36,175.93z M589.84,148.03c7.09-7.25,10.64-16.79,10.64-28.61
		s-3.55-21.36-10.64-28.61c-7.09-7.25-16.08-10.88-26.96-10.88c-10.88,0-19.83,3.63-26.84,10.88c-7.02,7.25-10.52,16.79-10.52,28.61
		s3.51,21.36,10.52,28.61c7.01,7.25,15.96,10.88,26.84,10.88C573.76,158.91,582.75,155.28,589.84,148.03z"/>
	<path class="st0" d="M757.38,62.9c9.7,5.36,17.3,12.93,22.82,22.7c5.52,9.78,8.28,21.05,8.28,33.82s-2.76,24.08-8.28,33.93
		c-5.52,9.85-13.12,17.46-22.82,22.82c-9.7,5.36-20.69,8.04-32.99,8.04c-13.55,0-24.86-3.6-33.92-10.79
		c-2.64-2.09-6.52-0.25-6.52,3.12v47.89c0,2.21-1.79,4.01-4.01,4.01H658.4c-2.21,0-4.01-1.79-4.01-4.01V60.29
		c0-2.21,1.79-4.01,4.01-4.01h20.12c2.21,0,4.01,1.79,4.01,4.01v2.87c0,3.38,3.93,5.24,6.55,3.09c3.45-2.82,7.29-5.12,11.54-6.9
		c7.17-2.99,15.09-4.49,23.77-4.49C736.68,54.86,747.68,57.54,757.38,62.9z M747.92,148.03c7.01-7.25,10.52-16.79,10.52-28.61
		s-3.51-21.36-10.52-28.61c-7.02-7.25-15.96-10.88-26.84-10.88c-7.09,0-13.48,1.62-19.15,4.85c-5.68,3.23-10.17,7.84-13.48,13.83
		c-3.31,5.99-4.97,12.93-4.97,20.81c0,7.88,1.66,14.82,4.97,20.81c3.31,5.99,7.8,10.6,13.48,13.83c5.68,3.23,12.06,4.85,19.15,4.85
		C731.95,158.91,740.9,155.28,747.92,148.03z"/>
	<path class="st0" d="M813.98,30.39c-3.63-3.39-5.44-7.6-5.44-12.65c0-5.04,1.81-9.26,5.44-12.65C817.6,1.7,822.09,0,827.45,0
		c5.36,0,9.85,1.62,13.48,4.85c3.62,3.23,5.44,7.29,5.44,12.18c0,5.2-1.77,9.58-5.32,13.12c-3.55,3.55-8.08,5.32-13.6,5.32
		C822.09,35.47,817.6,33.78,813.98,30.39z M816.56,56.28h21.54c2.21,0,4.01,1.79,4.01,4.01v118.26c0,2.21-1.79,4.01-4.01,4.01
		h-21.54c-2.21,0-4.01-1.79-4.01-4.01V60.29C812.56,58.07,814.35,56.28,816.56,56.28z"/>
	<path class="st0" d="M1000,60.29v118.26c0,2.21-1.79,4.01-4.01,4.01h-20.12c-2.21,0-4.01-1.79-4.01-4.01v-2.63
		c0-3.38-3.93-5.24-6.55-3.09c-3.45,2.83-7.29,5.12-11.54,6.9c-7.18,2.99-15.1,4.49-23.77,4.49c-12.3,0-23.29-2.68-32.99-8.04
		c-9.7-5.36-17.26-12.92-22.7-22.7c-5.44-9.77-8.16-21.12-8.16-34.05c0-12.92,2.72-24.24,8.16-33.93
		c5.44-9.7,13.01-17.22,22.7-22.58c9.7-5.36,20.69-8.04,32.99-8.04c8.2,0,15.73,1.42,22.58,4.26c4.13,1.71,7.92,3.9,11.39,6.58
		c2.64,2.04,6.46,0.17,6.46-3.16v-2.25c0-2.21,1.79-4.01,4.01-4.01h21.54C998.21,56.28,1000,58.07,1000,60.29z M960.27,148.03
		c7.09-7.25,10.64-16.79,10.64-28.61s-3.55-21.36-10.64-28.61c-7.09-7.25-16.08-10.88-26.96-10.88c-10.88,0-19.83,3.63-26.84,10.88
		c-7.02,7.25-10.52,16.79-10.52,28.61s3.51,21.36,10.52,28.61c7.01,7.25,15.96,10.88,26.84,10.88
		C944.19,158.91,953.18,155.28,960.27,148.03z"/>
</g>
</svg>
