<svg width="202" height="45" viewBox="0 0 202 45" fill="none" xmlns="http://www.w3.org/2000/svg">
<g clip-path="url(#clip0)">
<path fill-rule="evenodd" clip-rule="evenodd" d="M195.833 2.88409C195.833 3.0764 195.64 3.2687 195.64 3.2687C195.447 3.65332 195.062 4.61486 194.869 4.61486C194.869 4.99947 194.676 4.99947 194.484 5.38409C194.484 5.7687 194.291 6.34563 194.098 6.34563C194.098 6.73024 194.098 7.11486 194.098 7.49947C194.098 7.49947 194.098 8.0764 194.098 8.26871C194.098 8.26871 194.291 8.65332 194.484 8.65332C194.484 8.65332 194.676 8.65332 194.676 8.84563C194.676 8.84563 194.869 9.03794 195.062 9.03794C195.255 9.03794 195.64 9.23024 195.64 9.23024C195.833 9.23024 196.411 9.42255 196.411 9.42255C196.604 9.42255 197.953 9.42255 198.146 9.42255C198.146 9.42255 199.11 9.42255 199.11 9.61486C199.495 9.61486 199.881 9.61486 200.266 9.61486H200.459C200.652 9.61486 200.844 9.61486 201.23 9.61486C201.23 9.61486 201.615 9.80717 201.808 9.80717C201.808 9.80717 202.194 10.1918 202.386 10.1918C202.386 10.5764 202.194 11.1533 202.194 11.3456L201.808 12.3072C201.808 12.3072 201.23 13.2687 201.23 13.461C201.23 13.461 200.652 14.2302 200.652 14.4226C200.652 14.4226 200.073 15.5764 199.881 15.5764C199.881 15.5764 198.724 17.1149 198.531 17.3072C198.531 17.3072 197.76 18.2687 197.568 18.2687C197.568 18.461 196.411 19.4226 196.411 19.6149C196.411 19.6149 195.64 19.9995 195.64 20.1918C195.447 20.1918 195.062 20.3841 195.062 20.3841C194.869 20.3841 194.484 20.3841 194.291 20.3841C194.291 20.3841 194.098 20.1918 193.905 19.9995C193.905 19.2302 194.098 19.0379 194.291 18.2687C194.676 18.2687 194.484 18.0764 194.869 18.0764C194.869 18.2687 194.869 18.0764 195.062 18.2687C195.062 18.461 195.062 18.461 195.062 18.6533H194.869C194.869 18.8456 194.869 18.8456 194.869 19.0379H195.062C195.062 19.0379 195.255 18.8456 195.447 18.8456C195.64 18.6533 197.76 16.5379 197.76 16.3456C197.76 16.3456 197.953 15.961 198.146 15.961C198.146 15.961 198.339 15.5764 198.531 15.5764L199.302 14.4226C199.302 14.4226 200.266 12.4995 200.459 12.4995C200.459 12.3072 200.459 12.1149 200.652 12.1149C200.652 11.9226 200.844 11.7302 200.844 11.3456C200.844 11.3456 200.844 11.3456 200.652 11.3456C200.652 11.3456 200.652 11.3456 200.652 11.1533C200.459 11.1533 199.495 11.1533 199.495 10.961C199.495 10.961 199.495 10.961 199.302 10.961C199.11 10.961 198.724 10.961 198.531 10.961C198.531 10.961 198.531 11.1533 198.146 10.961C197.953 10.961 195.833 10.7687 195.833 10.7687C195.447 10.7687 195.255 10.5764 194.869 10.5764L194.676 10.3841C194.676 10.3841 194.291 10.1918 193.905 10.1918L193.327 9.61486C193.327 9.61486 192.942 8.84563 192.749 8.84563C192.749 8.2687 192.749 7.30717 192.749 7.30717C192.749 7.11486 192.942 6.53794 192.942 6.53794C192.942 6.34563 193.134 5.7687 193.134 5.7687C193.134 5.5764 193.327 5.19178 193.327 5.19178C193.327 4.99947 193.52 4.42255 193.713 4.42255C193.713 4.42255 193.713 4.23024 193.905 4.23024C193.905 4.03794 193.905 3.84563 194.098 3.65332C193.905 3.65332 193.713 3.65332 193.327 3.65332C193.327 3.65332 192.942 3.84563 192.749 3.84563L191.207 4.23024C191.014 4.23024 190.821 4.23024 190.821 4.23024H190.629C190.243 4.23024 190.05 4.42255 189.665 4.42255C189.665 4.42255 187.93 5.7687 187.737 5.7687C187.737 5.96101 187.159 6.53794 186.581 6.53794V6.73024C186.195 6.73024 186.003 6.73024 185.617 6.73024C185.617 6.53794 185.617 6.34563 185.617 5.96101C185.81 5.96101 185.81 5.96101 186.195 5.96101V5.7687C186.388 5.7687 188.123 4.03794 188.123 4.03794C188.316 4.03794 188.894 3.65332 189.087 3.65332H189.279C189.472 3.65332 189.665 3.65332 189.665 3.65332C189.858 3.65332 192.363 2.88409 192.363 2.88409C192.556 2.88409 192.942 2.69178 192.942 2.69178C193.134 2.69178 193.327 2.49947 193.52 2.49947H193.713C193.713 2.49947 194.676 2.30717 194.869 2.30717C195.255 2.11486 195.64 1.73024 196.026 1.34563V1.15332C196.411 1.15332 196.411 1.15332 196.989 1.15332V1.53794C196.989 1.53794 197.182 1.53794 197.182 1.73024C197.182 1.92255 197.182 2.11486 197.182 2.30717C196.989 2.30717 196.989 2.49947 196.989 2.49947H196.797C196.797 2.49947 196.797 2.49947 196.797 2.69178H196.604L196.411 3.0764C196.411 3.0764 196.218 3.2687 196.218 3.46101C196.026 2.49947 195.833 2.88409 195.833 2.88409Z" fill="#4F4F4F"/>
<path fill-rule="evenodd" clip-rule="evenodd" d="M175.208 1.92345C175.401 3.46191 174.63 5.5773 175.015 6.92345C175.401 6.73114 175.401 6.53884 175.979 6.53884C175.979 6.73114 176.172 6.73114 176.172 6.73114C176.172 6.92345 176.172 6.92345 176.172 7.11576C176.172 7.11576 176.172 7.11576 176.365 7.11576C176.557 6.92345 177.907 5.96191 177.907 5.96191C178.292 5.76961 179.063 5.38499 179.449 5.38499C179.641 5.5773 180.027 5.5773 180.22 5.5773C180.22 5.96191 180.412 6.53884 180.22 6.53884C180.22 7.30807 180.22 7.88499 180.027 8.26961C180.027 8.46191 179.641 10.7696 179.641 10.7696C179.256 10.7696 179.256 11.5388 179.063 11.5388C179.063 11.7311 179.063 11.9235 178.87 11.9235C178.87 12.1158 178.87 12.6927 178.678 12.6927V13.4619C178.678 13.6542 178.678 13.8465 178.678 14.0388C178.485 14.6158 178.678 15.1927 178.678 15.7696C178.485 15.7696 178.485 15.7696 178.292 15.7696C178.292 15.7696 178.292 15.9619 178.099 15.9619C177.907 15.9619 177.714 15.9619 177.521 15.9619C177.521 15.9619 177.521 15.7696 177.328 15.7696H177.136C177.136 15.5773 177.136 15.385 177.136 15.0004C177.136 15.0004 177.136 14.4235 177.328 14.4235C177.328 14.2311 177.328 14.0388 177.521 14.0388C177.521 13.6542 177.521 12.885 177.714 12.885C177.714 12.5004 177.714 11.5388 177.907 11.5388C177.907 11.3465 177.907 10.9619 178.099 10.9619C178.099 10.9619 178.292 8.84653 178.485 8.84653C178.485 8.65422 178.485 8.0773 178.678 8.0773C178.678 7.88499 178.678 7.30807 178.87 7.30807C178.87 7.11576 178.87 6.53884 179.063 6.34653C178.87 6.34653 178.87 6.34653 178.678 6.34653C178.678 6.53884 177.328 7.50038 177.136 7.50038C176.75 7.88499 175.208 9.42345 174.823 9.42345L174.437 9.80807C174.244 10.1927 172.124 12.3081 172.124 12.3081C172.124 12.3081 171.931 12.5004 171.931 12.6927C171.546 13.2696 171.931 13.6542 170.968 13.8465C170.968 13.8465 170.968 13.8465 170.968 14.0388C170.775 14.0388 170.389 14.0388 170.197 14.0388C170.197 13.8465 170.197 13.8465 170.197 13.6542C170.197 13.6542 170.197 13.6542 170.004 13.6542C170.004 13.4619 170.004 13.4619 170.004 13.2696C170.197 13.0773 170.004 13.0773 170.197 12.885C170.389 12.885 170.389 12.6927 170.582 12.6927C170.582 12.6927 170.775 12.5004 170.775 12.3081C170.775 12.1158 170.968 11.7311 171.16 11.7311L171.546 11.1542C171.546 11.1542 172.317 10.5773 172.51 10.1927L174.823 7.88499V7.69268C175.015 7.69268 175.015 7.69268 175.208 7.30807H175.401C175.208 7.30807 174.63 7.30807 174.63 7.11576C174.63 7.11576 174.437 6.92345 174.437 6.73114C174.437 6.73114 174.052 5.96191 174.052 5.76961C174.052 5.76961 174.052 5.38499 174.052 5.19268C173.859 4.61576 174.244 2.69268 174.437 1.92345C174.437 1.73114 174.437 1.73114 174.437 1.53884C174.437 1.53884 174.437 1.53884 174.244 1.53884C174.244 1.34653 174.244 1.15422 174.437 0.961914C174.63 1.73114 174.63 1.73114 175.208 1.92345Z" fill="#4F4F4F"/>
<path fill-rule="evenodd" clip-rule="evenodd" d="M16.3844 0.576923C16.5771 0.576923 16.5771 0.576923 16.7699 0.576923C16.7699 0.576923 16.7699 0.576923 16.7699 0.769231C16.7699 0.769231 16.7699 0.769231 16.9626 0.769231C16.9626 0.961538 17.1554 1.34615 17.1554 1.34615V1.53846C17.1554 1.53846 17.3481 1.73077 17.3481 1.92308C17.3481 1.92308 17.7336 2.69231 17.7336 2.88462C17.9264 2.88462 18.1191 3.26923 17.9264 3.46154C18.1191 3.65385 18.3119 3.84615 18.5046 4.03846C18.5046 4.03846 18.6974 4.23077 18.8901 4.23077C19.0829 3.84615 19.2756 3.84615 19.2756 4.03846C19.2756 4.23077 19.2756 4.61538 19.2756 4.80769C18.8901 4.80769 19.0829 5 18.5046 5C18.5046 5 18.1191 4.80769 17.9264 4.80769C17.9264 4.61538 17.5409 4.42308 17.3481 4.42308L16.3844 3.26923C16.3844 3.07692 16.1916 2.88462 16.1916 2.88462C16.1916 2.69231 16.1916 2.69231 15.9989 2.5C15.9989 2.5 15.6134 1.73077 15.4207 1.73077C15.4207 1.34615 15.2279 1.34615 15.2279 0.961538H15.0352C15.0352 0.576923 15.0352 0.384615 15.0352 0C15.6134 0.192308 15.8061 0 16.1916 0C16.3844 0.192308 16.3844 0.384615 16.3844 0.576923Z" fill="#4F4F4F"/>
<path fill-rule="evenodd" clip-rule="evenodd" d="M58.7887 1.92323C58.9814 1.92323 58.9814 1.92323 59.1742 1.92323C59.1742 2.30784 59.1742 2.30784 58.9814 2.50015C58.9814 2.50015 58.9814 2.50015 58.7887 2.50015C58.7887 2.69246 58.5959 3.07707 58.5959 3.07707C58.5959 3.654 58.4032 3.46169 58.2104 3.8463L57.8249 4.42323C57.6322 4.61553 56.0902 6.73092 56.0902 6.73092C56.0902 6.92323 56.0902 7.11554 55.8974 7.11554C55.8974 7.30784 55.8974 7.50015 55.7047 7.69246C56.0902 7.88477 55.8974 7.69246 56.0902 8.07707C56.0902 8.07707 56.2829 8.07707 56.2829 8.26938C56.4757 8.46169 56.4757 9.03861 56.4757 9.61554H56.6684C56.6684 9.61554 57.0539 9.42323 57.2467 9.42323C57.2467 9.42323 62.6436 6.3463 62.6436 6.53861L63.2219 6.154C63.2219 6.154 63.4146 5.96169 63.6074 5.96169C63.8001 5.96169 63.9929 5.96169 64.3784 5.96169C64.5711 6.154 64.5711 6.154 64.7639 6.154C64.7639 6.53861 64.9566 6.53861 64.9566 6.73092C64.9566 6.73092 64.9566 6.73092 65.1493 6.73092C65.3421 7.11553 64.9566 7.11554 64.9566 7.50015C64.9566 7.50015 64.9566 7.88477 64.9566 8.07707V8.26938C64.9566 8.46169 64.9566 9.03861 64.9566 9.03861C64.9566 9.42323 64.9566 10.5771 64.9566 10.5771C64.9566 11.154 64.9566 12.1155 64.9566 12.1155C64.9566 12.5002 64.9566 13.2694 64.7639 13.2694C64.7639 13.654 64.7639 14.6155 64.5711 14.6155C64.5711 15.0002 64.3784 15.9617 64.3784 15.9617C64.3784 16.3463 64.1856 16.9232 64.1856 16.9232C64.1856 17.3078 63.9929 18.0771 63.8001 18.2694C63.8001 18.654 63.6074 19.4232 63.6074 19.4232L63.4146 20.1925C63.4146 20.1925 63.2219 20.5771 63.2219 20.7694C63.2219 20.7694 63.4146 20.7694 63.2219 20.9617C63.4146 20.9617 64.1856 20.9617 64.3784 20.9617C64.3784 20.9617 64.9566 20.7694 65.3421 20.7694C65.7276 20.7694 65.7276 20.5771 66.3058 20.5771C66.3058 20.5771 67.6551 20.1925 67.8478 20.1925C67.8478 20.1925 68.6188 20.0002 69.0043 20.0002C69.3898 19.8078 69.5826 19.8078 70.3535 19.8078C70.5463 20.3848 70.9318 20.1925 70.739 21.154C70.739 21.154 70.5463 21.5386 70.3535 21.7309C70.3535 21.9232 70.1608 22.6925 69.9681 22.6925C69.9681 22.8848 68.8116 25.5771 68.6188 25.5771C68.6188 25.7694 68.2333 26.3463 68.2333 26.3463V26.5386C68.6188 26.5386 68.8116 26.7309 69.0043 26.7309C69.1971 26.7309 72.6665 27.3078 72.6665 27.3078C73.2448 27.5002 73.6303 27.3078 73.823 28.0771C73.4375 28.2694 72.6665 28.0771 72.0883 28.0771C71.8955 28.2694 71.1245 27.8848 70.5463 27.8848C70.5463 27.8848 68.6188 27.6925 68.6188 27.5002C68.4261 27.5002 68.0406 27.5002 68.0406 27.3078C67.8478 27.3078 67.6551 27.3078 67.4623 27.1155C67.4623 27.3078 67.2696 27.5002 67.0768 27.5002C67.0768 27.6925 66.6913 28.0771 66.6913 28.0771C66.4986 28.2694 66.1131 28.654 66.1131 28.8463C65.9203 28.8463 65.7276 28.8463 65.5348 28.8463C65.5348 28.0771 66.1131 27.5002 66.1131 27.5002C66.1131 27.3078 66.4986 26.9232 66.3058 26.9232C66.3058 26.9232 66.3058 26.9232 66.3058 26.7309C66.1131 26.7309 65.9203 26.5386 65.9203 26.5386C65.3421 26.5386 63.6074 25.9617 63.6074 25.9617C63.2219 25.9617 62.8364 25.9617 62.4509 25.7694C62.4509 25.7694 62.4509 25.7694 62.4509 25.9617C62.8364 25.9617 62.6436 25.9617 62.8364 26.3463C62.6436 26.5386 62.8364 26.3463 62.6436 26.5386C62.2581 26.5386 62.2581 26.3463 61.8726 26.154C61.8726 26.154 61.8726 26.154 61.6799 26.154C61.4871 26.154 61.2944 26.154 60.9089 25.9617C60.9089 25.9617 60.9089 25.7694 60.7161 25.7694C60.7161 25.5771 60.7161 25.3848 60.7161 25.1925C60.9089 25.0002 60.9089 25.1925 60.9089 24.8078C61.1016 24.8078 61.1016 24.8078 61.2944 24.8078C61.2944 24.6155 61.4871 24.6155 61.6799 24.4232C61.8726 24.2309 62.8364 24.0386 63.4146 24.2309L63.8001 24.4232C63.9929 24.4232 64.5711 24.4232 64.5711 24.6155C64.7639 24.6155 65.7276 24.8078 65.7276 25.0002C65.7276 25.0002 65.9203 25.0002 65.9203 25.1925C66.1131 25.3848 66.6913 25.3848 67.0768 25.3848C67.2696 25.0002 68.2333 22.6925 68.2333 22.5002C68.2333 22.5002 68.4261 22.3078 68.4261 22.1155C68.4261 22.1155 68.6188 21.3463 68.8116 21.3463C68.8116 21.154 68.8116 20.9617 69.0043 20.7694C68.8116 20.7694 68.6188 20.5771 68.2333 20.5771C68.0406 20.7694 67.6551 20.5771 67.2696 20.7694L66.6913 20.9617C66.6913 20.9617 66.4986 20.9617 66.3058 20.9617L65.9203 21.154C65.9203 21.154 65.1494 21.3463 64.9566 21.3463C64.9566 21.3463 64.3784 21.5386 63.9929 21.5386H63.0291C62.6436 21.5386 62.6436 21.5386 62.2581 21.7309C62.2581 21.7309 62.0654 21.9232 61.8726 21.7309L61.2944 22.1155L60.9089 22.3078C60.7161 22.5002 59.5597 23.2694 59.1742 23.4617C58.9814 23.4617 58.9814 23.4617 58.7887 23.4617C58.7887 23.654 57.6322 24.4232 57.6322 24.4232L55.8974 25.7694L55.3192 26.154C55.3192 26.3463 55.1264 26.5386 54.9337 26.5386C54.9337 26.7309 52.6207 28.0771 52.428 28.0771C52.428 28.2694 52.428 28.2694 52.2352 28.4617C52.2352 28.4617 52.2352 28.654 52.2352 28.8463C52.428 28.8463 52.428 28.8463 52.6207 29.0386C52.6207 29.0386 52.6207 28.8463 52.8135 28.8463C53.0062 28.8463 53.199 28.8463 53.3917 29.0386C53.3917 29.2309 53.3917 29.4232 53.3917 29.8078C53.97 28.654 54.1627 28.8463 53.97 29.2309C53.7772 29.2309 53.7772 29.4232 53.5845 29.4232H53.3917L53.0062 29.6155L52.2352 29.4232C52.2352 29.0386 52.0425 28.654 52.0425 28.2694C51.8497 28.2694 51.657 28.2694 51.2715 28.0771C51.2715 27.5002 51.4642 27.5002 51.4642 27.1155H51.657C51.657 26.9232 51.657 26.9232 51.8497 26.7309V26.5386C51.8497 26.3463 51.8497 26.154 51.8497 25.9617L51.657 25.1925V25.0002C51.657 24.6155 51.657 23.654 51.657 23.654C51.657 23.4617 51.657 23.2694 51.8497 23.2694C52.0425 23.0771 52.6207 23.0771 53.0062 23.2694C53.0062 23.654 53.0062 23.8463 52.8135 24.2309C52.8135 24.2309 53.0062 24.2309 52.8135 24.6155V25.0002C52.8135 25.1925 52.8135 25.5771 52.8135 25.7694H53.0062C53.199 25.1925 53.5845 25.3848 53.5845 25.1925C53.7772 25.0002 54.1627 24.8078 54.3555 24.6155C54.3555 24.6155 54.9337 24.2309 55.1264 24.0386C55.1264 24.0386 55.7047 23.654 55.8974 23.654C56.0902 23.4617 57.0539 22.8848 57.4394 22.5002C57.6322 22.3078 58.7887 21.5386 58.7887 21.5386L59.1742 21.3463C59.1742 21.3463 59.7524 21.154 59.9452 20.9617C60.1379 20.7694 60.5234 20.5771 60.7161 20.5771C60.7161 20.5771 60.9089 20.3848 61.1016 20.3848L61.6799 20.0002C61.8726 20.0002 62.0654 19.8078 62.0654 19.6155C62.4509 19.4232 62.4509 19.8078 62.6436 19.2309C62.4509 19.0386 62.2581 18.4617 62.2581 18.0771C62.0654 18.0771 62.0654 18.0771 61.8726 18.0771C61.8726 17.8848 61.8726 17.6925 61.8726 17.5002C62.0654 17.5002 62.2581 17.5002 62.4509 17.5002C62.6436 17.6925 62.6436 17.8848 62.8364 17.8848C62.8364 17.6925 63.0291 17.1155 63.2219 16.9232C63.2219 16.9232 63.4146 16.154 63.4146 15.7694C63.2219 15.7694 62.4509 16.154 62.4509 16.154L61.4871 16.9232C61.4871 16.9232 60.3306 17.8848 59.9452 18.0771C59.9452 18.2694 59.1742 19.0386 58.9814 19.2309C58.9814 19.2309 58.4032 19.6155 58.2104 20.0002C58.2104 20.0002 58.0177 20.1925 57.8249 20.3848C57.8249 20.3848 57.8249 20.5771 57.6322 20.5771C57.4394 20.5771 57.2467 20.5771 56.8612 20.5771V20.3848H56.6684C56.6684 20.0002 56.8612 19.8078 56.8612 19.6155C57.0539 19.6155 57.4394 19.2309 57.6322 19.0386C57.6322 18.8463 58.0177 18.4617 58.0177 18.4617C58.0177 18.4617 58.4032 18.0771 58.4032 17.8848C58.5959 17.6925 60.5234 16.3463 60.7161 16.154C60.7161 15.9617 61.1016 15.7694 61.1016 15.7694C61.4871 15.5771 61.8726 15.1925 62.6436 15.1925C62.6436 15.1925 63.2219 15.0002 63.4146 15.0002C63.6074 14.4232 63.8001 12.8848 63.8001 12.8848C63.8001 12.8848 63.9929 11.9232 63.9929 11.3463C63.9929 11.3463 63.9929 10.0002 64.1856 9.61554C64.1856 9.61554 64.1856 9.03861 64.1856 8.8463L63.9929 7.50015C63.9929 7.11554 63.8001 6.3463 63.8001 6.3463C63.6074 6.3463 63.6074 6.3463 63.4146 6.3463L63.0291 6.53861C63.0291 6.53861 62.8364 6.73092 62.6436 6.73092L57.2467 10.0002L57.0539 10.1925C57.0539 10.1925 57.0539 10.3848 56.8612 10.3848C56.8612 11.9232 56.6684 13.2694 56.6684 14.8078C56.6684 14.8078 56.8612 16.3463 56.8612 16.9232C56.8612 16.9232 56.8612 17.5002 56.8612 17.6925C56.8612 17.6925 57.0539 18.4617 57.0539 18.654C57.0539 18.654 56.8612 18.8463 56.8612 19.0386C56.2829 19.2309 56.2829 19.0386 55.7047 18.8463C55.7047 18.4617 55.7047 17.6925 55.7047 17.5002C55.7047 17.5002 55.7047 17.1155 55.7047 16.9232C55.7047 16.9232 55.5119 16.3463 55.7047 16.3463C55.7047 16.154 55.7047 15.0002 55.8974 15.0002C56.0902 14.6155 55.8974 13.0771 56.0902 13.0771C56.0902 12.8848 56.0902 12.6925 56.0902 12.5002C56.0902 12.1155 56.0902 11.7309 56.0902 11.154C55.8974 11.154 55.1264 10.9617 55.1264 10.7694C54.9337 10.5771 54.9337 10.5771 54.9337 10.5771C54.9337 10.3848 54.9337 10.1925 54.9337 10.0002C55.1264 10.0002 55.5119 9.61554 55.5119 9.80784C55.7047 9.61554 55.8974 9.42323 56.0902 9.23092C56.0902 8.8463 56.0902 8.46169 56.0902 7.88477C55.8974 7.69246 55.7047 7.50015 55.7047 7.11554C55.5119 7.11554 55.3192 7.11553 55.1264 6.92323C54.9337 6.73092 54.9337 6.53861 54.9337 5.96169C55.1264 5.76938 55.3192 5.57707 55.5119 5.19246L55.7047 4.80784C55.8974 4.61553 57.2467 2.88477 57.4394 2.50015C57.4394 2.50015 58.2104 1.3463 58.4032 1.154C58.4032 1.154 58.5959 0.961689 58.5959 0.769381C58.5959 0.769381 58.7887 0.577073 58.7887 0.384766C58.9814 0.384766 59.1742 0.384766 59.3669 0.384766C59.3669 0.384766 59.3669 0.384766 59.3669 0.577073C59.3669 0.577073 59.3669 0.577073 59.5597 0.577073C58.7887 1.73092 58.7887 1.73092 58.7887 1.92323Z" fill="#4F4F4F"/>
<path fill-rule="evenodd" clip-rule="evenodd" d="M29.1057 3.07651C29.2985 3.65344 29.2985 3.46113 29.1057 4.23036C28.913 4.23036 28.913 4.23036 28.7202 4.23036C28.7202 4.23036 28.7202 4.23036 28.7202 4.42267C28.5275 4.42267 28.5275 4.42267 28.3347 4.42267C28.3347 4.42267 28.3347 4.61498 28.142 4.61498C27.9492 4.61498 27.5638 4.61498 27.5638 4.61498C27.371 4.61498 26.9855 4.80728 26.7928 4.80728C26.6 4.80728 26.4073 4.99959 26.4073 4.99959C26.4073 4.99959 25.6363 5.38421 25.4435 5.38421C25.4435 5.38421 25.058 5.57651 24.8653 5.57651C24.8653 5.57651 24.287 5.76882 23.9015 5.76882C23.9015 5.76882 23.3233 6.15344 23.1305 6.15344L22.7451 6.34574C22.7451 6.53805 18.3118 8.65344 18.1191 8.65344C18.5046 9.23036 17.5409 9.80728 17.1554 10.1919L16.5771 10.3842C16.3844 10.5765 16.3844 10.3842 16.1916 10.7688C16.1916 10.7688 15.0351 11.3457 15.0351 11.5381C14.8424 11.5381 14.0714 12.115 14.0714 12.3073C13.8786 12.3073 13.4931 12.6919 13.3004 12.6919L13.1076 13.0765C13.1076 13.0765 12.3367 13.6534 12.3367 13.8457L11.5657 14.4227C11.5657 14.4227 10.7947 15.1919 10.7947 15.3842L10.6019 15.5765C10.4092 15.5765 10.2164 15.5765 10.0237 15.5765C10.0237 15.5765 10.0237 15.5765 10.0237 15.7688C9.63818 15.7688 9.44543 15.7688 9.05994 15.7688C9.05994 15.5765 9.05994 15.5765 9.05994 15.3842H8.86719C8.86719 15.1919 8.86719 14.9996 8.86719 14.8073C9.05994 14.8073 9.05994 14.8073 9.25268 14.8073C9.44543 14.615 11.1802 12.8842 11.5657 12.6919C11.5657 12.6919 12.1439 12.3073 12.1439 12.115C12.3367 11.9227 13.4931 10.9611 13.6859 10.7688C13.8786 10.5765 14.0714 10.3842 14.2641 10.3842C14.2641 10.3842 14.6496 10.1919 14.6496 9.99959C14.8424 9.80728 15.2279 9.42267 15.2279 9.42267C15.2279 9.80728 15.4206 9.61497 15.4206 9.61497C15.4206 9.61497 15.8061 9.23036 15.9989 9.42267L16.5771 9.03805H16.7699L17.1554 8.84574C17.1554 8.84574 18.3118 8.07651 18.5046 7.88421C18.5046 7.88421 18.8901 7.49959 19.0828 7.49959C19.2756 7.49959 19.4683 7.30728 19.4683 7.30728L20.4321 6.92267C20.6248 6.92267 21.0103 6.73036 21.0103 6.73036C21.2031 6.73036 21.7813 6.34574 21.7813 6.34574L22.1668 6.15344C22.1668 6.15344 22.5523 5.96113 22.5523 5.76882C22.5523 5.76882 23.1305 5.57651 23.3233 5.57651C23.3233 5.57651 23.7088 5.38421 23.9015 5.38421C23.9015 5.38421 24.8653 4.99959 24.8653 4.80728C25.058 4.80728 26.0218 4.42267 26.0218 4.42267C26.2145 4.42267 26.2145 4.42267 26.4073 4.42267C26.4073 4.42267 26.9855 4.03805 27.1783 4.03805C27.1783 4.03805 27.9492 3.84574 28.142 3.65344C28.142 3.65344 28.142 3.46113 28.3347 3.46113C28.5275 3.26882 28.7202 3.46113 29.1057 3.46113C29.1057 3.46113 29.1057 3.46113 29.1057 3.26882C28.7202 2.88421 28.913 2.88421 29.1057 3.07651Z" fill="#4F4F4F"/>
<path d="M113.336 4.03839C113.336 3.84608 113.336 3.65377 113.336 3.46146C113.144 3.46146 113.144 3.46146 112.951 3.26916C112.951 3.07685 112.565 2.88454 112.373 2.88454C112.373 2.88454 111.409 2.69223 111.409 2.49992H111.216C111.216 2.49992 110.831 2.30762 110.445 2.30762H110.253C109.867 2.30762 109.674 2.30762 109.289 2.30762L109.096 2.49992L108.711 2.69223C108.518 2.88454 108.518 2.88454 108.325 3.07685C108.132 3.07685 106.976 4.23069 106.976 4.23069C106.976 4.23069 106.783 4.423 106.59 4.423C106.59 4.423 105.048 5.57685 104.856 5.96146C104.856 5.96146 104.47 6.15377 104.277 6.15377C104.277 6.15377 102.928 7.11531 102.543 7.49993C102.35 7.69223 102.157 7.88454 101.964 7.88454C101.772 8.07685 101.579 8.46146 101.193 8.65377H101.001C101.001 8.26916 100.808 6.923 100.615 6.73069C100.615 6.53839 100.422 6.53839 100.23 6.34608C99.8441 6.34608 100.037 6.53839 99.6514 6.53839C99.6514 6.73069 99.6514 7.11531 99.6514 7.30762C99.8441 7.30762 99.6514 8.46146 99.6514 8.84608C99.6514 8.84608 99.6514 10.1922 99.6514 10.9615C99.6514 10.9615 100.037 12.4999 100.037 13.2692C100.037 13.2692 100.23 13.6538 100.23 14.0384L100.422 14.6153C100.422 14.8076 100.808 15.5768 100.808 15.5768V15.7692C100.808 15.9615 100.808 16.3461 100.808 16.3461C100.808 16.5384 101.579 17.6922 101.579 17.6922C101.772 17.8845 101.772 18.0768 101.772 18.4615C102.157 18.4615 102.35 18.6538 102.928 18.6538C102.735 18.8461 102.35 19.0384 102.157 19.423C101.964 19.423 101.964 19.423 101.772 19.423V19.6153C101.579 19.6153 101.579 19.6153 101.386 19.6153C101.386 19.8076 101.386 19.9999 101.193 20.3845C101.386 20.3845 101.772 20.5768 102.157 20.5768V20.3845C102.35 20.3845 102.157 20.3845 102.35 20.5768C102.735 20.5768 102.928 20.3845 103.121 20.3845C103.314 20.3845 103.699 19.9999 103.699 19.8076C104.085 19.8076 107.554 16.923 107.554 16.923H107.747C107.747 17.4999 107.554 17.8845 107.554 18.4615C107.747 18.4615 107.747 18.4615 107.94 18.6538C107.94 18.6538 108.518 18.6538 108.903 18.6538V18.4615L109.096 17.8845C109.096 17.6922 109.674 17.1153 109.867 16.7307C109.867 16.5384 110.06 15.7692 110.253 15.5768C110.253 15.5768 110.445 15.1922 110.445 14.9999C110.445 14.9999 110.638 14.8076 110.638 14.6153C110.638 14.6153 110.831 13.6538 111.023 13.6538C111.023 13.4615 111.024 13.4615 111.216 13.2692L111.602 12.3076C111.602 12.3076 111.987 11.1538 111.987 10.9615C111.987 10.9615 112.18 10.5768 112.18 10.1922C112.18 10.1922 112.373 8.84608 112.373 8.46146C112.373 8.46146 112.565 6.923 112.565 6.53839C112.565 6.53839 112.565 6.15377 112.565 5.96146C112.565 5.96146 112.758 5.38454 112.758 4.99992V4.61531C112.758 4.23069 112.758 3.46146 112.758 3.46146C113.529 4.23069 113.336 4.03839 113.336 4.03839ZM111.794 9.61531C111.794 9.61531 111.794 10.1922 111.794 10.5768C111.794 10.5768 111.602 10.7692 111.602 10.9615L111.409 11.923L111.023 12.8845C111.023 12.8845 110.831 13.4615 110.831 13.6538C110.638 13.8461 110.445 14.0384 110.253 14.2307C110.06 14.2307 109.482 14.8076 109.482 14.9999L107.554 16.5384C107.554 16.5384 105.241 18.0768 105.241 18.2692C105.048 18.4615 104.856 18.4615 104.663 18.8461C104.663 18.8461 104.663 18.8461 104.47 18.8461C104.47 18.2692 104.663 17.6922 104.663 17.1153C104.47 17.1153 104.277 17.1153 104.085 17.1153C104.085 17.3076 104.085 17.4999 103.892 17.8845C103.892 17.8845 103.892 17.8845 103.699 17.8845C103.699 17.8845 103.699 17.8845 103.699 18.0768C103.699 18.0768 103.699 18.0768 103.506 18.0768C103.506 17.8845 103.314 17.6922 103.314 17.4999L102.928 16.5384C102.735 16.1538 103.121 16.1538 102.735 15.7692C102.735 15.5768 102.735 15.5768 102.735 15.3845C102.735 15.3845 103.892 14.8076 104.085 14.8076V14.6153C104.085 14.6153 104.277 14.423 104.085 14.0384C104.085 14.0384 107.361 10.9615 107.361 10.7692C107.554 10.5768 107.747 10.7692 107.94 10.1922C108.132 10.1922 107.94 10.1922 108.132 10.3845C108.711 10.3845 108.903 9.99992 109.482 9.99992C109.482 9.61531 109.482 9.61531 109.482 9.23069C109.289 9.23069 108.711 8.84608 108.518 8.84608C108.132 8.65377 107.169 9.423 106.976 9.423C106.976 9.61531 105.048 11.1538 104.856 11.5384C104.856 11.5384 103.121 13.0768 103.121 13.4615L102.928 13.6538C102.735 13.6538 102.735 13.8461 102.35 13.8461C102.35 14.0384 102.35 14.0384 102.35 14.2307H102.157C102.543 13.4615 102.35 12.8845 102.157 12.3076C102.157 12.3076 101.964 11.923 102.157 11.923C102.157 11.7307 101.964 11.3461 101.964 11.1538C101.964 10.7692 101.964 10.3845 101.964 9.99992C102.35 9.99992 102.35 9.99992 102.735 9.99992V10.1922C102.928 10.1922 102.735 10.1922 102.928 10.3845C103.314 10.3845 103.506 9.99993 103.506 10.1922C103.506 9.99993 103.506 9.80762 103.506 9.61531C103.121 9.61531 103.121 9.61531 102.928 9.23069C103.121 9.03839 108.325 4.99992 108.518 4.80762C108.518 4.80762 109.096 4.423 109.096 4.23069C109.289 4.23069 109.674 3.84608 109.674 3.84608C109.674 4.03839 109.867 4.03839 110.253 3.84608C110.638 3.84608 111.024 3.84608 111.409 4.03839C111.409 4.03839 111.602 4.23069 111.794 4.23069C111.794 4.23069 111.794 4.23069 111.987 4.423C111.987 5.76916 111.987 9.03839 111.794 9.61531Z" fill="#4F4F4F"/>
<path fill-rule="evenodd" clip-rule="evenodd" d="M189.472 33.8464C189.472 33.8464 189.472 35.0002 189.279 35.0002C189.279 35.1925 189.279 35.3848 189.279 35.3848C189.279 35.5771 189.279 35.9618 189.086 35.9618C189.086 36.731 189.086 37.5002 188.893 38.2695C188.893 38.2695 188.701 38.4618 188.701 38.6541L188.508 38.8464C188.508 38.8464 188.315 39.231 188.315 39.4233C188.315 39.4233 188.315 39.4233 188.122 39.4233V39.6156C188.122 39.6156 188.122 39.6156 187.93 39.6156C187.93 39.8079 187.93 40.1925 187.93 40.1925C187.93 40.3848 187.93 40.5772 187.737 40.5772C187.544 41.1541 187.93 41.731 187.159 41.731C186.966 41.5387 187.159 41.731 186.966 41.5387C186.966 41.3464 186.966 41.1541 186.966 40.9618C186.966 40.9618 186.966 40.5771 186.966 40.3848V40.1925C186.966 39.6156 187.159 38.4618 187.159 38.4618C187.159 38.2695 187.159 37.8848 187.351 37.8848C187.351 37.5002 187.351 37.1156 187.351 36.731L187.544 36.1541C187.544 35.9618 187.544 35.5771 187.737 35.3848C187.737 35.1925 187.737 34.6156 187.737 34.6156C187.737 34.4233 187.737 34.231 187.737 34.0387C187.737 34.0387 187.737 29.4233 187.93 28.6541C187.93 28.2695 187.93 27.8848 187.93 27.3079V26.731C187.93 26.5387 187.93 26.3464 187.93 26.3464C187.93 25.9618 187.93 25.5772 187.93 25.1925C187.93 25.1925 187.93 25.0002 187.93 24.8079C187.93 24.6156 187.93 24.4233 187.93 24.4233C187.93 24.4233 187.93 24.4233 187.93 24.231C187.93 24.231 187.737 23.6541 187.93 23.4618C187.93 23.0771 187.93 22.3079 187.93 22.3079V21.731C187.93 21.1541 187.93 20.1925 187.93 20.1925C187.93 19.6156 187.93 19.0387 188.122 18.2695C188.122 18.2695 188.122 18.0771 188.122 17.8848C188.122 17.6925 188.122 17.3079 188.122 17.1156C188.122 17.1156 188.122 16.9233 188.122 16.731V16.1541C188.122 15.7695 188.122 15.3848 188.122 15.0002V14.6156C188.122 14.4233 188.122 14.231 188.122 14.0387C188.122 14.0387 188.122 13.2695 188.122 12.8848C187.93 12.1156 188.122 10.7695 188.122 9.80792C187.93 9.80792 187.737 9.80792 187.351 9.80792V9.61561H187.159C187.159 9.4233 187.159 9.23099 187.159 8.84638C187.737 8.46176 188.122 8.07715 189.086 8.07715C189.086 8.26946 189.279 8.26946 189.279 8.26946V8.46176C189.279 8.46176 189.472 8.46176 189.472 8.65407C189.472 9.231 189.472 9.61561 189.472 10.1925C189.279 10.3848 189.279 11.731 189.279 12.1156C189.279 12.5002 189.279 13.0771 189.279 13.0771C189.279 13.2695 189.279 13.4618 189.279 13.6541C189.279 13.8464 189.279 14.231 189.279 14.231C189.279 14.8079 189.279 15.1925 189.279 15.7695V15.9618C189.279 16.731 189.279 17.5002 189.279 18.2695C189.279 18.2695 189.279 18.8464 189.279 19.231C189.279 19.4233 189.279 20.7695 189.279 20.9618V21.3464C189.086 21.9233 189.279 24.4233 189.279 24.4233C189.279 24.8079 189.279 25.0002 189.279 25.3848C189.279 25.3848 189.279 25.7695 189.279 25.9618V27.3079C189.279 27.6925 189.279 28.2695 189.086 28.2695C189.086 28.4618 189.086 28.6541 189.086 28.8464C189.472 29.6156 189.472 33.4618 189.472 33.8464Z" fill="#4F4F4F"/>
<path fill-rule="evenodd" clip-rule="evenodd" d="M42.7899 8.65317C43.3682 8.65317 43.3682 8.84548 43.5609 8.84548C43.7537 8.84548 44.3319 8.84548 44.3319 9.03778C44.5246 9.03778 44.9101 9.03779 44.9101 9.23009C45.1029 9.23009 45.6811 9.23009 45.6811 9.4224C45.8739 9.4224 46.0666 9.4224 46.0666 9.61471C46.2594 9.4224 46.2594 9.03779 46.4521 9.61471C46.6449 9.80702 46.6449 10.1916 46.4521 10.5762C46.2594 10.5762 46.2594 10.5762 46.0666 10.5762C46.0666 10.5762 45.8739 10.3839 45.6811 10.3839C45.6811 10.3839 44.1391 10.1916 44.1391 9.99932C43.9464 9.99932 43.7537 9.99932 43.7537 9.80702C43.5609 9.80702 42.9827 9.80702 42.9827 9.61471C42.7899 9.61471 42.7899 9.61471 42.5972 9.61471C42.4044 9.61471 41.8262 9.23009 41.8262 9.23009C41.8262 9.03779 41.8262 8.84548 41.8262 8.65317C42.0189 8.65317 42.0189 8.46086 42.2117 8.26855C42.5972 8.65317 42.7899 8.65317 42.7899 8.65317Z" fill="#4F4F4F"/>
<path fill-rule="evenodd" clip-rule="evenodd" d="M8.09542 9.42345L6.93893 10.385C6.74618 10.385 5.2042 11.5388 5.2042 11.7311C5.01145 11.7311 5.01145 11.9235 4.62595 11.9235C4.62595 11.9235 4.24046 12.3081 3.85496 12.3081C3.85496 12.3081 2.89122 13.0773 2.69847 13.2696L2.50572 13.4619L1.92748 14.0388C1.34924 14.2311 0.96374 14.6158 0.385496 14.6158C0.192748 14.4235 0 14.2311 0 13.8465C0.192748 13.6542 0.192748 13.4619 0.578244 13.4619C0.578244 13.4619 1.54198 12.885 1.73473 12.5004C1.73473 12.5004 1.73473 12.5004 1.92748 12.5004V12.3081C1.92748 12.3081 1.92748 12.3081 1.92748 12.1158C2.12023 12.1158 2.31298 11.7311 2.31298 11.7311C2.50573 11.5388 2.50572 11.7311 2.69847 11.5388C2.69847 11.5388 2.89122 11.3465 3.08397 11.3465C3.08397 11.3465 4.43321 10.385 4.8187 10.1927L5.01145 10.0004C5.2042 9.80807 5.2042 9.80807 5.39695 9.61576C5.39695 9.61576 5.39695 9.42345 5.58969 9.42345C5.39695 9.61576 5.78244 9.42345 5.78244 9.42345C5.78244 9.42345 6.16794 9.03884 6.36069 9.23115C6.55343 9.03884 6.55343 9.03884 6.74618 8.84653C6.93893 8.84653 6.93893 8.84653 7.13168 8.84653C7.13168 8.84653 7.13168 8.84653 7.32443 8.84653V8.65422C7.70992 8.65422 7.90267 8.46191 8.28817 8.46191C8.48092 8.65422 8.48092 8.46191 8.67366 8.65422C8.86641 8.84653 8.67366 9.23115 8.67366 9.42345C8.28817 9.42345 8.09542 9.42345 8.09542 9.42345Z" fill="#4F4F4F"/>
<path fill-rule="evenodd" clip-rule="evenodd" d="M62.6433 10.3843C62.6433 10.5766 62.2578 10.7689 62.2578 10.7689C62.065 10.9612 60.9085 11.7305 60.9085 11.7305C60.7158 11.7305 60.523 11.9228 60.523 11.9228C60.3303 11.9228 59.7521 12.692 59.1738 12.8843C59.1738 12.8843 58.2101 13.4612 58.2101 13.6535C58.2101 13.6535 58.2101 13.8459 58.0173 13.8459C58.0173 13.8459 58.2101 14.0382 58.0173 14.2305H57.8246C57.6318 14.2305 57.4391 14.2305 57.2463 14.2305C57.2463 14.2305 57.2463 14.0382 57.0536 14.0382C56.8608 14.0382 56.8608 14.0382 56.8608 14.2305C56.4753 14.2305 56.4753 14.2305 56.0898 14.0382C56.0898 13.8459 56.0898 13.6535 56.0898 13.4612C56.0898 13.4612 56.2826 13.2689 56.2826 13.0766C56.6681 12.8843 56.8608 12.8843 57.2463 12.8843C57.2463 12.692 57.6318 12.4997 58.0173 12.3074C58.0173 12.3074 58.5956 11.5382 58.7883 11.5382C58.7883 11.5382 59.3666 11.1535 59.3666 10.9612C59.5593 10.7689 59.5593 10.7689 59.7521 10.7689C59.7521 10.7689 60.523 10.192 60.7158 9.9997C60.7158 9.9997 60.9085 9.80739 61.1013 9.80739C61.1013 9.80739 61.294 9.61508 61.294 9.42278C61.4868 9.42278 61.6795 9.23047 61.6795 9.23047C61.8723 9.23047 62.065 9.23047 62.4505 9.23047C62.6433 9.42278 62.6433 9.61508 62.6433 9.9997C62.836 10.192 62.836 10.3843 62.6433 10.3843Z" fill="#4F4F4F"/>
<path fill-rule="evenodd" clip-rule="evenodd" d="M175.786 12.3076C175.979 12.3076 176.365 12.3076 176.557 12.3076C176.557 12.4999 176.557 12.4999 176.557 12.6922C176.75 12.8845 176.75 13.0768 176.557 13.6538C176.365 13.6538 176.365 13.8461 175.979 13.8461C175.979 14.0384 175.979 14.0384 175.594 14.2307C175.594 14.423 173.666 16.1538 173.666 16.3461C174.052 16.3461 174.437 16.7307 174.437 17.1153C174.244 17.3076 174.244 17.3076 174.244 17.4999C174.244 17.4999 174.244 17.4999 174.052 17.4999C173.859 18.0768 173.859 18.8461 173.666 19.423C173.666 19.423 173.666 19.6153 173.666 19.8076C173.666 19.8076 173.859 19.8076 173.859 19.6153C174.052 19.423 174.052 19.423 174.052 19.2307C174.437 18.8461 175.208 18.0768 175.401 17.6922C175.979 17.4999 176.365 17.3076 176.365 17.3076C176.557 17.3076 176.557 17.3076 176.75 17.1153C176.943 16.923 176.943 16.7307 177.136 16.5384C177.136 16.5384 177.521 16.3461 177.714 16.1538C177.714 16.1538 177.714 16.1538 177.714 15.9615C177.907 15.7692 178.485 15.9615 178.678 16.1538C178.87 16.3461 178.87 16.3461 178.87 16.7307C178.87 16.7307 178.87 16.7307 178.678 16.7307C178.678 16.923 178.485 17.1153 178.292 17.1153C178.292 17.1153 178.099 17.4999 177.907 17.4999C177.714 17.6922 174.63 20.9615 174.63 20.9615C174.437 21.1538 174.052 21.7307 174.052 21.7307C174.052 22.1153 174.052 22.3076 173.859 22.6922C173.859 22.6922 173.859 22.6922 173.859 22.8845C173.859 23.0768 173.859 23.2692 173.859 23.4615C173.859 23.4615 173.859 23.4615 174.052 23.4615C174.052 23.6538 174.052 24.0384 174.052 24.0384C174.052 24.2307 174.052 24.6153 174.052 24.8076C174.052 24.8076 174.052 25.3845 174.052 25.5768V26.1538C174.052 26.3461 174.052 26.5384 174.052 26.923C174.052 26.923 173.859 27.8845 174.052 28.4615C174.052 28.4615 174.052 28.4615 174.244 28.4615C174.244 28.4615 174.244 28.4615 174.244 28.2692C174.244 28.2692 174.244 28.2692 174.437 28.2692C174.437 28.0768 174.63 27.8845 174.63 27.8845C174.63 27.6922 174.823 27.3076 175.015 27.3076L177.136 23.8461L177.714 22.6922C177.714 22.4999 177.714 22.3076 177.714 22.1153C177.714 22.1153 177.714 22.1153 177.521 22.1153C177.521 21.923 177.521 21.5384 177.714 21.3461H177.907V21.1538C178.87 21.1538 179.063 21.5384 179.641 21.923C179.834 21.923 180.22 22.3076 180.412 22.3076C180.412 22.3076 181.376 22.8845 181.376 23.0768L182.533 23.8461C182.725 23.8461 183.304 24.423 183.304 24.423C183.304 24.423 183.496 24.6153 183.689 24.6153C183.689 24.6153 184.267 24.9999 184.46 24.9999C184.46 24.9999 184.653 24.9999 184.653 25.1922C184.846 25.3845 184.653 25.7692 184.653 25.9615C184.46 26.1538 184.075 26.3461 183.689 26.1538C183.689 26.1538 183.496 25.9615 183.304 25.9615C183.304 25.7692 182.918 25.5768 182.918 25.5768C182.918 25.5768 182.34 25.1922 182.147 24.9999C182.147 24.9999 181.183 24.423 181.183 24.2307C180.798 24.0384 179.834 23.2692 179.834 23.2692C179.834 23.2692 179.641 23.0768 179.449 23.0768C179.256 23.0768 179.063 23.0768 178.87 22.8845C178.87 23.2692 178.678 23.4615 178.485 23.8461C178.485 23.8461 177.328 25.5768 177.328 25.7692C177.328 25.9615 175.786 28.2692 175.786 28.4615L175.401 29.423C175.208 29.6153 174.823 29.9999 174.63 30.1922C174.63 30.1922 174.63 30.1922 174.63 30.3845L174.437 30.5768C174.052 30.5768 173.859 30.7692 173.281 30.7692C173.088 30.3845 172.895 30.3845 172.702 29.9999C173.088 29.6153 172.702 29.0384 172.895 28.4615C172.895 28.4615 173.088 27.3076 173.088 26.7307V26.5384C173.088 26.5384 173.088 25.5768 173.088 25.1922C172.895 24.6153 173.088 23.8461 173.088 23.0768C172.702 23.0768 172.702 23.2692 172.702 23.6538C172.317 23.6538 172.124 23.6538 171.739 23.6538V23.4615H171.546C171.546 22.8845 172.124 22.3076 172.317 22.3076C172.317 22.3076 172.317 21.923 172.51 21.923C172.702 21.7307 173.088 21.3461 173.088 21.3461C173.281 21.1538 173.281 20.9615 173.281 20.5768C173.473 20.3845 173.666 17.3076 173.666 16.923C173.666 16.923 173.666 16.923 173.473 16.923C173.473 16.923 173.473 16.923 173.473 17.1153C173.088 17.3076 173.281 17.4999 172.895 17.6922C173.088 18.0768 173.088 17.6922 173.088 18.4615C172.895 18.4615 172.702 18.4615 172.51 18.4615C172.51 18.4615 172.51 18.2692 172.317 18.2692C172.317 18.2692 172.317 18.4615 172.124 18.4615C171.931 18.4615 171.546 18.4615 171.353 18.2692C171.353 18.0768 171.16 17.6922 171.353 17.4999C171.353 17.4999 171.353 17.4999 171.546 17.4999C171.739 17.3076 171.739 17.3076 171.931 16.923C171.931 16.923 172.51 16.1538 172.702 15.9615C172.702 15.9615 172.702 15.7692 172.895 15.7692C173.088 15.5768 172.895 15.5768 173.281 15.5768C173.281 15.3845 174.63 13.8461 174.823 13.8461C175.015 13.6538 175.015 13.4615 175.208 13.2692C174.437 13.8461 175.594 12.6922 175.786 12.3076Z" fill="#4F4F4F"/>
<path fill-rule="evenodd" clip-rule="evenodd" d="M63.0288 12.8841C62.6433 13.0764 62.6433 13.2687 62.4506 13.461C62.2578 13.6533 61.8723 13.8457 61.4868 13.8457C61.4868 13.8457 59.1739 16.1533 58.9811 16.1533C58.7884 16.7303 58.7884 16.538 58.2101 16.7303C58.0174 16.7303 57.8246 16.7303 57.6319 16.7303C57.4391 16.3457 57.4391 16.538 57.6319 15.961C57.8246 15.961 58.0174 15.961 58.2101 15.961C58.2101 15.7687 58.2101 15.7687 58.5956 15.5764C58.5956 15.1918 58.7884 15.1918 58.7884 14.8072L61.1013 12.8841L61.6796 12.4995C62.0651 12.3072 62.2578 12.1149 63.0288 12.3072C63.0288 12.3072 63.0288 12.4995 63.0288 12.8841Z" fill="#4F4F4F"/>
<path fill-rule="evenodd" clip-rule="evenodd" d="M113.529 20.1919C113.529 20.3842 113.336 20.5765 113.336 20.5765C113.336 20.7689 112.758 21.9227 112.565 21.9227C112.565 22.3073 111.409 24.0381 111.409 24.2304C111.409 24.4227 111.023 24.615 111.023 24.8073C111.216 24.8073 111.216 24.8073 111.409 24.8073C111.601 24.615 112.95 23.8458 112.95 23.6535L113.914 23.2689C113.914 23.2689 115.263 22.6919 115.456 22.6919C115.649 22.4996 118.54 21.3458 118.54 21.3458C118.54 21.3458 118.733 21.1535 118.926 21.1535H119.118C119.118 21.1535 119.118 21.1535 119.118 20.9612C119.697 20.9612 120.082 20.9612 120.66 20.9612C120.853 21.1535 120.853 21.3458 120.853 21.7304C120.66 21.9227 120.66 21.9227 120.66 22.115C120.275 22.115 119.889 22.115 119.504 22.115C119.504 22.115 114.685 24.4227 114.492 24.4227C114.492 24.4227 111.601 26.1535 111.409 26.3458C111.409 26.3458 111.216 26.3458 111.023 26.3458C111.023 26.3458 109.867 26.9227 109.481 27.3073C109.288 27.4996 108.903 27.8842 108.71 27.8842C108.71 28.0765 108.325 28.2689 108.325 28.2689C108.325 28.4612 108.325 28.4612 108.325 28.6535H108.132C108.325 28.6535 108.517 28.6535 108.71 28.6535C109.096 28.2689 109.481 28.4612 109.867 28.6535C110.059 28.8458 110.059 29.0381 110.059 29.4227L109.867 31.1535C109.867 31.5381 109.867 31.7304 109.867 32.115C109.867 32.115 109.867 32.4996 109.867 32.8842C109.867 32.8842 109.867 33.2689 109.867 33.4612L110.059 35.3842C110.059 35.7689 110.059 35.9612 110.059 36.3458C110.445 36.5381 110.638 36.7304 110.638 36.9227C110.83 36.9227 111.601 37.115 111.601 37.3073C112.372 37.3073 112.95 37.3073 113.721 37.4996C113.721 37.4996 115.842 37.6919 116.227 37.6919C116.227 37.6919 117.576 37.4996 117.769 37.4996C120.275 37.3073 121.431 36.5381 122.01 36.5381C122.01 36.5381 122.395 36.3458 122.588 36.3458C122.588 36.1535 124.13 35.7689 124.13 35.7689C124.13 35.7689 124.323 35.5765 124.515 35.5765L125.094 35.1919C125.286 34.9996 125.286 35.1919 125.479 34.9996L125.672 34.8073C125.672 34.615 126.443 33.6535 126.636 33.4612C126.636 33.0765 126.636 32.8842 126.636 32.4996C126.636 32.4996 126.636 32.115 126.636 31.9227C126.443 31.5381 126.443 31.1535 126.443 30.5765C126.443 30.5765 126.25 29.9996 126.25 29.8073L126.057 29.2304C126.057 29.0381 126.057 28.8458 126.25 28.6535C126.25 28.6535 126.25 28.2689 126.25 28.0765C126.25 28.0765 126.057 27.4996 126.057 27.3073C126.057 27.115 126.057 26.9227 126.057 26.7304C126.057 26.7304 125.865 26.7304 125.865 26.5381C125.672 26.3458 125.865 26.1535 125.865 25.7689C126.057 25.7689 126.25 25.7689 126.443 25.9612C126.443 26.1535 126.443 26.3458 126.443 26.5381H126.636C127.021 27.8842 127.599 29.2304 127.985 30.5765C127.985 30.5765 128.178 30.9612 128.178 31.1535C128.178 31.1535 128.178 31.3458 128.178 31.5381C128.178 31.5381 128.178 31.9227 128.178 32.3073C128.178 32.3073 128.178 32.6919 128.178 32.8842C128.37 32.8842 128.37 33.0765 128.563 33.0765C128.563 33.2689 128.563 33.6535 128.37 33.8458C128.178 33.8458 127.214 35.1919 127.214 35.1919C127.214 35.1919 127.214 35.3842 126.828 35.5765C126.828 35.7689 125.094 36.9227 124.901 36.9227C124.901 36.9227 124.323 37.115 124.13 37.115C124.13 37.115 123.744 37.3073 123.552 37.3073C123.552 37.3073 123.359 37.4996 123.166 37.4996L122.01 37.8842C122.01 37.8842 121.817 38.0765 121.817 37.8842C121.817 37.8842 118.926 38.2689 118.733 38.2689C118.733 38.2689 118.54 38.2689 118.347 38.2689C118.347 38.2689 116.998 38.4612 116.805 38.4612H115.649C115.456 38.4612 114.878 38.4612 114.685 38.4612C114.107 38.4612 113.529 38.4612 112.95 38.2689H112.758C112.372 38.2689 112.18 38.2689 111.794 38.0765C111.794 38.0765 110.059 37.3073 109.674 37.3073C109.674 37.115 109.674 36.9227 109.674 36.7304C109.674 36.7304 109.481 35.9612 109.481 35.7689L109.096 33.0765C109.096 32.8842 109.096 32.3073 109.096 32.3073C109.096 31.7304 108.903 30.7689 109.096 30.7689C109.096 30.5765 109.096 30.1919 109.288 30.1919C109.288 29.9996 109.288 29.8073 109.481 29.615C109.096 29.615 108.903 29.4227 108.517 29.4227C108.517 29.2304 108.517 29.2304 108.132 29.0381C108.132 29.0381 107.939 29.2304 107.746 29.2304C107.554 29.615 107.554 29.2304 107.361 29.615C107.361 29.615 107.361 29.8073 107.168 29.8073C107.168 29.9996 106.975 30.5765 106.975 30.5765C106.975 30.7689 106.975 31.3458 106.783 31.3458C106.783 31.5381 106.59 31.7304 106.59 31.7304C106.59 31.9227 106.397 32.8842 106.204 32.8842C106.204 33.0765 104.47 37.115 104.47 37.115C104.277 38.0765 103.506 38.8458 103.313 39.9996C103.12 39.9996 103.12 39.9996 102.928 40.3842C102.735 40.3842 102.542 40.3842 102.349 40.3842L102.157 40.1919V39.9996C102.157 39.9996 102.157 39.9996 101.964 39.9996C101.964 39.615 102.157 39.615 102.157 39.615C102.157 39.4227 102.157 39.0381 102.349 39.0381C102.349 38.8458 102.349 38.6535 102.542 38.2689C102.542 38.2689 102.735 37.6919 102.928 37.6919C102.928 37.4996 104.47 34.0381 104.47 34.0381C104.47 33.8458 104.855 32.8842 104.855 32.8842C104.855 32.4996 105.241 31.7304 105.241 31.7304C105.241 31.5381 105.241 31.1535 105.433 31.1535C105.433 30.9612 105.433 30.7689 105.626 30.3842C105.626 30.3842 104.662 30.7689 104.662 30.5765C104.662 30.3842 103.891 31.1535 103.699 31.3458C103.699 31.3458 103.313 31.5381 103.12 31.7304L102.157 32.4996L99.0726 35.1919C98.6871 35.3842 98.1089 35.7689 98.1089 35.9612C97.7234 35.9612 97.7234 35.7689 97.3379 35.7689C97.3379 35.5765 97.3379 35.1919 97.3379 34.9996C97.5306 34.9996 97.5306 34.8073 97.7234 34.8073C97.7234 34.8073 97.9161 34.615 98.1089 34.4227L98.4944 34.2304C98.6871 34.2304 99.6509 33.2689 99.8436 33.0765C99.8436 32.8842 101.771 31.5381 101.964 31.3458C101.964 31.3458 103.506 30.1919 103.506 29.9996C103.699 29.8073 105.819 28.0765 105.819 28.0765C106.012 28.0765 106.59 27.8842 106.59 27.6919C106.59 27.4996 106.783 27.3073 106.975 27.3073L107.554 26.9227C107.554 26.9227 108.903 26.3458 109.096 26.3458C109.096 26.1535 109.674 25.9612 109.674 25.9612C109.867 25.7689 109.867 25.7689 110.059 25.7689C110.059 25.5765 110.445 24.9996 110.445 24.9996C110.638 24.8073 110.83 24.2304 111.023 23.8458C111.023 23.8458 111.794 22.4996 111.794 22.3073C111.987 22.115 112.372 21.7304 112.372 21.5381L112.758 20.7689L112.95 20.5765C112.95 20.5765 113.336 20.1919 113.336 19.9996C113.336 19.8073 113.721 19.4227 113.721 19.2304C113.914 18.8458 113.914 18.6535 114.107 18.2689C114.107 18.2689 114.685 16.9227 114.685 16.7304C114.685 16.7304 114.878 16.5381 114.878 16.3458C114.878 16.3458 115.071 15.7689 115.071 15.5765L115.263 15.3842C115.263 15.3842 115.263 15.3842 115.456 15.3842C115.456 14.9996 115.456 14.615 115.456 14.2304C115.456 14.2304 115.456 14.2304 115.649 14.2304V14.0381C115.842 14.0381 116.227 14.0381 116.613 14.0381C116.613 14.2304 116.613 14.2304 116.613 14.4227C116.805 14.615 116.805 14.9996 116.613 15.3842C116.613 15.5765 116.42 15.9612 116.42 15.9612C116.42 16.1535 116.227 16.7304 116.227 16.7304C116.227 16.9227 116.034 17.4996 115.842 17.4996L115.456 18.4612C115.456 18.6535 115.071 19.2304 115.071 19.2304C113.721 19.615 113.721 19.9996 113.529 20.1919Z" fill="#4F4F4F"/>
<path d="M32.3824 9.03778C32.1897 8.84548 31.8042 8.84548 31.6114 8.84548C31.4187 8.84548 31.6114 8.84548 31.4187 8.84548C31.2259 8.84548 30.8404 8.84548 30.8404 8.84548H30.6477C30.2622 8.84548 29.684 8.84548 29.2985 8.84548C29.2985 9.03778 29.2985 9.23009 29.2985 9.4224C29.4912 9.4224 29.684 9.4224 29.8767 9.4224C29.684 9.4224 29.4912 9.4224 29.2985 9.4224C29.2985 9.4224 29.2985 9.4224 29.2985 9.61471H29.1057C29.1057 9.61471 28.913 9.80702 28.7202 9.80702C28.5275 9.80702 26.4072 10.7686 26.4072 10.7686C26.4072 10.7686 25.6362 11.1532 25.4435 11.1532C25.4435 10.3839 25.6362 9.03778 25.2507 8.65317C25.058 8.46086 24.4798 8.26855 24.0943 8.26855H23.9015C23.7088 8.26855 23.1305 8.46086 23.1305 8.46086C22.745 8.65317 22.745 8.84548 22.5523 9.03778C22.5523 9.4224 22.745 9.61471 22.745 9.80702C22.9378 9.80702 23.1305 9.80702 23.3233 9.80702C23.3233 9.61471 23.3233 9.4224 23.516 9.23009C23.7088 9.23009 23.9015 9.03779 23.9015 9.23009C23.9015 9.23009 23.9015 9.23009 23.9015 9.4224C24.0943 9.4224 24.0943 9.4224 24.287 9.4224C24.287 10.1916 24.4798 11.1532 24.4798 11.9224C23.9015 11.9224 23.516 12.307 23.1305 12.4993C23.1305 12.4993 22.9378 12.6916 22.745 12.6916C22.5523 12.6916 20.2393 14.2301 20.0465 14.4224C20.0465 14.4224 19.4683 14.807 19.4683 14.9993C19.2756 14.9993 18.5046 15.5762 18.3118 15.7686C18.1191 15.7686 17.1553 16.5378 17.1553 16.7301C17.1553 16.7301 17.1553 16.7301 16.9626 16.7301C16.9626 16.1532 16.9626 15.3839 16.9626 14.807C16.3843 14.807 16.3843 14.6147 15.6133 14.6147C15.6133 14.807 15.4206 15.1916 15.4206 15.3839L15.6133 15.7686C15.6133 16.3455 15.6133 16.7301 15.6133 17.307C15.6133 17.307 15.6133 17.4993 15.6133 17.6916C15.6133 17.6916 15.4206 17.8839 15.4206 18.0762C15.4206 18.4609 14.6496 19.0378 14.6496 19.0378C14.4569 19.2301 12.7221 20.7686 12.7221 20.9609L12.5294 21.1532C12.3366 21.1532 12.3366 21.1532 12.1439 21.3455C12.1439 21.3455 12.1439 21.3455 11.9511 21.3455C11.9511 20.9609 12.1439 20.7686 12.1439 20.5762C12.1439 20.1916 12.1439 19.9993 12.1439 19.6147C12.1439 19.6147 12.3366 19.4224 12.3366 19.2301L12.5294 18.0762C12.5294 17.8839 12.5294 16.9224 12.7221 16.9224C12.9149 16.3455 13.1076 15.3839 13.1076 14.9993C13.1076 14.9993 13.1076 14.9993 12.9149 14.9993C12.9149 15.1916 12.7221 14.9993 12.7221 14.807C12.5294 14.807 12.3366 14.807 12.1439 14.807C12.1439 14.807 12.1439 14.9993 11.9511 14.9993C11.5656 15.5762 11.9511 15.5762 11.7584 16.1532C11.5656 16.1532 11.5656 16.5378 11.5656 16.7301C11.5656 16.7301 11.3729 17.4993 11.3729 17.8839L11.1801 19.0378C11.1801 19.4224 11.1801 19.807 10.9874 20.1916C10.9874 20.1916 10.7946 20.9609 10.7946 21.1532C10.7946 21.1532 10.6019 21.3455 10.6019 21.5378C10.6019 21.5378 10.6019 21.5378 10.4091 21.5378C10.4091 22.307 10.2164 23.0762 10.2164 23.8455C10.2164 23.8455 9.8309 25.3839 9.8309 25.5762C9.8309 25.5762 9.4454 26.5378 9.4454 26.7301C9.4454 26.7301 8.86716 28.2686 8.86716 28.4609L7.51792 32.4993L6.93968 34.0378L6.55418 35.1916L6.16868 36.1532L5.97594 36.7301L5.59044 37.8839C5.59044 38.0762 5.59044 38.0762 5.39769 38.2685C5.39769 38.2685 5.0122 39.0378 5.0122 39.6147L4.81945 39.807C4.81945 39.807 4.6267 40.3839 4.6267 40.5762C4.6267 40.5762 4.43395 41.5378 4.2412 41.5378L4.04846 42.1147C4.04846 42.307 4.04846 42.4993 3.85571 42.4993C3.85571 42.6916 3.66296 43.2685 3.66296 43.2685C3.66296 43.2685 3.66296 43.4609 3.47021 43.4609C3.47021 43.8455 3.27746 44.2301 3.27746 44.6147C3.27746 44.6147 3.27746 44.6147 3.08472 44.6147V44.807C3.08472 44.807 3.08472 44.807 2.89197 44.807C2.89197 44.9993 2.89197 44.9993 2.69922 45.1916C2.89197 45.1916 2.69922 45.1916 2.89197 45.3839C3.27746 45.3839 3.47021 45.1916 3.47021 44.9993C3.47021 44.807 3.47021 44.807 3.47021 44.6147H3.66296C3.85571 44.4224 4.04846 43.8455 4.04846 43.4609C4.04846 43.4609 4.2412 43.0762 4.2412 42.8839C4.2412 42.8839 4.43395 42.8839 4.43395 42.6916C4.6267 42.4993 4.81945 41.5378 4.81945 41.5378L5.0122 40.7686C5.0122 40.5762 5.39769 39.807 5.39769 39.807C5.39769 39.0378 5.78319 38.8455 5.97594 38.0762C6.16868 38.0762 6.36143 37.307 6.36143 37.307C6.36143 37.307 6.74693 36.7301 6.74693 36.3455C6.74693 36.3455 7.32517 34.4224 7.71067 33.8455C7.71067 33.6532 7.90342 33.4609 7.90342 33.2685L8.09617 32.6916C8.09617 32.4993 8.28891 32.307 8.28891 32.307C8.28891 31.9224 8.67441 31.1532 8.67441 30.9609C8.67441 30.9609 8.86716 30.7685 8.86716 30.5762C8.86716 30.5762 9.25265 29.6147 9.25265 29.4224C9.25265 29.4224 10.4091 25.7686 10.4091 25.5762C11.3729 24.9993 11.5656 24.2301 11.5656 23.2686C12.1439 23.2686 13.6859 21.5378 13.6859 21.5378C13.6859 21.5378 14.8423 20.5762 14.8423 20.3839C14.8423 20.3839 15.0351 20.3839 15.0351 20.1916C15.2278 20.1916 15.8061 19.6147 15.8061 19.6147H15.9988C16.1916 20.5762 16.1916 21.3455 16.3843 22.307C16.3843 22.307 16.7698 23.0762 16.7698 23.2686C16.7698 23.4609 16.7698 23.4609 16.7698 23.6532C16.7698 23.6532 16.9626 23.8455 16.7698 23.8455C16.9626 23.8455 17.1553 24.0378 17.1553 24.2301C17.3481 24.2301 17.3481 24.2301 17.5408 24.4224C17.7336 24.807 17.3481 24.807 17.5408 24.9993L17.7336 25.1916C18.3118 25.1916 18.5046 24.9993 18.8901 24.9993L19.0828 24.6147C19.0828 24.6147 20.432 23.6532 20.432 23.4609C20.6248 23.4609 22.1668 21.7301 22.3595 21.7301C22.5523 21.5378 22.3595 21.3455 22.9378 21.3455C22.9378 21.5378 22.9378 21.5378 22.9378 21.7301C23.1305 21.7301 23.1305 21.7301 23.3233 21.7301C23.3233 21.7301 23.3233 21.7301 23.3233 21.5378C23.516 21.3455 24.0943 20.1916 24.287 19.9993C24.4798 19.9993 24.6725 19.9993 24.6725 19.9993C24.8653 19.807 25.058 19.6147 25.058 19.4224C25.058 19.4224 25.058 19.4224 25.2507 19.4224C25.4435 19.2301 25.2507 19.0378 25.2507 18.8455C25.2507 18.8455 25.2507 18.8455 25.058 18.8455C25.058 18.6532 25.058 18.4609 25.2507 18.2686L25.4435 18.0762C25.4435 18.0762 25.4435 17.8839 25.4435 17.6916C25.4435 17.6916 25.829 16.5378 25.829 16.3455C25.829 16.3455 26.0217 15.7686 26.0217 15.5762C26.0217 15.5762 26.2145 14.2301 26.4072 13.4609C26.7927 13.4609 26.9855 13.2686 27.1782 13.0762C27.1782 13.0762 31.0332 11.1532 31.6114 10.9609C31.6114 10.9609 32.5752 10.5762 32.9607 10.3839C33.1534 10.3839 33.1534 10.3839 33.3462 10.3839C32.5752 9.4224 32.5752 9.23009 32.3824 9.03778ZM23.9015 17.6916H23.7088C23.7088 18.0762 23.7088 18.2686 23.516 18.6532C23.516 18.6532 23.3233 18.8455 23.1305 19.0378C22.745 19.2301 21.5885 20.1916 21.3958 20.5762C21.3958 20.5762 20.6248 21.1532 20.432 21.5378C20.432 21.5378 20.2393 21.7301 19.8538 21.9224C19.6611 22.4993 19.6611 22.1147 19.2756 22.4993C19.0828 22.6916 19.0828 22.6916 18.8901 22.8839C18.8901 22.8839 18.8901 22.8839 18.6973 22.8839C18.8901 22.6916 18.8901 22.6916 18.8901 22.307C17.9263 22.307 18.3118 22.4993 18.1191 23.0762C18.1191 23.0762 18.1191 23.0762 17.9263 23.0762C17.9263 23.2686 17.9263 23.2686 17.9263 23.4609C17.7336 23.4609 17.9263 23.4609 17.7336 23.6532C17.3481 23.6532 17.5408 23.6532 17.3481 23.4609L17.1553 23.0762V22.6916C17.1553 22.4993 17.1553 22.307 17.1553 22.307C17.1553 21.9224 17.1553 21.3455 17.1553 20.9609C17.1553 20.9609 17.1553 20.9609 16.9626 20.9609C16.9626 20.9609 16.9626 20.5762 16.9626 20.3839V19.9993C16.9626 19.6147 16.9626 19.2301 16.9626 18.6532C17.3481 18.6532 17.1553 18.4609 17.5408 18.4609C17.5408 18.2686 17.9263 17.8839 18.1191 17.6916C18.3118 17.6916 18.6973 17.307 18.6973 17.307C18.8901 17.307 19.6611 16.7301 19.6611 16.7301C19.8538 16.5378 21.0103 15.7686 21.0103 15.7686C21.203 15.7686 24.0943 14.0378 24.287 13.8455C24.287 15.1916 24.0943 16.5378 23.9015 17.6916Z" fill="#4F4F4F"/>
<path fill-rule="evenodd" clip-rule="evenodd" d="M155.548 18.462C155.355 18.462 153.621 18.8466 153.042 19.0389C152.464 19.0389 151.5 19.2312 151.5 19.2312C151.308 19.2312 150.922 19.4235 150.922 19.4235C150.922 19.4235 150.344 19.8081 150.151 19.8081L147.838 20.7697C147.838 20.7697 147.453 20.962 147.26 20.962H147.067L146.489 21.1543C146.296 21.3466 145.332 21.7312 145.332 21.7312L145.14 21.9235H144.947C144.947 21.9235 144.754 22.1158 144.562 22.1158C144.562 22.1158 144.562 22.1158 144.562 22.3081C144.369 22.3081 143.983 22.6928 143.983 22.6928C143.791 22.6928 143.405 23.2697 143.02 23.2697C143.212 23.2697 142.249 23.462 142.249 23.2697C142.056 23.2697 141.863 23.2697 141.478 23.2697C141.478 22.8851 141.67 22.5005 141.67 22.1158C141.863 22.1158 142.441 21.7312 142.441 21.7312C142.634 21.7312 143.02 21.3466 143.02 21.1543C143.212 21.1543 143.212 21.1543 143.405 20.962C143.405 20.962 144.369 20.3851 144.562 20.3851C144.562 20.3851 145.332 20.0005 145.525 20.0005L146.682 19.4235C146.682 19.4235 147.067 19.2312 147.26 19.2312C147.26 19.2312 147.453 19.0389 147.645 19.0389L148.416 18.8466C148.416 18.8466 148.802 18.6543 148.995 18.6543C149.573 18.462 149.958 18.0774 150.729 18.0774C150.729 18.0774 151.5 17.6928 151.886 17.6928L152.85 17.5005L153.428 17.3081C153.428 17.3081 153.813 17.1158 154.199 17.1158L154.584 16.9235L154.777 16.7312C154.97 16.5389 154.97 16.3466 154.97 16.3466C155.163 16.1543 155.163 16.1543 155.548 16.1543C155.548 16.3466 155.548 16.3466 155.548 16.5389C155.548 16.5389 155.548 17.1158 155.548 17.3081C155.548 17.3081 155.548 17.3081 155.355 17.3081C155.355 17.3081 155.355 17.5005 155.163 17.5005C155.548 17.8851 155.548 18.2697 155.548 18.462Z" fill="#4F4F4F"/>
<path fill-rule="evenodd" clip-rule="evenodd" d="M45.6815 17.308C45.6815 17.308 46.067 17.6926 45.8742 18.0772C45.6815 18.0772 45.6815 18.2695 45.6815 18.4618C45.296 18.4618 44.1395 18.8465 43.9468 18.8465C43.9468 18.8465 43.754 19.0388 43.754 18.8465C43.754 18.8465 43.3685 18.8465 43.1758 18.8465C42.983 18.8465 42.5975 18.6541 42.5975 18.6541C42.4048 18.6541 42.0193 18.4618 42.0193 18.4618C41.8265 18.2695 41.8265 18.2695 41.6338 18.2695C41.6338 18.0772 41.6338 17.8849 41.8265 17.5003L42.0193 17.308C42.212 17.308 42.4048 17.308 42.5975 17.308C42.5975 17.308 42.5975 17.5003 42.7903 17.5003C42.7903 17.5003 42.983 17.308 43.1758 17.5003L43.5613 17.6926C43.9468 17.6926 44.525 17.5003 44.525 17.5003C44.525 17.5003 44.7178 17.5003 44.7178 17.308C45.296 16.9234 45.4887 17.1157 45.6815 17.308Z" fill="#4F4F4F"/>
<path fill-rule="evenodd" clip-rule="evenodd" d="M5.97605 18.0767C5.7833 18.0767 5.7833 18.0767 5.59055 18.0767C5.59055 18.269 3.47032 20.1921 3.47032 20.3844L2.89208 21.1536L2.50658 21.5382C2.31383 21.5382 2.12109 21.9228 2.12109 22.1152C2.12109 22.1152 1.92834 22.4998 1.73559 22.4998C1.92834 22.6921 1.92834 22.8844 1.92834 23.0767C1.35009 23.269 1.54284 23.269 0.77185 23.0767C0.579102 22.8844 0.579102 22.6921 0.579102 22.3075C0.964598 22.1152 0.77185 21.9229 1.35009 21.7305C1.35009 21.5382 1.54284 21.3459 1.54284 21.3459C1.54284 21.3459 1.73559 21.1536 1.73559 20.9613C1.73559 20.769 2.12109 20.1921 2.12109 20.1921C2.12109 20.1921 2.31383 19.8075 2.50658 19.8075C2.50658 19.8075 3.08483 19.0382 3.27757 19.0382L3.47032 18.8459C3.66307 18.4613 4.43406 17.3075 5.01231 17.3075L5.20506 17.1152V16.9229C5.59055 16.9229 5.7833 16.9229 6.1688 16.9229C6.1688 16.9229 6.1688 16.9229 6.36154 16.9229C6.36154 17.1152 6.36154 17.3075 6.36154 17.4998C5.97605 17.8844 6.1688 17.8844 5.97605 18.0767Z" fill="#4F4F4F"/>
<path fill-rule="evenodd" clip-rule="evenodd" d="M108.903 18.2695V18.4618C109.289 18.4618 109.096 18.6541 109.481 18.8464C109.481 19.0387 109.481 19.231 109.481 19.4233H109.289C109.289 19.6156 109.289 19.8079 109.096 19.8079C109.096 19.8079 109.096 20.0002 108.903 20.0002C108.71 20.3848 109.096 21.1541 108.903 21.3464V23.4618C108.71 24.231 108.71 24.8079 108.518 25.5772C108.132 25.5772 107.554 25.5772 107.554 25.5772C107.361 25.5772 107.361 25.5772 107.168 25.3848C107.168 25.0002 107.168 24.6156 107.168 24.231V23.0772C107.168 22.8848 107.554 22.1156 107.554 21.9233C107.554 21.9233 107.361 20.9618 107.554 20.3848C107.361 20.3848 106.976 20.3848 106.976 20.1925C106.783 20.1925 106.783 20.1925 106.397 20.1925C106.397 20.0002 106.397 19.8079 106.397 19.4233C106.59 19.231 106.59 19.231 107.168 19.231C107.361 19.0387 107.168 19.231 107.361 19.0387L107.554 18.8464C107.554 18.4618 107.747 18.4618 107.939 18.0771C108.325 18.4618 108.71 18.4618 108.903 18.2695Z" fill="#4F4F4F"/>
<path fill-rule="evenodd" clip-rule="evenodd" d="M107.554 20.3846H107.746C107.746 20.1923 107.746 20.1923 107.746 20H107.554C107.554 20.1923 107.554 20.1923 107.554 20.3846Z" fill="#4F4F4F"/>
<path fill-rule="evenodd" clip-rule="evenodd" d="M106.397 23.0768C106.397 23.0768 106.204 23.2691 106.011 23.2691C105.818 23.4614 104.855 24.8075 104.662 24.8075C104.662 24.9998 104.469 25.1922 104.276 25.1922C104.276 25.7691 103.891 25.5768 103.698 26.1537C103.698 26.1537 103.505 26.346 103.313 26.346C102.927 26.5383 101.963 26.346 101.771 26.1537C101.771 26.1537 101.771 25.9614 101.578 25.9614C101.385 25.5768 101.771 25.7691 101.192 25.5768C101.192 25.3845 101.192 25.1922 101.192 24.8075C101.192 24.6152 101.192 24.6152 101.192 24.6152C101.192 24.4229 101.192 24.0383 101.192 23.846L101.385 23.4614C101.385 23.2691 101.385 23.0768 101.578 22.6922C101.771 22.4999 101.963 22.4998 102.349 22.4998C102.542 22.6922 102.349 22.4999 102.542 22.6922C102.542 22.8845 102.542 23.0768 102.542 23.4614C102.734 23.6537 102.542 24.4229 102.542 24.8075C102.734 24.8075 102.734 24.8075 102.927 24.8075C102.927 24.6152 103.12 24.6152 103.12 24.6152C103.12 24.6152 103.313 24.4229 103.313 24.2306C103.313 24.0383 103.505 23.846 103.698 23.846C103.891 23.6537 104.276 23.2691 104.276 23.2691C104.469 23.0768 105.047 22.4998 105.24 22.4998C105.433 22.4998 105.626 22.1152 105.626 22.1152C105.818 22.1152 106.011 22.1152 106.204 22.1152C106.397 22.6922 106.397 23.0768 106.397 23.0768Z" fill="#4F4F4F"/>
<path fill-rule="evenodd" clip-rule="evenodd" d="M82.1106 22.4998C82.1106 22.8845 81.9179 23.6537 81.7252 23.6537C81.7252 23.6537 81.5324 23.846 81.5324 24.0383C81.5324 24.0383 81.5324 24.2306 81.3397 24.2306C81.3397 24.4229 81.1469 24.8075 81.1469 24.8075C80.9542 24.9998 79.9904 26.346 79.7977 26.346C79.7977 26.346 79.7977 26.5383 79.6049 26.5383C79.6049 26.7306 78.0629 28.4614 78.0629 28.4614C78.0629 28.6537 75.75 31.5383 75.75 31.5383C75.75 31.7306 74.7862 32.8845 74.7862 32.8845L74.208 33.6537L73.2442 34.9999C73.0515 35.3845 70.9313 38.4614 70.9313 38.4614C70.7385 38.6537 69.7748 39.9999 69.7748 39.9999C69.582 39.9999 69.3893 40.1922 69.3893 40.3845C69.0038 40.3845 68.2328 40.7691 68.2328 40.7691C68.04 40.7691 67.2691 40.7691 67.2691 40.7691C67.0763 40.7691 66.3053 40.5768 66.3053 40.5768C66.3053 40.5768 65.7271 40.3845 65.3416 40.3845H64.9561C64.9561 40.3845 64.3778 40.1922 63.9923 40.1922L63.0286 39.9999C62.8358 39.9999 62.4503 39.8075 62.4503 39.8075C62.2576 39.8075 61.4866 39.6152 61.4866 39.6152C61.2939 39.6152 60.7156 39.6152 60.7156 39.4229C60.3301 39.4229 58.5954 39.2306 58.2099 39.2306C58.2099 39.2306 57.2461 39.2306 56.8606 39.2306C56.4752 39.2306 55.1259 39.4229 54.7404 39.2306C54.3549 39.0383 53.5839 38.6537 52.8129 38.846C52.6202 38.846 52.2347 39.0383 51.8492 38.846C51.8492 38.846 51.271 38.6537 51.0782 38.6537C51.0782 38.6537 50.3072 38.6537 50.1145 38.6537C50.1145 38.6537 49.9217 38.846 49.729 38.6537C49.729 38.6537 49.3435 38.846 48.958 38.846L48.7652 39.0383C48.7652 39.0383 48.187 39.2306 47.9942 39.2306C47.8015 39.2306 47.2232 39.4229 46.8377 39.4229C46.8377 39.4229 46.4523 39.4229 46.2595 39.4229H46.0668C45.874 39.4229 45.6813 39.4229 45.2958 39.4229L44.332 39.6152C43.7538 39.8075 43.561 39.8075 42.9828 39.6152C42.9828 39.4229 42.79 39.2306 42.79 38.846C43.1755 38.6537 43.1755 38.4614 43.7538 38.4614L43.9465 38.2691C44.1393 38.0768 44.5248 37.8845 44.7175 37.6922C44.9103 37.4999 46.4523 35.9614 46.645 35.9614C46.645 35.9614 47.416 34.9999 47.8015 34.9999L48.187 34.4229C48.187 34.2306 48.5725 34.0383 48.5725 33.846C48.7652 33.6537 49.1507 32.8845 49.3435 32.8845C49.3435 32.6922 49.3435 32.4999 49.5362 32.4999C49.5362 32.4999 49.5362 32.3075 49.729 32.3075C49.729 31.9229 49.729 31.5383 49.729 31.1537C49.5362 31.1537 49.3435 30.9614 49.3435 30.9614C48.958 30.9614 47.6087 30.5768 47.6087 30.5768C47.2232 30.5768 46.4523 30.1922 46.4523 30.1922C46.0668 30.1922 46.2595 29.9999 45.6813 29.8075C45.6813 29.6152 45.6813 29.4229 45.6813 29.2306C45.4885 29.2306 45.4885 28.6537 45.6813 28.6537C45.6813 28.2691 45.6813 27.3075 45.874 27.3075C45.874 26.7306 45.874 25.7691 46.0668 25.7691C46.0668 25.5768 46.0668 25.5768 46.0668 25.3845C46.0668 25.3845 46.0668 25.3845 46.0668 25.1922C46.0668 24.9999 46.0668 24.8075 46.0668 24.4229C45.874 24.4229 45.6813 24.4229 45.2958 24.4229C45.2958 24.4229 44.9103 24.6152 44.5248 24.4229C44.5248 24.4229 44.332 24.4229 44.1393 24.4229L43.9465 24.2306C43.9465 24.0383 43.9465 23.6537 43.9465 23.4614C44.1393 23.4614 44.5248 23.2691 44.7175 23.2691C44.7175 23.2691 44.7175 23.2691 44.7175 23.0768C44.9103 23.0768 45.2958 22.8845 45.2958 22.6922C45.6813 22.6922 46.0668 22.6922 46.4523 22.6922C46.645 23.2691 47.2232 23.4614 47.2232 24.2306C47.416 24.4229 47.2232 25.3845 47.2232 25.7691C47.2232 25.9614 47.0305 25.9614 47.0305 26.1537L46.8377 27.4999C46.8377 27.6922 46.8377 27.8845 46.8377 28.2691C47.0305 28.4614 47.0305 28.4614 47.2232 28.6537C47.9942 28.6537 49.3435 29.0383 49.3435 29.0383C49.5362 29.0383 49.729 29.0383 49.729 29.2306C49.729 29.2306 49.9217 29.4229 50.1145 29.4229C50.5 29.6152 50.8855 29.9999 51.0782 29.9999C51.0782 30.1922 51.0782 30.1922 51.0782 30.3845V30.5768C51.0782 30.5768 51.0782 31.5383 51.0782 32.1152L50.8855 32.3075V32.4999C50.8855 32.6922 50.8855 32.6922 50.6927 32.8845C50.5 32.8845 49.729 33.846 49.729 33.846C49.5362 34.0383 48.7652 34.9999 48.7652 34.9999C48.5725 35.1922 47.416 36.346 47.416 36.346C47.416 36.346 46.4523 37.3075 46.2595 37.4999C46.0668 37.4999 46.2595 37.4999 46.0668 37.4999C46.2595 37.4999 46.2595 37.4999 46.4523 37.4999C46.645 37.3075 47.0305 37.4999 47.416 37.3075C47.416 37.3075 47.8015 37.3075 47.9942 37.3075C47.9942 37.3075 48.7652 37.1152 48.958 37.1152C48.958 37.1152 49.1507 37.1152 49.3435 37.1152C49.3435 37.1152 50.5 36.9229 50.6927 36.9229H51.0782C51.271 36.9229 51.6564 36.9229 51.8492 36.9229H52.6202C53.0057 36.9229 53.5839 37.1152 53.7767 37.1152C53.9694 37.1152 54.5477 37.1152 54.5477 37.3075C54.7404 37.3075 54.9332 37.3075 55.1259 37.3075C55.3187 37.3075 56.0897 37.4999 56.0897 37.4999C56.6679 37.4999 57.2461 37.4999 58.0171 37.4999C58.0171 37.4999 58.2099 37.3075 58.4026 37.3075C58.4026 37.3075 58.9809 37.3075 59.3664 37.3075C59.3664 37.3075 60.1374 37.3075 60.1374 37.4999C60.3301 37.4999 61.8721 37.4999 61.8721 37.6922C62.0648 37.6922 64.1851 38.2691 64.1851 38.2691C64.5706 38.2691 65.1488 38.2691 65.1488 38.4614C65.3416 38.4614 65.5343 38.4614 65.5343 38.4614C66.1126 38.4614 66.6908 38.4614 67.4618 38.6537C67.4618 38.6537 67.8473 38.6537 68.2328 38.6537C68.2328 38.6537 68.811 38.4614 69.0038 38.4614C69.0038 38.2691 69.3893 38.0768 69.582 37.8845C69.582 37.8845 69.7748 37.4999 69.9675 37.4999C69.9675 37.3075 70.5458 36.5383 70.7385 36.5383L72.0878 34.6152C72.0878 34.4229 72.4732 34.0383 72.666 33.846C72.666 33.6537 74.0152 31.7306 74.208 31.7306C74.4007 31.346 76.3282 28.846 76.521 28.6537C76.7137 28.2691 77.0992 27.6922 77.2919 27.6922C77.4847 27.4999 77.4847 27.4999 77.6774 27.3075C77.6774 27.3075 78.2557 26.7306 78.4484 26.346L79.0267 25.5768C79.2194 25.3845 79.6049 24.9998 79.7977 24.8075L80.7614 23.6537L80.9542 23.4614C81.1469 23.0768 81.5324 23.0768 81.5324 22.4998C81.7252 22.4998 81.7252 22.4998 81.9179 22.4998C81.9179 22.3075 81.9179 22.3075 81.9179 22.1152C81.7252 22.6922 81.9179 22.4998 82.1106 22.4998Z" fill="#4F4F4F"/>
<path fill-rule="evenodd" clip-rule="evenodd" d="M27.1782 23.6539H27.3709C27.3709 24.0385 27.3709 24.2308 27.3709 24.8078C27.3709 25.0001 27.3709 25.577 27.1782 25.577C27.1782 25.7693 26.9854 26.3462 26.9854 26.3462C26.9854 26.3462 26.9854 26.9232 26.7927 26.9232C26.7927 27.5001 26.5999 28.6539 26.4072 28.6539C26.4072 28.6539 26.4072 28.8462 26.2144 28.8462C26.2144 29.0385 24.4797 31.7308 24.4797 31.7308C24.4797 31.7308 23.9014 32.8847 23.7087 33.077C23.7087 33.2693 23.516 33.4616 23.516 33.4616C23.516 33.6539 23.3232 33.8462 23.1305 33.8462C23.1305 34.2308 22.9377 34.2308 22.9377 34.4232C23.1305 34.4232 23.1305 34.4232 23.3232 34.6155C23.3232 34.6155 23.7087 34.8078 23.7087 35.0001C23.9014 35.0001 26.5999 36.5385 26.5999 36.5385C26.5999 36.5385 26.9854 36.7309 26.9854 36.9232C27.1782 36.9232 27.5637 37.1155 27.5637 37.1155C27.7564 37.1155 29.4911 37.8847 29.4911 37.8847C29.6839 37.8847 29.8766 38.077 29.8766 38.077C30.2621 38.077 32.3824 38.8462 32.3824 38.8462C32.5751 38.8462 32.7679 38.8462 32.7679 39.0385C33.1534 39.0385 34.3098 39.2309 34.3098 39.4232C34.5026 39.4232 35.0808 39.6155 35.0808 39.6155C35.2736 39.6155 35.4663 39.6155 35.4663 39.8078C35.6591 39.8078 36.2373 39.8078 36.2373 40.0001C36.4301 40.0001 36.8156 40.0001 36.8156 40.1924C37.3938 40.1924 37.9721 40.1924 38.5503 40.1924C38.7431 40.3847 38.7431 40.3847 38.7431 40.7693C38.5503 40.7693 38.5503 40.7693 38.3576 40.7693C38.3576 40.9616 38.3576 40.9616 38.1648 41.1539C37.9721 41.1539 36.8156 41.3462 36.8156 41.3462C36.4301 41.3462 35.8518 41.3462 35.4663 41.3462L35.2736 41.1539C35.2736 41.1539 34.6953 40.9616 34.5026 40.9616C34.5026 40.9616 34.1171 40.7693 33.9244 40.7693C33.9244 40.7693 33.1534 40.7693 33.1534 40.577C32.9606 40.577 32.7679 40.3847 32.5751 40.3847C32.3824 40.3847 31.9969 40.1924 31.8041 40.1924C31.8041 40.1924 30.4549 39.6155 30.2621 39.6155L29.6839 39.4232C29.4911 39.4232 29.2984 39.2308 29.2984 39.2308C29.1056 39.2308 28.9129 39.2308 28.9129 39.0385C28.7202 39.0385 27.5637 38.4616 27.5637 38.4616C27.3709 38.4616 27.1782 38.2693 27.1782 38.2693C26.9854 38.2693 25.4434 37.5001 25.4434 37.3078C25.4434 37.3078 25.2507 37.1155 25.0579 37.1155C24.8652 37.1155 24.0942 36.7308 23.9014 36.5385C23.9014 36.5385 23.3232 36.3462 23.3232 36.1539C23.1305 36.1539 22.745 35.9616 22.745 35.7693C22.5522 35.577 22.3595 35.577 21.974 35.3847C21.7812 35.577 19.8537 38.6539 19.8537 38.6539C19.8537 38.6539 19.661 38.8462 19.661 39.0385C19.661 39.0385 19.4682 39.4232 19.2755 39.6155C19.2755 39.6155 19.2755 39.8078 19.0827 39.8078C18.89 40.0001 19.0827 40.0001 18.6972 40.1924C18.6972 40.3847 18.6972 40.3847 18.6972 40.577L18.5045 40.7693H18.3118C18.3118 40.7693 18.3118 40.7693 18.3118 40.9616C18.119 40.9616 18.119 40.9616 17.9263 40.7693C17.5408 40.577 17.5408 40.577 17.7335 40.0001C17.9263 39.8078 17.7335 39.8078 17.9263 39.4232C18.119 39.4232 18.119 39.2308 18.3118 39.2308C18.5045 38.8462 18.5045 38.6539 18.6972 38.2693C18.6972 38.2693 18.89 38.2693 18.89 38.077C18.89 37.8847 19.0827 37.6924 19.2755 37.5001C19.2755 37.5001 19.2755 37.3078 19.4682 37.3078L21.203 34.6155C21.203 34.6155 21.203 34.6155 21.203 34.4232C20.8175 34.2308 18.5045 32.6924 18.3118 32.6924C17.9263 32.6924 17.348 32.8847 16.9625 32.8847C16.577 33.077 16.3843 32.6924 16.1915 32.6924C16.1915 32.5001 16.1915 32.3078 16.1915 31.9232C16.7698 31.7308 17.1553 31.5385 17.7335 31.5385V31.3462C18.119 31.3462 18.3118 31.3462 18.6972 31.3462V31.5385C18.6972 31.5385 18.89 31.5385 18.89 31.7308C19.0827 31.7308 19.2755 31.7308 19.2755 31.9232C19.4682 31.9232 21.0102 32.8847 21.203 33.077C21.203 33.077 21.7812 33.4616 21.974 33.6539C22.1667 33.6539 21.974 33.6539 22.1667 33.4616C22.3595 33.2693 22.3595 33.2693 22.3595 33.077C22.5522 33.077 22.5522 33.077 22.745 32.8847C22.745 32.6924 22.9377 32.3078 23.1305 32.3078C23.1305 32.1155 23.3232 31.7308 23.516 31.7308C23.516 31.5385 25.4434 28.2693 25.4434 28.2693C25.4434 28.077 25.6362 27.6924 25.6362 27.6924C25.6362 27.3078 25.8289 26.3462 25.8289 26.3462C25.8289 26.1539 25.8289 25.9616 26.0217 25.9616C26.2144 25.577 26.0217 24.2308 26.0217 24.0385C25.6362 24.0385 25.4434 24.2308 25.0579 24.2308C25.0579 24.2308 24.8652 24.4232 24.6724 24.4232C24.6724 24.4232 24.0942 25.0001 23.9014 25.0001C23.9014 25.0001 21.0102 27.3078 20.6247 27.5001C20.6247 27.6924 19.4682 28.4616 19.2755 28.6539L17.7335 30.0001C17.5408 30.1924 17.7335 30.1924 17.348 30.3847C17.348 30.577 17.1553 30.7693 16.9625 30.7693C16.9625 30.7693 16.7698 30.7693 16.577 30.7693C16.1915 30.9616 15.9988 30.9616 15.6133 30.7693C15.6133 30.3847 15.6133 30.1924 15.806 29.8078C15.9988 29.8078 16.9625 28.8462 16.9625 28.8462C17.7335 28.2693 18.3118 27.5001 19.0827 26.9232C19.0827 26.9232 19.4682 26.7308 19.661 26.5385C19.8537 26.5385 20.0465 26.3462 20.0465 26.1539C20.2392 25.9616 22.3595 24.4232 22.3595 24.4232L23.3232 23.6539C23.3232 23.6539 23.516 23.4616 23.7087 23.2693C23.9014 23.077 24.2869 22.8847 24.2869 22.8847C24.4797 22.8847 24.6724 22.6924 25.0579 22.6924C25.2507 22.6924 25.4434 22.6924 25.6362 22.8847C26.0217 22.8847 26.4072 22.8847 26.7927 22.8847C26.9854 23.2693 26.9854 23.2693 27.1782 23.6539Z" fill="#4F4F4F"/>
<path fill-rule="evenodd" clip-rule="evenodd" d="M7.13204 23.0769C7.13204 24.2308 6.5538 25.9615 6.36105 25.9615C6.36105 26.5385 5.78281 27.5 5.59006 27.5C5.59006 27.8846 5.39731 28.0769 5.20456 28.2692C5.20456 28.2692 5.20456 28.4615 5.01181 28.4615C5.01181 28.6538 5.01182 28.8462 4.81907 28.8462C4.81907 28.8462 4.81907 29.0385 4.62632 29.0385C4.62632 29.2308 4.43357 29.4231 4.43357 29.4231C4.43357 29.6154 4.24082 30 4.04807 30C4.04807 30 4.04807 30.1923 3.85533 30.1923C3.85533 30.3846 3.66258 30.5769 3.66258 30.7692L3.46983 31.1538C3.46983 31.1538 2.50609 32.8846 2.50609 33.0769C2.50609 33.0769 2.12059 33.2692 2.12059 33.6538C2.12059 33.6538 1.15685 35 1.15685 35.3846C0.771358 35.3846 0.385861 35.5769 -0.192383 35.5769C-0.192383 35.1923 -0.192383 35 -0.192383 34.6154C0.385861 34.8077 0.385861 34.6154 0.771358 34.6154C0.771358 34.4231 0.771358 34.2308 0.964106 34.0385C0.964106 34.0385 1.7351 32.6923 1.92785 32.5C1.92785 32.5 2.12059 32.3077 2.12059 32.1154C2.12059 32.1154 2.50609 31.9231 2.69884 31.5385C2.69884 31.5385 3.27708 30.9615 3.27708 30.3846L4.04807 29.0385C4.04807 29.0385 4.04807 28.8462 4.24082 28.8462C4.24082 28.6538 4.43357 28.4615 4.43357 28.4615C4.43357 28.4615 4.43357 28.2692 4.62632 28.2692C4.62632 28.0769 4.81907 27.6923 5.01181 27.5C5.01181 27.3077 5.20456 27.1154 5.20456 27.1154C5.20456 27.1154 5.39731 26.9231 5.39731 26.7308C5.39731 26.7308 5.39731 26.3462 5.59006 26.3462C5.59006 26.1538 5.59006 26.1538 5.78281 25.9615L5.97555 25.7692C6.1683 25.3846 6.1683 25.5769 6.36105 25C6.5538 25 6.9393 24.2308 7.13204 23.6538C7.13204 23.4615 7.13204 23.2692 7.13204 22.8846C7.13204 22.8846 7.13204 22.8846 7.32479 22.8846C7.51754 22.6923 7.51754 22.6923 7.71029 22.5C6.9393 23.0769 6.9393 23.0769 7.13204 23.0769Z" fill="#4F4F4F"/>
<path fill-rule="evenodd" clip-rule="evenodd" d="M55.5118 30.7697C55.5118 31.1543 53.7771 33.0774 53.7771 33.2697C53.7771 33.2697 53.7771 33.462 53.5843 33.462C53.3916 33.6543 53.1988 33.8466 53.1988 33.8466C53.1988 34.4235 52.8134 34.6158 52.2351 34.6158C52.0424 34.6158 52.0424 34.6158 51.8496 34.6158C51.8496 34.2312 51.8496 34.0389 52.0424 33.8466C52.0424 33.8466 52.0424 33.8466 52.2351 33.8466C52.2351 33.6543 52.8133 32.8851 52.8133 32.8851L54.7408 30.0005C54.7408 30.0005 55.8973 28.0774 55.8973 27.8851C55.8973 27.6928 55.8973 27.5005 56.0901 27.5005C56.2828 27.1158 56.2828 26.9235 56.2828 26.5389C56.4756 26.5389 56.4756 26.5389 56.6683 26.5389C56.8611 26.1543 56.8611 25.962 57.0538 25.5774C57.4393 25.5774 57.6321 25.3851 58.0175 25.7697C58.0175 25.7697 58.0175 25.7697 58.2103 25.7697C58.2103 25.962 58.2103 26.3466 58.2103 26.3466C58.2103 26.3466 58.2103 26.7312 58.0175 26.9235C57.8248 26.9235 57.8248 26.9235 57.6321 26.9235C57.6321 27.1158 57.4393 27.3081 57.4393 27.5005C57.4393 27.5005 57.2466 28.0774 57.0538 28.2697C57.0538 28.462 56.8611 28.6543 56.8611 28.6543C56.8611 28.6543 56.6683 29.2312 56.4756 29.4235C56.4756 29.2312 55.5118 30.7697 55.5118 30.7697Z" fill="#4F4F4F"/>
<path fill-rule="evenodd" clip-rule="evenodd" d="M107.169 28.0762V28.2685C106.784 28.2685 106.591 28.4608 106.591 28.8454C106.784 28.8454 106.976 28.8454 107.169 28.8454C107.169 28.4608 107.362 28.4608 107.555 28.2685C107.362 28.0762 107.169 28.0762 107.169 28.0762Z" fill="#4F4F4F"/>
<path d="M64.7635 28.2693C64.5708 28.077 64.5708 28.077 64.5708 27.8847C64.5708 27.8847 64.378 27.6924 64.1853 27.6924C63.9925 27.6924 63.2215 27.8847 63.2215 27.8847C63.0288 27.8847 62.6433 28.077 62.6433 28.077C62.4505 28.077 61.8723 28.6539 61.6795 28.8462C61.6795 28.8462 61.2941 29.0385 61.1013 29.2308C60.9086 29.2308 60.5231 29.6155 60.5231 29.8078C60.5231 29.8078 59.9448 30.3847 59.5593 30.577C59.5593 30.3847 59.5593 30.1924 59.5593 30.1924C59.5593 30.0001 59.7521 30.0001 59.7521 29.8078C59.9448 29.8078 60.1376 29.8078 60.3303 29.8078C60.3303 29.6155 60.3303 29.2308 60.3303 29.2308C60.3303 29.0385 59.9448 28.8462 59.7521 28.8462C59.7521 28.8462 59.5593 28.6539 59.3666 28.6539C58.9811 28.6539 58.7883 29.0385 58.4028 29.0385C58.4028 30.0001 58.4028 30.1924 57.6318 30.577C57.6318 30.577 57.6318 30.7693 57.6318 30.9616L57.8246 31.1539C58.0173 31.1539 58.2101 31.3462 58.5956 31.3462C58.5956 31.5385 58.5956 31.7308 58.4028 31.9232C58.4028 31.9232 58.4028 32.6924 58.4028 33.077C58.4028 33.077 58.0173 33.2693 58.2101 33.6539C58.2101 33.6539 58.4028 33.6539 58.4028 33.8462C58.4028 34.0385 58.4028 34.6155 58.4028 34.6155C58.4028 35.0001 58.4028 35.3847 58.4028 35.7693C58.4028 35.7693 58.4028 35.7693 58.2101 35.7693C58.0173 35.9616 58.2101 35.9616 58.0173 36.1539C58.0173 36.5385 58.2101 36.7308 58.2101 36.9232C58.4028 36.9232 58.5956 37.1155 58.5956 37.3078C58.7883 37.3078 58.5956 37.3078 58.7883 37.5001C59.3666 37.5001 60.9086 36.1539 60.9086 35.7693C61.1013 35.9616 60.9086 35.7693 61.1013 35.9616C61.1013 35.9616 61.1013 35.9616 61.2941 35.9616C61.1013 35.9616 61.1013 35.9616 60.9086 35.9616C60.9086 36.1539 60.9086 36.1539 60.9086 36.3462C61.2941 36.3462 61.2941 36.5385 61.6795 36.5385V36.3462C62.065 36.1539 61.8723 36.1539 62.2578 35.9616C62.2578 35.7693 62.6433 35.0001 62.6433 34.8078C62.6433 34.8078 63.0288 34.0385 63.2215 33.4616C63.4143 33.4616 63.4143 33.4616 63.607 33.4616C63.607 32.8847 63.9925 32.8847 64.1853 32.3078C64.378 32.3078 64.5708 31.9232 64.5708 31.7308C64.5708 31.7308 64.378 31.7308 64.378 31.5385C64.1853 31.5385 63.9925 31.5385 63.7998 31.5385C63.7998 31.3462 63.7998 30.9616 63.9925 30.7693L64.378 29.4232C64.378 29.4232 64.5708 29.2308 64.5708 29.0385C64.7635 29.2308 64.7635 28.6539 64.7635 28.2693ZM62.2578 33.2693C62.2578 33.2693 59.9448 34.8078 59.9448 35.1924C59.9448 35.1924 59.9448 35.1924 59.7521 35.1924C59.7521 35.0001 59.7521 35.1924 59.7521 35.0001C59.7521 34.6155 59.7521 34.4232 59.9448 34.2308C60.1376 34.2308 60.3303 34.2308 60.7158 34.2308C60.7158 34.0385 60.7158 34.2308 60.9086 34.0385C60.9086 33.4616 60.7158 33.6539 60.3303 33.4616C60.3303 33.4616 60.1376 33.2693 59.9448 33.077C59.9448 32.5001 60.1376 32.3078 60.1376 31.7308L61.6795 30.1924C61.6795 30.1924 63.4143 29.0385 63.4143 28.8462C63.607 28.8462 63.607 28.8462 63.7998 29.0385C63.2215 30.577 62.836 31.9232 62.2578 33.2693Z" fill="#4F4F4F"/>
</g>
<defs>
<clipPath id="clip0">
<rect width="202" height="45" fill="white"/>
</clipPath>
</defs>
</svg>
