<?xml version="1.0" encoding="UTF-8"?>
<svg width="14px" height="14px" viewBox="0 0 14 14" version="1.1" xmlns="http://www.w3.org/2000/svg" xmlns:xlink="http://www.w3.org/1999/xlink">
    <!-- Generator: Sketch 55.1 (78136) - https://sketchapp.com -->
    <title>icon</title>
    <desc>Created with Sketch.</desc>
    <g id="SP" stroke="none" stroke-width="1" fill="none" fill-rule="evenodd">
        <g id="menu_open_01" transform="translate(-154.000000, -635.000000)">
            <g id="menu" transform="translate(0.000000, 568.000000)">
                <g id="btn" transform="translate(0.222656, 26.000000)">
                    <g transform="translate(7.000000, 27.000000)" id="icon">
                        <g transform="translate(147.000000, 14.000000)">
                            <circle id="Oval" fill="#FFD94A" cx="5.76470588" cy="5.76470588" r="4.94117647"></circle>
                            <g id="noun_Search_1773652" fill="#000000" fill-rule="nonzero">
                                <path d="M8.86322624,2.81765445 C9.01804242,2.97247063 9.16202146,3.13812394 9.29671154,3.3099699 C9.25645933,3.2573324 9.21620713,3.20624306 9.17595492,3.15360556 C9.43914242,3.49729748 9.65743324,3.87195263 9.82773103,4.26983021 C9.80141228,4.20790374 9.77509353,4.14597727 9.75032294,4.08559896 C9.92526522,4.50205448 10.0429255,4.9386361 10.1033038,5.38605486 C10.0940149,5.31793574 10.0847259,5.24826846 10.0754369,5.18014934 C10.1327189,5.62447178 10.1327189,6.0734387 10.0754369,6.51776113 C10.0847259,6.44964201 10.0940149,6.37997473 10.1033038,6.31185561 C10.0429255,6.75927437 9.92526522,7.19585599 9.75032294,7.61231151 C9.77664169,7.55038504 9.80296044,7.48845857 9.82773103,7.42808026 C9.6589814,7.82595784 9.44069058,8.20061299 9.17595492,8.54430491 C9.21620713,8.49166741 9.25645933,8.44057807 9.29671154,8.38794057 C9.02887955,8.73472881 8.71615087,9.04590933 8.37091079,9.31374132 C8.42354829,9.27348911 8.47463763,9.23323691 8.52727513,9.1929847 C8.18358321,9.4561722 7.80892806,9.67446301 7.41105048,9.84476081 C7.47297695,9.81844206 7.53490342,9.79212331 7.59528173,9.76735272 C7.17882621,9.942295 6.74224459,10.0599553 6.29482583,10.1203336 C6.36294495,10.1110446 6.43261223,10.1017557 6.50073135,10.0924667 C6.05640892,10.1497487 5.607442,10.1497487 5.16311956,10.0924667 C5.23123868,10.1017557 5.30090596,10.1110446 5.36902508,10.1203336 C4.92160632,10.0599553 4.4850247,9.942295 4.06856918,9.76735272 C4.13049565,9.79367147 4.19242212,9.81999022 4.25280043,9.84476081 C3.85492285,9.67601118 3.4802677,9.45772036 3.13657578,9.1929847 C3.18921328,9.23323691 3.24030262,9.27348911 3.29294012,9.31374132 C2.94615188,9.04590933 2.63497136,8.73318065 2.36713937,8.38794057 C2.40739158,8.44057807 2.44764379,8.49166741 2.48789599,8.54430491 C2.22470849,8.20061299 2.00641768,7.82595784 1.83611988,7.42808026 C1.86243863,7.49000673 1.88875738,7.5519332 1.91352797,7.61231151 C1.73858569,7.19585599 1.62092539,6.75927437 1.56054708,6.31185561 C1.56983605,6.37997473 1.57912502,6.44964201 1.58841399,6.51776113 C1.53113201,6.0734387 1.53113201,5.62447178 1.58841399,5.18014934 C1.57912502,5.24826846 1.56983605,5.31793574 1.56054708,5.38605486 C1.62092539,4.9386361 1.73858569,4.50205448 1.91352797,4.08559896 C1.88720922,4.14752543 1.86089047,4.2094519 1.83611988,4.26983021 C2.00486952,3.87195263 2.22316033,3.49729748 2.48789599,3.15360556 C2.44764379,3.20624306 2.40739158,3.2573324 2.36713937,3.3099699 C2.63497136,2.96318166 2.94770004,2.65200114 3.29294012,2.38416915 C3.24030262,2.42442136 3.18921328,2.46467357 3.13657578,2.50492577 C3.4802677,2.24173827 3.85492285,2.02344746 4.25280043,1.85314966 C4.19087396,1.87946841 4.12894749,1.90578716 4.06856918,1.93055775 C4.4850247,1.75561547 4.92160632,1.63795517 5.36902508,1.57757686 C5.30090596,1.58686583 5.23123868,1.5961548 5.16311956,1.60544377 C5.607442,1.54816179 6.05640892,1.54816179 6.50073135,1.60544377 C6.43261223,1.5961548 6.36294495,1.58686583 6.29482583,1.57757686 C6.74224459,1.63795517 7.17882621,1.75561547 7.59528173,1.93055775 C7.53335526,1.904239 7.47142879,1.87792025 7.41105048,1.85314966 C7.80892806,2.0218993 8.18358321,2.24019011 8.52727513,2.50492577 C8.47463763,2.46467357 8.42354829,2.42442136 8.37091079,2.38416915 C8.54275675,2.51885923 8.70841006,2.66283828 8.86322624,2.81765445 C9.00410896,2.95853718 9.21156264,3.04368608 9.41127551,3.04368608 C9.60169941,3.04368608 9.82773103,2.96008534 9.95932478,2.81765445 C10.0940149,2.67057908 10.1946454,2.47705886 10.1853564,2.26960518 C10.1760674,2.06524783 10.1064002,1.87017944 9.95932478,1.72155591 C9.1279619,0.896385675 8.03495968,0.304987872 6.8753865,0.111467649 C6.56265782,0.058830148 6.24528465,0.021674265 5.92791149,0.0154816179 C5.63685707,0.00928897073 5.34889898,0.0340595593 5.06094089,0.072763604 C4.77143463,0.111467649 4.48657286,0.162556988 4.20635558,0.244609563 C3.90136771,0.334402946 3.60412064,0.453611404 3.31461439,0.586753318 C2.78049857,0.834459204 2.28818312,1.18124744 1.85624598,1.57912502 C1.41501987,1.98629157 1.03262391,2.47396254 0.740021335,2.99878938 C0.461352213,3.5003938 0.247705886,4.0515394 0.131593752,4.61507029 C0.0154816179,5.17860118 -0.0325113976,5.76225818 0.0232224268,6.3366262 C0.0789562512,6.91718687 0.199712871,7.48381408 0.42419633,8.02257439 C0.548049273,8.31982145 0.681191187,8.61087587 0.851488984,8.8849005 C1.02333494,9.16511779 1.22459597,9.42985345 1.4382423,9.68065566 C1.82837907,10.1358152 2.30366474,10.5305965 2.81455813,10.841777 C3.30532542,11.1405722 3.85492285,11.3697002 4.41380926,11.5074866 C5.53003391,11.7830594 6.74843723,11.7366145 7.827506,11.329448 C8.12939755,11.214884 8.42819278,11.0848384 8.70995822,10.9253777 C8.99327183,10.7659171 9.25336301,10.573945 9.5088097,10.372684 C9.98254721,9.99802883 10.3866174,9.53667662 10.7194722,9.0350722 C11.358863,8.07211556 11.6917178,6.88622363 11.6653991,5.73129494 C11.6390803,4.57172176 11.2690697,3.39976329 10.5801377,2.46157724 C10.3881656,2.20148606 10.1853564,1.95223201 9.95777662,1.72310407 C9.81844206,1.58222135 9.60789206,1.49707245 9.40972735,1.49707245 C9.21930345,1.49707245 8.99327183,1.58067319 8.86167808,1.72310407 C8.726988,1.87017944 8.62635748,2.06369966 8.63564645,2.27115334 C8.64493543,2.4755107 8.71460271,2.66903092 8.86322624,2.81765445 Z" id="Path"></path>
                                <path d="M8.86322624,9.97325824 C9.23942955,10.3494616 9.61718103,10.727213 9.99338434,11.1034163 C10.5940711,11.7041031 11.1947579,12.3047899 11.7954447,12.9054767 C11.9332311,13.0432631 12.0725656,13.1825976 12.210352,13.320384 C12.3512347,13.4612667 12.5586884,13.5464156 12.7584013,13.5464156 C12.9488252,13.5464156 13.1748568,13.4628149 13.3064506,13.320384 C13.4411406,13.1733087 13.5417712,12.9797884 13.5324822,12.7723348 C13.5231932,12.5664292 13.4535259,12.372909 13.3064506,12.2242855 C12.9302473,11.8480822 12.5524958,11.4703307 12.1762925,11.0941274 C11.5756057,10.4934406 10.9749189,9.89275383 10.3742321,9.29206705 C10.2364457,9.15428065 10.0971112,9.01494609 9.95932478,8.87715969 C9.81844206,8.73627697 9.61098838,8.65112807 9.41127551,8.65112807 C9.22085161,8.65112807 8.99481999,8.73472881 8.86322624,8.87715969 C8.72853616,9.02423506 8.62790565,9.21775529 8.63719462,9.42520897 C8.64493543,9.63111448 8.71460271,9.82463471 8.86322624,9.97325824 L8.86322624,9.97325824 Z" id="Path"></path>
                            </g>
                        </g>
                    </g>
                </g>
            </g>
        </g>
    </g>
</svg>