<?xml version="1.0" encoding="UTF-8"?>
<svg width="16px" height="16px" viewBox="0 0 16 16" version="1.1" xmlns="http://www.w3.org/2000/svg" xmlns:xlink="http://www.w3.org/1999/xlink">
    <!-- Generator: Sketch 55.1 (78136) - https://sketchapp.com -->
    <title>icon_star</title>
    <desc>Created with Sketch.</desc>
    <g id="SP" stroke="none" stroke-width="1" fill="none" fill-rule="evenodd">
        <g id="menu_open_01" transform="translate(-341.000000, -633.000000)">
            <g id="menu" transform="translate(0.000000, 568.000000)">
                <g id="btn" transform="translate(0.222656, 26.000000)">
                    <g transform="translate(194.000000, 27.000000)" id="icon_star">
                        <g transform="translate(147.000000, 13.000000)">
                            <path d="M8.28725979,11.8369665 C8.28725979,14.9076452 5.99043835,7.12326779 3.39294434,7.08333333 C0.795450324,7.04339888 7.5,6.95048014 7.5,2.62776693 C7.5,-1.69494629 8.38611497,7.06670854 12.6415787,6.66666667 C16.8970425,6.26662479 8.28725979,8.76628776 8.28725979,11.8369665 Z" id="Path-17" fill="#FFD94A"></path>
                            <path d="M14.5297106,6.52844299 L11.7059325,5.58753446 C10.573274,5.20717671 9.68423333,4.31813609 9.30387557,3.18547753 L8.36296705,0.361699483 C8.27140604,0.159495073 8.06997972,0.0295893286 7.84801116,0.0295893286 C7.6260426,0.0295893286 7.42461627,0.159495073 7.33305527,0.361699483 L6.39214674,3.18547753 C6.01178899,4.31813609 5.12274836,5.20717671 3.9900898,5.58753446 L1.16631176,6.52844299 C0.944803376,6.60246654 0.795450324,6.80984921 0.795450324,7.04339888 C0.795450324,7.27694855 0.944803376,7.48433122 1.16631176,7.55835477 L3.9900898,8.4992633 C5.12274836,8.87962105 6.01178899,9.76866167 6.39214674,10.9013202 L7.33305527,13.7250983 C7.40707882,13.9466067 7.61446148,14.0959597 7.84801116,14.0959597 C8.08156083,14.0959597 8.2889435,13.9466067 8.36296705,13.7250983 L9.30387557,10.9013202 C9.68423333,9.76866167 10.573274,8.87962105 11.7059325,8.4992633 L14.5297106,7.55835477 C14.7512189,7.48433122 14.900572,7.27694855 14.900572,7.04339888 C14.900572,6.80984921 14.7512189,6.60246654 14.5297106,6.52844299 L14.5297106,6.52844299 Z M11.3626358,7.46935152 C9.90659595,7.95905061 8.76366289,9.10198368 8.2739638,10.5580235 L7.84801116,11.8369665 L7.42205852,10.5580561 C6.93235943,9.10201623 5.78942636,7.95908316 4.3333865,7.46938407 L3.05444357,7.04339888 L4.33335395,6.61744624 C5.78939381,6.12774715 6.93232688,4.98481408 7.42202597,3.52877422 L7.84801116,2.24983129 L8.2739638,3.52874167 C8.76366289,4.98478153 9.90659595,6.1277146 11.3626358,6.61741369 L12.6415787,7.04339888 L11.3626358,7.46935152 Z" id="Shape" stroke="#262626" stroke-width="0.3" fill="#262626" fill-rule="nonzero"></path>
                        </g>
                    </g>
                </g>
            </g>
        </g>
    </g>
</svg>