<?xml version="1.0" standalone="no"?>
<!DOCTYPE svg PUBLIC "-//W3C//DTD SVG 1.1//EN" "http://www.w3.org/Graphics/SVG/1.1/DTD/svg11.dtd" >
<svg xmlns="http://www.w3.org/2000/svg">
<metadata>Generated by IcoMoon</metadata>
<defs>
<font id="icomoon" horiz-adv-x="1024">
<font-face units-per-em="1024" ascent="960" descent="-64" />
<missing-glyph horiz-adv-x="1024" />
<glyph unicode="&#x20;" horiz-adv-x="512" d="" />
<glyph unicode="&#xe900;" horiz-adv-x="1308" d="M0 960h1024v-1024h-1024v1024zM113.778 846.222v-796.444h796.444v796.444h-796.444z" />
<glyph unicode="&#xe901;" glyph-name="search" d="M664.567 753.909c11.324-11.324 21.855-23.44 31.706-36.009-2.944 3.85-5.888 7.587-8.832 11.437 19.25-25.139 35.217-52.542 47.673-81.644-1.925 4.529-3.85 9.059-5.662 13.475 12.796-30.461 21.402-62.394 25.818-95.119-0.679 4.982-1.359 10.078-2.038 15.061 4.19-32.499 4.19-65.338 0-97.837 0.679 4.982 1.359 10.078 2.038 15.061-4.416-32.725-13.022-64.658-25.818-95.119 1.925 4.529 3.85 9.059 5.662 13.475-12.343-29.102-28.309-56.505-47.673-81.644 2.944 3.85 5.888 7.587 8.832 11.437-19.59-25.365-42.464-48.126-67.716-67.716 3.85 2.944 7.587 5.888 11.437 8.832-25.139-19.25-52.542-35.217-81.644-47.673 4.529 1.925 9.059 3.85 13.475 5.662-30.461-12.796-62.394-21.402-95.119-25.818 4.982 0.679 10.078 1.359 15.061 2.038-32.499-4.19-65.338-4.19-97.837 0 4.982-0.679 10.078-1.359 15.061-2.038-32.725 4.416-64.658 13.022-95.119 25.818 4.529-1.925 9.059-3.85 13.475-5.662-29.102 12.343-56.505 28.309-81.644 47.673 3.85-2.944 7.587-5.888 11.437-8.832-25.365 19.59-48.126 42.464-67.716 67.716 2.944-3.85 5.888-7.587 8.832-11.437-19.25 25.139-35.217 52.542-47.673 81.644 1.925-4.529 3.85-9.059 5.662-13.475-12.796 30.461-21.402 62.394-25.818 95.119 0.679-4.982 1.359-10.078 2.038-15.061-4.19 32.499-4.19 65.338 0 97.837-0.679-4.982-1.359-10.078-2.038-15.061 4.416 32.725 13.022 64.658 25.818 95.119-1.925-4.529-3.85-9.059-5.662-13.475 12.343 29.102 28.309 56.505 47.673 81.644-2.944-3.85-5.888-7.587-8.832-11.437 19.59 25.365 42.464 48.126 67.716 67.716-3.85-2.944-7.587-5.888-11.437-8.832 25.139 19.25 52.542 35.217 81.644 47.673-4.529-1.925-9.059-3.85-13.475-5.662 30.461 12.796 62.394 21.402 95.119 25.818-4.982-0.679-10.078-1.359-15.061-2.038 32.499 4.19 65.338 4.19 97.837 0-4.982 0.679-10.078 1.359-15.061 2.038 32.725-4.416 64.658-13.022 95.119-25.818-4.529 1.925-9.059 3.85-13.475 5.662 29.102-12.343 56.505-28.309 81.644-47.673-3.85 2.944-7.587 5.888-11.437 8.832 12.569-9.852 24.686-20.383 36.009-31.706 10.305-10.305 25.478-16.533 40.086-16.533 13.928 0 30.461 6.115 40.086 16.533 9.852 10.758 17.212 24.912 16.533 40.086-0.679 14.947-5.775 29.215-16.533 40.086-60.808 60.355-140.754 103.612-225.568 117.766-22.874 3.85-46.087 6.568-69.301 7.021-21.289 0.453-42.351-1.359-63.413-4.19-21.175-2.831-42.011-6.568-62.507-12.569-22.308-6.568-44.049-15.287-65.224-25.025-39.067-18.118-75.076-43.483-106.669-72.585-32.273-29.781-60.242-65.451-81.644-103.838-20.383-36.689-36.009-77.001-44.502-118.219s-12.003-83.909-7.927-125.92c4.077-42.464 12.909-83.909 29.328-123.315 9.059-21.741 18.797-43.030 31.253-63.073 12.569-20.496 27.29-39.859 42.917-58.204 28.536-33.292 63.299-62.167 100.668-84.928 35.896-21.855 76.095-38.614 116.974-48.692 81.644-20.156 170.761-16.759 249.688 13.022 22.081 8.38 43.936 17.891 64.545 29.555 20.722 11.663 39.746 25.705 58.43 40.426 34.651 27.403 64.205 61.148 88.551 97.837 46.767 70.433 71.113 157.173 69.188 241.648-1.925 84.814-28.989 170.535-79.379 239.156-14.041 19.024-28.875 37.255-45.521 54.014-10.191 10.305-25.592 16.533-40.086 16.533-13.928 0-30.461-6.115-40.086-16.533-9.852-10.758-17.212-24.912-16.533-40.086 0.679-14.947 5.775-29.102 16.646-39.973zM664.567 230.527c27.517-27.517 55.146-55.146 82.663-82.663 43.936-43.936 87.872-87.872 131.808-131.808 10.078-10.078 20.269-20.269 30.348-30.348 10.305-10.305 25.478-16.533 40.086-16.533 13.928 0 30.461 6.115 40.086 16.533 9.852 10.758 17.212 24.912 16.533 40.086-0.679 15.061-5.775 29.215-16.533 40.086-27.517 27.517-55.146 55.146-82.663 82.663-43.936 43.936-87.872 87.872-131.808 131.808-10.078 10.078-20.269 20.269-30.348 30.348-10.305 10.305-25.478 16.533-40.086 16.533-13.928 0-30.461-6.115-40.086-16.533-9.852-10.758-17.212-24.912-16.533-40.086 0.566-15.061 5.662-29.215 16.533-40.086v0z" />
<glyph unicode="&#xe902;" d="M1016.264 451.868c0 280.663-227.468 508.132-508.132 508.132s-508.132-227.468-508.132-508.132c0-253.669 185.786-463.869 428.736-501.979v355.097h-129.018v146.882h129.018v111.948c0 127.331 75.823 197.695 191.939 197.695 55.577 0 113.734-9.924 113.734-9.924v-125.048h-64.112c-63.12 0-82.77-39.202-82.77-79.396v-95.275h140.927l-22.528-146.882h-118.399v-355.097c242.951 38.11 428.736 248.31 428.736 501.979z" />
<glyph unicode="&#xe903;" d="M705.926 304.986l22.528 146.882h-140.927v95.275c0 40.194 19.65 79.396 82.77 79.396h64.112v125.048c0 0-58.157 9.924-113.734 9.924-116.116 0-191.939-70.364-191.939-197.695v-111.948h-129.018v-146.882h129.018v-355.097c25.903-4.069 52.401-6.153 79.396-6.153s53.493 2.084 79.396 6.153v355.097h118.399z" />
<glyph unicode="&#xe904;" glyph-name="instagram" d="M506.374 960c-137.537 0-154.753-0.563-208.767-3.038-53.901-2.476-90.725-11.028-122.936-23.546-33.786-12.714-64.392-32.644-89.684-58.402-25.753-25.296-45.682-55.901-58.402-89.684-12.519-32.211-21.099-69.036-23.546-122.964-2.447-53.985-3.038-71.174-3.038-208.738s0.563-154.753 3.038-208.767c2.476-53.901 11.028-90.725 23.546-122.936 12.714-33.786 32.644-64.392 58.402-89.684 28.132-28.132 56.404-45.461 89.684-58.402 32.211-12.519 69.036-21.099 122.936-23.546 54.013-2.447 71.23-3.038 208.767-3.038s154.753 0.563 208.767 3.038c53.901 2.476 90.725 11.028 122.936 23.546 33.786 12.715 64.392 32.645 89.684 58.402 28.132 28.132 45.461 56.404 58.402 89.684 12.519 32.211 21.099 69.036 23.546 122.936 2.447 54.013 3.038 71.23 3.038 208.767s-0.563 154.753-3.038 208.767c-2.476 53.901-11.028 90.725-23.546 122.936-12.715 33.786-32.645 64.392-58.402 89.684-25.296 25.753-55.901 45.682-89.684 58.402-32.211 12.519-69.036 21.099-122.964 23.546-53.985 2.447-71.174 3.038-208.738 3.038zM506.374 868.768c135.202 0 151.237-0.535 204.631-2.954 49.371-2.251 76.181-10.493 94.017-17.442 23.631-9.171 40.51-20.171 58.233-37.865 17.723-17.723 28.695-34.602 37.865-58.233 6.949-17.836 15.191-44.645 17.442-94.017 2.419-53.394 2.954-69.429 2.954-204.631s-0.535-151.237-2.954-204.631c-2.251-49.371-10.493-76.181-17.442-94.017-8.112-21.997-21.051-41.896-37.865-58.233-17.723-17.723-34.602-28.695-58.233-37.865-17.836-6.949-44.645-15.191-94.017-17.442-53.394-2.419-69.401-2.954-204.631-2.954s-151.237 0.535-204.631 2.954c-49.371 2.251-76.181 10.493-94.017 17.442-21.997 8.112-41.896 21.051-58.233 37.865-16.814 16.338-29.753 36.237-37.865 58.233-6.949 17.836-15.191 44.645-17.442 94.017-2.419 53.394-2.954 69.429-2.954 204.631s0.535 151.237 2.954 204.631c2.251 49.371 10.493 76.181 17.442 94.017 9.171 23.631 20.171 40.51 37.865 58.233 17.723 17.723 34.602 28.695 58.233 37.865 17.836 6.949 44.645 15.191 94.017 17.442 53.394 2.419 69.429 2.954 204.631 2.954v0zM506.374 284.666c-60.364 0-116.142 32.204-146.324 84.48s-30.182 116.684 0 168.96c30.182 52.276 85.96 84.48 146.324 84.48 93.314 0 168.96-75.646 168.96-168.96s-75.646-168.96-168.96-168.96zM506.374 713.902c-143.746 0-260.276-116.53-260.276-260.276s116.53-260.276 260.276-260.276c143.746 0 260.276 116.53 260.276 260.276s-116.53 260.276-260.276 260.276v0zM842.381 718.629c0-33.979-27.545-61.524-61.524-61.524s-61.524 27.545-61.524 61.524c0 33.979 27.545 61.524 61.524 61.524s61.524-27.545 61.524-61.524v0z" />
<glyph unicode="&#xe905;" horiz-adv-x="1308" d="M572.701 537.325l-110.688 110.688c-66.649 66.649-174.71 66.649-241.359 0s-66.649-174.71 0-241.359l222.222-222.222c62.969-62.969 163.768-66.939 231.494-9.117l567.167 484.222c71.685 61.201 80.183 168.927 18.982 240.612s-168.927 80.183-240.612 18.982l-447.206-381.805z" />
<glyph unicode="&#xe906;" horiz-adv-x="1308" d="M568.128 421.218l-166.455 166.455c-33.325 33.325-87.355 33.325-120.68 0s-33.325-87.355 0-120.68l222.222-222.222c31.484-31.484 81.884-33.469 115.747-4.559l567.167 484.222c35.842 30.601 40.092 84.463 9.491 120.306s-84.463 40.092-120.306 9.491l-507.187-433.014z" />
<glyph unicode="&#xe907;" glyph-name="btn" d="M512-64c282.77 0 512 229.23 512 512s-229.23 512-512 512c-282.77 0-512-229.23-512-512s229.23-512 512-512zM512 6.621c-243.767 0-441.379 197.612-441.379 441.379s197.612 441.379 441.379 441.379c243.767 0 441.379-197.612 441.379-441.379s-197.612-441.379-441.379-441.379zM289.55 417.986h419.381c16.576 0 30.014 13.438 30.014 30.014s-13.438 30.014-30.014 30.014h-419.381c-16.576 0-30.014-13.438-30.014-30.014s13.438-30.014 30.014-30.014zM698.139 453.149l-100.974-96.767c-11.968-11.469-12.372-30.469-0.903-42.436s30.469-12.372 42.436-0.903l123.586 118.437c12.329 11.816 12.329 31.523 0 43.339l-123.586 118.437c-11.968 11.469-30.967 11.065-42.436-0.903s-11.065-30.967 0.903-42.436l100.974-96.767z" />
<glyph unicode="&#xe908;" d="M799.345 538.353c0-199.602-161.81-361.412-361.412-361.412s-361.412 161.81-361.412 361.412c0 199.602 161.81 361.412 361.412 361.412s361.412-161.81 361.412-361.412z" />
<glyph unicode="&#xe909;" d="M664.567 753.909c11.324-11.324 21.855-23.44 31.706-36.009-2.944 3.85-5.888 7.587-8.832 11.437 19.25-25.139 35.217-52.542 47.673-81.644-1.925 4.529-3.85 9.059-5.662 13.475 12.796-30.461 21.402-62.394 25.818-95.119-0.679 4.982-1.359 10.078-2.038 15.061 4.19-32.499 4.19-65.338 0-97.837 0.679 4.982 1.359 10.078 2.038 15.061-4.416-32.725-13.022-64.658-25.818-95.119 1.925 4.529 3.85 9.059 5.662 13.475-12.343-29.102-28.309-56.505-47.673-81.644 2.944 3.85 5.888 7.587 8.832 11.437-19.59-25.365-42.464-48.126-67.716-67.716 3.85 2.944 7.587 5.888 11.437 8.832-25.139-19.25-52.542-35.217-81.644-47.673 4.529 1.925 9.059 3.85 13.475 5.662-30.461-12.796-62.394-21.402-95.119-25.818 4.982 0.679 10.078 1.359 15.061 2.038-32.499-4.19-65.338-4.19-97.837 0 4.982-0.679 10.078-1.359 15.061-2.038-32.725 4.416-64.658 13.022-95.119 25.818 4.529-1.925 9.059-3.85 13.475-5.662-29.102 12.343-56.505 28.309-81.644 47.673 3.85-2.944 7.587-5.888 11.437-8.832-25.365 19.59-48.126 42.464-67.716 67.716 2.944-3.85 5.888-7.587 8.832-11.437-19.25 25.139-35.217 52.542-47.673 81.644 1.925-4.529 3.85-9.059 5.662-13.475-12.796 30.461-21.402 62.394-25.818 95.119 0.679-4.982 1.359-10.078 2.038-15.061-4.19 32.499-4.19 65.338 0 97.837-0.679-4.982-1.359-10.078-2.038-15.061 4.416 32.725 13.022 64.658 25.818 95.119-1.925-4.529-3.85-9.059-5.662-13.475 12.343 29.102 28.309 56.505 47.673 81.644-2.944-3.85-5.888-7.587-8.832-11.437 19.59 25.365 42.464 48.126 67.716 67.716-3.85-2.944-7.587-5.888-11.437-8.832 25.139 19.25 52.542 35.217 81.644 47.673-4.529-1.925-9.059-3.85-13.475-5.662 30.461 12.796 62.394 21.402 95.119 25.818-4.982-0.679-10.078-1.359-15.061-2.038 32.499 4.19 65.338 4.19 97.837 0-4.982 0.679-10.078 1.359-15.061 2.038 32.725-4.416 64.658-13.022 95.119-25.818-4.529 1.925-9.059 3.85-13.475 5.662 29.102-12.343 56.505-28.309 81.644-47.673-3.85 2.944-7.587 5.888-11.437 8.832 12.569-9.852 24.686-20.383 36.009-31.706 10.305-10.305 25.478-16.533 40.086-16.533 13.928 0 30.461 6.115 40.086 16.533 9.852 10.758 17.212 24.912 16.533 40.086-0.679 14.947-5.775 29.215-16.533 40.086-60.808 60.355-140.754 103.612-225.568 117.766-22.874 3.85-46.087 6.568-69.301 7.021-21.289 0.453-42.351-1.359-63.413-4.19-21.175-2.831-42.011-6.568-62.507-12.569-22.308-6.568-44.049-15.287-65.224-25.025-39.067-18.118-75.076-43.483-106.669-72.585-32.273-29.781-60.242-65.451-81.644-103.838-20.383-36.689-36.009-77.001-44.502-118.219s-12.003-83.909-7.927-125.92c4.077-42.464 12.909-83.909 29.328-123.315 9.059-21.741 18.797-43.030 31.253-63.073 12.569-20.496 27.29-39.859 42.917-58.204 28.536-33.292 63.299-62.167 100.668-84.928 35.896-21.855 76.095-38.614 116.974-48.692 81.644-20.156 170.761-16.759 249.688 13.022 22.081 8.38 43.936 17.891 64.545 29.555 20.722 11.663 39.746 25.705 58.43 40.426 34.651 27.403 64.205 61.148 88.551 97.837 46.767 70.433 71.113 157.173 69.188 241.648-1.925 84.814-28.989 170.535-79.379 239.156-14.041 19.024-28.875 37.255-45.521 54.014-10.191 10.305-25.592 16.533-40.086 16.533-13.928 0-30.461-6.115-40.086-16.533-9.852-10.758-17.212-24.912-16.533-40.086 0.679-14.947 5.775-29.102 16.646-39.973z" />
<glyph unicode="&#xe90a;" glyph-name="twitter" d="M321.683 18.802c386.004 0 597.132 319.801 597.132 597.132 0 9.083 0 18.126-0.614 27.127 41.073 29.709 76.528 66.494 104.705 108.633-38.303-16.972-78.934-28.102-120.539-33.019 43.811 26.228 76.6 67.48 92.266 116.079-41.196-24.446-86.266-41.674-133.264-50.941-65.053 69.173-168.423 86.104-252.144 41.298s-126.974-140.205-105.505-232.704c-168.743 8.459-325.96 88.161-432.526 219.27-55.702-95.893-27.251-218.569 64.975-280.153-33.398 0.99-66.068 9.999-95.253 26.268 0-0.859 0-1.759 0-2.66 0.027-99.901 70.448-185.945 168.37-205.727-30.897-8.426-63.315-9.658-94.762-3.601 27.494-85.491 106.283-144.057 196.071-145.744-74.315-58.405-166.118-90.111-260.636-90.016-16.698 0.032-33.379 1.043-49.959 3.028 95.975-61.59 207.646-94.259 321.683-94.107z" />
<glyph unicode="&#xe90b;" d="M664.567 230.527c27.517-27.517 55.146-55.146 82.663-82.663 43.936-43.936 87.872-87.872 131.808-131.808 10.078-10.078 20.269-20.269 30.348-30.348 10.305-10.305 25.478-16.533 40.086-16.533 13.928 0 30.461 6.115 40.086 16.533 9.852 10.758 17.212 24.912 16.533 40.086-0.679 15.061-5.775 29.215-16.533 40.086-27.517 27.517-55.146 55.146-82.663 82.663-43.936 43.936-87.872 87.872-131.808 131.808-10.078 10.078-20.269 20.269-30.348 30.348-10.305 10.305-25.478 16.533-40.086 16.533-13.928 0-30.461-6.115-40.086-16.533-9.852-10.758-17.212-24.912-16.533-40.086 0.566-15.061 5.662-29.215 16.533-40.086v0z" />
<glyph unicode="&#xe90c;" glyph-name="arrow" d="M853.333 490.667h-561.92l122.88 122.88c16.64 16.64 16.64 43.52 0 60.16s-43.52 16.64-60.16 0l-195.84-195.84c-16.64-16.64-16.64-43.52 0-60.16l195.84-195.84c16.64-16.64 43.52-16.64 60.16 0s16.64 43.52 0 60.16l-122.88 123.307h561.92c23.467 0 42.667 19.2 42.667 42.667s-19.2 42.667-42.667 42.667z" />
<glyph unicode="&#xe90d;" d="M1024 448c0-282.77-229.23-512-512-512s-512 229.23-512 512c0 282.77 229.23 512 512 512s512-229.23 512-512z" />
<glyph unicode="&#xe90e;" d="M251.617 413.867h463.317c18.851 0 34.133 15.282 34.133 34.133s-15.282 34.133-34.133 34.133h-463.317c-18.851 0-34.133-15.282-34.133-34.133s15.282-34.133 34.133-34.133z" />
<glyph unicode="&#xe90f;" d="M590.783 347.488c-13.61-13.043-14.070-34.65-1.027-48.261s34.65-14.070 48.261-1.027l136.533 130.844c14.022 13.437 14.022 35.85 0 49.288l-136.533 130.844c-13.61 13.043-35.218 12.584-48.261-1.027s-12.584-35.218 1.027-48.261l110.818-106.201-110.818-106.201z" />
<glyph unicode="&#xe910;" horiz-adv-x="827" d="M413.538-4.923l-344.125 374.154c-17.045 102.028-6.619 164.621 31.279 187.779 56.846 34.736 143.637 81.505 192.202 34.736 32.377-31.179 73.841-63.383 124.394-96.611 73.551 76.205 120.583 114.308 141.096 114.308 30.769 0 170.673 4.673 183.375-73.327s32.836-152.133 0-190.885c-21.891-25.834-131.298-142.552-328.221-350.154z" />
<glyph unicode="&#xe911;" glyph-name="tab" horiz-adv-x="1229" d="M1063.073-35.199h-699.399c-65.981 0-112.167 46.187-112.167 112.167v26.393h92.373v-26.393c0-13.195 6.599-19.794 19.794-19.794h699.399c13.195 0 19.794 6.599 19.794 19.794v501.455c0 13.195-13.195 19.794-19.794 19.794h-26.393v92.373h26.393c59.382 0 112.167-52.785 112.167-112.167v-501.455c0-65.981-46.187-112.167-112.167-112.167zM865.131 162.743h-699.399c-65.981 0-112.167 46.187-112.167 112.167v501.455c0 65.981 46.187 112.167 112.167 112.167h699.399c65.981 0 112.167-46.187 112.167-112.167v-501.455c0-65.981-46.187-112.167-112.167-112.167zM165.733 796.161c-13.195 0-19.794-6.599-19.794-19.794v-501.455c0-13.195 6.599-19.794 19.794-19.794h699.399c13.195 0 19.794 6.599 19.794 19.794v501.455c0 13.195-6.599 19.794-19.794 19.794h-699.399z" />
<glyph unicode="&#xe912;" horiz-adv-x="827" d="M235.513 636.606c-50.439 0-100.721-20.094-138.875-60.131-76.307-80.074-76.215-208.356 0-288.488l300.18-315.689c4.324-4.537 10.317-7.104 16.584-7.104s12.26 2.567 16.584 7.104c100.184 105.13 200.233 210.319 300.418 315.451 76.306 80.075 76.307 208.413 0 288.488s-201.68 80.077-277.988 0l-38.895-40.565-38.894 40.803c-38.154 40.038-88.675 60.131-139.114 60.131v0zM235.513 591.746c38.091 0 76.263-15.621 105.946-46.769l55.598-58.461c4.324-4.536 10.317-7.104 16.584-7.104s12.26 2.567 16.584 7.104l55.359 58.222c59.365 62.297 152.288 62.296 211.653 0 59.363-62.295 59.363-163.197 0-225.493-94.634-99.307-189.081-198.726-283.716-298.033l-283.715 298.271c-59.327 62.376-59.364 163.199 0 225.493 29.682 31.148 67.616 46.769 105.707 46.769v0z" />
<glyph unicode="&#xe913;" horiz-adv-x="827" d="M136.652 840.652l48.856-48.856c11.535-11.535 30.238-11.535 41.774 0s11.535 30.238 0 41.774l-48.856 48.856c-11.535 11.535-30.238 11.535-41.774 0s-11.535-30.238 0-41.774z" />
<glyph unicode="&#xe914;" horiz-adv-x="827" d="M703.646 840.652l-48.856-48.856c-11.535-11.535-30.238-11.535-41.774 0s-11.535 30.238 0 41.774l48.856 48.856c11.535 11.535 30.238 11.535 41.774 0s11.535-30.238 0-41.774z" />
<glyph unicode="&#xe915;" horiz-adv-x="827" d="M387.75 920.615v-78.769c0-16.314 13.225-29.538 29.538-29.538s29.538 13.225 29.538 29.538v78.769c0 16.314-13.225 29.538-29.538 29.538s-29.538-13.225-29.538-29.538z" />
<glyph unicode="&#xe916;" horiz-adv-x="731" d="M191.826 649.143l15.672-44.209 49.060-50.112v-41.228l-12.549-50.129c13.399-10.405 20.098-15.607 20.098-15.607s28.223-3.014 40.295 6.297c12.071 9.31 20.085 9.31 28.536 9.31s25.652 9.589 32.73 9.589c7.078 0 15.645 0 15.645 0s30.085-18.9 36.554-18.9c6.469 0 25.955-6.297 35.259-6.297 6.202 0 17.037 0 32.504 0 0 17.158 0 27.67 0 31.536 0 5.799 0 34.201 0 34.201s-2.408 13.743-7.223 41.228c4.176 27.006 8.881 40.51 14.116 40.51 7.853 0 22.488 17.129 32.001 23.83s18.772 29.982 18.772 29.982c0 0-6.61 16.768-18.772 16.768s-47.59-6.196-55.487 0c-7.897 6.196-32.438 14.75-41.804 14.75s-18.808 2.996-27.049 20.080c-8.241 17.085-18.871 23.295-18.871 32.875s13.752 13.601 0 22.093c-9.168 5.661-17.875 10.123-26.121 13.385l-13.853-27.83c-5.601-11.75-8.402-17.625-8.402-17.625s-12.478-22.897-12.478-22.897c0 0-3.362-7.969-9.71-7.969s-2.375-12.112-17.768-12.112c-15.393 0-21.326 0-28.875 0s-20.098 0-20.098 0c0 0-5.424-14.75-15.21-14.75-6.524 0-18.848-5.589-36.973-16.768z" />
<glyph unicode="&#xe917;" horiz-adv-x="731" d="M274.286 276.576v-259.5l93.275 43.929 96.533-51.558v275.004z" />
<glyph unicode="&#xe918;" horiz-adv-x="731" d="M524.019 641.256c0.564-1.729 1.453-6.168-2.471-9.979l-52.512-51.037c-11.379-11.057-16.569-26.977-13.882-42.588l12.396-72.063c0.928-5.385-2.406-8.451-3.882-9.522-1.478-1.069-5.439-3.28-10.286-0.741l-64.912 34.025c-7.031 3.684-14.744 5.529-22.459 5.529-7.713 0-15.425-1.844-22.459-5.529l-64.91-34.025c-4.85-2.539-8.81-0.328-10.286 0.741-1.478 1.071-4.81 4.137-3.884 9.522l12.398 72.063c2.685 15.611-2.504 31.53-13.88 42.588l-52.516 51.037c-3.925 3.811-3.035 8.25-2.471 9.979 0.564 1.731 2.462 5.839 7.884 6.624l72.571 10.516c15.724 2.276 29.311 12.114 36.342 26.319l32.456 65.565c2.425 4.899 6.931 5.429 8.756 5.429s6.331-0.53 8.756-5.429l32.456-65.565c7.033-14.204 20.618-24.043 36.338-26.319l72.576-10.516c5.422-0.785 7.318-4.893 7.882-6.624v0zM441.745 701.702l-32.456 65.565c-8.192 16.543-24.776 26.821-43.279 26.821s-35.085-10.278-43.277-26.821l-32.458-65.565c-1.421-2.875-4.169-4.865-7.353-5.323l-72.573-10.516c-18.313-2.654-33.239-15.2-38.96-32.745-5.719-17.547-1.037-36.449 12.213-49.323l52.516-51.037c2.3-2.238 3.351-5.458 2.806-8.616l-12.398-72.063c-3.128-18.182 4.229-36.213 19.198-47.059 14.975-10.844 34.444-12.247 50.828-3.663l64.912 34.025c2.849 1.491 6.248 1.489 9.091 0l64.91-34.025c7.124-3.732 14.834-5.577 22.505-5.577 9.965 0 19.864 3.113 28.323 9.241 14.971 10.846 22.326 28.877 19.198 47.059l-12.396 72.063c-0.547 3.159 0.504 6.379 2.808 8.616l52.512 51.037c13.252 12.874 17.931 31.776 12.213 49.323-5.719 17.545-20.647 30.091-38.958 32.745l-72.578 10.516c-3.18 0.459-5.928 2.449-7.349 5.323v0zM656.268 475.326l-170.229-169.713h-240.742l-170.229 169.713v240.009l170.229 169.715h240.742l170.229-169.715v-240.009zM543.794-7.032l-56.683 26.983v247.283h6.898c5.106 0 9.999 2.021 13.61 5.619l36.175 36.065v-315.95zM357.374 73.813l-74.653-35.539v228.959h165.895v-228.959l-74.655 35.539c-2.622 1.247-5.459 1.871-8.294 1.871-2.833 0-5.67-0.624-8.292-1.871v0zM187.539 308.915l36.173-36.063c3.611-3.598 8.506-5.619 13.612-5.619h6.9v-247.283l-56.685-26.983v315.948zM689.126 736.854l-181.507 180.954c-3.611 3.598-8.504 5.621-13.61 5.621h-256.685c-5.106 0-10.001-2.023-13.612-5.621l-181.503-180.954c-3.609-3.6-5.638-8.48-5.638-13.569v-255.909c0-5.089 2.029-9.969 5.638-13.569l106.834-106.512v-384.756c0-6.588 3.391-12.717 8.983-16.231 3.122-1.963 6.687-2.959 10.267-2.959 2.826 0 5.661 0.622 8.292 1.873l95.16 45.299c0.006 0.002 0.013 0.004 0.019 0.008l93.901 44.702 93.905-44.702c0.006-0.002 0.010-0.004 0.015-0.008l95.164-45.299c5.963-2.836 12.971-2.427 18.559 1.086 5.592 3.514 8.981 9.643 8.981 16.231v384.756l106.836 106.512c3.609 3.6 5.638 8.48 5.638 13.569v255.909c0 5.089-2.029 9.969-5.638 13.569v0z" />
<glyph unicode="&#xe919;" horiz-adv-x="757" d="M244.87 156.902h346.902c68.732-4.213 103.098-24.564 103.098-61.054 0-54.735 2.752-95.13-65.722-95.13-45.649 0-228.165 4.975-547.548 14.924-36.733 94.174-29.832 141.261 20.704 141.261s98.058 0 142.565 0z" />
<glyph unicode="&#xe91a;" horiz-adv-x="757" d="M445.217 448c0-36.883-29.9-66.783-66.783-66.783s-66.783 29.9-66.783 66.783c0 36.883 29.9 66.783 66.783 66.783s66.783-29.9 66.783-66.783z" />
<glyph unicode="&#xe91b;" horiz-adv-x="757" d="M635.061 192.487h-37.843l104.070 335.861c3.302 10.974 1.099 22.867-5.913 31.93l-288.557 381.983c-6.7 8.934-17.216 14.191-28.383 14.191s-21.682-5.258-28.383-14.191l-289.739-381.983c-7.012-9.064-9.215-20.957-5.913-31.93l104.070-335.861h-36.661c-61.395 0-111.165-49.77-111.165-111.165s49.77-111.165 111.165-111.165h513.252c61.395 0 111.165 49.77 111.165 111.165s-49.77 111.165-111.165 111.165zM409.183 468.035c0-16.982-13.766-30.748-30.748-30.748s-30.748 13.766-30.748 30.748c0 16.982 13.766 30.748 30.748 30.748s30.748-13.766 30.748-30.748zM127.722 531.896l215.235 283.826v-253.078c-46.125-17.169-73.339-64.902-64.616-113.34s50.877-83.68 100.094-83.68c49.217 0 91.372 35.242 100.094 83.68s-18.491 96.171-64.616 113.34v253.078l215.235-283.826-106.435-339.409h-288.557l-106.435 339.409zM635.061 41.113h-513.252c-22.207 0-40.209 18.002-40.209 40.209s18.002 40.209 40.209 40.209h513.252c22.207 0 40.209-18.002 40.209-40.209s-18.002-40.209-40.209-40.209z" />
<glyph unicode="&#xe91c;" horiz-adv-x="922" d="M25.6-7.863c82.308 245.394 164.817 374.186 247.525 386.377 124.062 18.286 284.95 66.211 362.4-28.264s238.425-174.675 238.425-294.462c0-79.858-282.783-101.075-848.35-63.65z" />
<glyph unicode="&#xe91d;" horiz-adv-x="922" d="M460.8 949.029c-126.727 0-230.4-103.673-230.4-230.4s103.673-230.4 230.4-230.4c126.727 0 230.4 103.673 230.4 230.4s-103.673 230.4-230.4 230.4zM460.8 861.257c79.292 0 142.629-63.337 142.629-142.629s-63.336-142.629-142.629-142.629c-79.292 0-142.629 63.337-142.629 142.629s63.336 142.629 142.629 142.629zM460.8 466.285c-255.222 0-460.8-217.837-460.8-482.743 0-24.236 19.649-43.886 43.886-43.886h833.829c24.236 0 43.886 19.649 43.886 43.886 0 264.906-205.578 482.743-460.8 482.743v0zM460.8 378.514c191.254 0 348.112-152.539 368.914-351.086h-737.829c20.803 198.547 177.66 351.086 368.914 351.086v0z" />
<glyph unicode="&#xe91e;" d="M77.958-53.17c-30.916-10.427-64.432 6.182-74.859 37.098-2.052 6.083-3.098 12.461-3.098 18.881v898.114c0 32.627 26.45 59.077 59.077 59.077h787.692c32.627 0 59.077-26.45 59.077-59.077v-897.224c0-32.627-26.45-59.077-59.077-59.077-7.018 0-13.979 1.25-20.558 3.692l-354.129 131.447-394.125-132.932zM59.077 920.615c-10.876 0-19.692-8.817-19.692-19.692v-898.114c0-2.14 0.349-4.266 1.033-6.294 3.476-10.305 14.648-15.842 24.953-12.366l407.341 137.389 367.205-136.301c2.193-0.814 4.513-1.231 6.853-1.231 10.876 0 19.692 8.817 19.692 19.692v897.224c0 10.876-8.817 19.692-19.692 19.692h-787.692z" />
<glyph unicode="&#xe91f;" d="M59.077 920.615h787.692c10.876 0 19.692-8.817 19.692-19.692v-897.224c0-10.876-8.817-19.692-19.692-19.692-2.339 0-4.66 0.417-6.853 1.231l-367.205 136.301-407.341-137.389c-10.305-3.476-21.477 2.061-24.953 12.366-0.684 2.028-1.033 4.154-1.033 6.294v898.114c0 10.876 8.817 19.692 19.692 19.692z" />
<glyph unicode="&#xe920;" d="M907.128 898.79v-86.482c0-5.438 4.408-9.846 9.846-9.846h97.968c5.438 0 9.846 4.408 9.846 9.846 0 2.824-1.213 5.512-3.33 7.382l-97.968 86.482c-4.077 3.599-10.299 3.211-13.898-0.865-1.588-1.799-2.465-4.116-2.465-6.516z" />
<glyph unicode="&#xe921;" horiz-adv-x="1132" d="M296.421 16.842c-62.842 19.895-94.263 68.035-94.263 144.421s0 214.798 0 415.237l357.518 319.132 361.877-319.132v-507.131l-625.132-52.527z" />
<glyph unicode="&#xe922;" horiz-adv-x="1132" d="M592.759 942.588c-18.859 16.792-47.307 16.792-66.166 0l-509.305-453.089c-20.607-18.271-22.5-49.788-4.229-70.395s49.788-22.5 70.395-4.229l65.793 59.326v-355.083c0-82.427 66.82-149.247 149.247-149.247h522.364c82.427 0 149.247 66.82 149.247 149.247v355.083l66.415-59.077c20.607-18.271 52.124-16.378 70.395 4.229s16.378 52.124-4.229 70.395l-509.927 452.84zM870.607 119.118c0-27.476-22.273-49.749-49.749-49.749h-522.364c-27.476 0-49.749 22.273-49.749 49.749v443.512l310.931 276.107 310.931-276.107v-443.512z" />
<glyph unicode="&#xe923;" d="M544.635 138.434c0-196.523-146.997 301.677-313.236 304.233s262.852 8.503 262.852 285.156c0 276.654 56.711-284.092 329.061-258.49s-278.676-134.376-278.676-330.899z" />
<glyph unicode="&#xe924;" d="M944.151 478.18l-180.722 60.218c-72.49 24.343-129.389 81.241-153.732 153.732l-60.218 180.722c-5.86 12.941-18.751 21.255-32.957 21.255s-27.097-8.314-32.957-21.255l-60.218-180.722c-24.343-72.49-81.241-129.389-153.732-153.732l-180.722-60.218c-14.177-4.738-23.735-18.010-23.735-32.957s9.559-28.22 23.735-32.957l180.722-60.218c72.49-24.343 129.389-81.241 153.732-153.732l60.218-180.722c4.738-14.177 18.010-23.735 32.957-23.735s28.22 9.559 32.957 23.735l60.218 180.722c24.343 72.49 81.241 129.389 153.732 153.732l180.722 60.218c14.177 4.738 23.735 18.010 23.735 32.957s-9.559 28.22-23.735 32.957v0zM741.459 417.962c-93.187-31.341-166.334-104.488-197.675-197.675l-27.261-81.852-27.261 81.85c-31.341 93.187-104.488 166.334-197.675 197.675l-81.852 27.263 81.85 27.261c93.187 31.341 166.334 104.488 197.675 197.675l27.263 81.852 27.261-81.85c31.341-93.187 104.488-166.334 197.675-197.675l81.852-27.263-81.852-27.261z" />
<glyph unicode="&#xe925;" glyph-name="line" horiz-adv-x="396" d="M269.54 907.518l-239.383-893.388c-7.083-26.432 8.604-53.602 35.036-60.684s53.602 8.604 60.684 35.036l239.383 893.388c7.083 26.432-8.604 53.602-35.036 60.684s-53.602-8.604-60.684-35.036z" />
<glyph unicode="&#xe926;" glyph-name="check-text" horiz-adv-x="3154" d="M698.56 459.84c59.52 0 105.707-15.68 138.56-47.040s51.093-66.986 54.72-106.88h-62.080c-7.040 30.293-21.067 54.293-42.080 72s-50.506 26.56-88.48 26.56c-46.294 0-83.68-16.267-112.16-48.8s-42.72-82.4-42.72-149.6c0-55.040 12.853-99.68 38.56-133.92s64.053-51.36 115.040-51.36c46.934 0 82.667 18.026 107.2 54.080 13.013 18.987 22.72 43.947 29.12 74.88h62.080c-5.547-49.494-23.893-90.986-55.040-124.48-37.334-40.32-87.68-60.48-151.040-60.48-54.614 0-100.48 16.533-137.6 49.6-48.854 43.734-73.28 111.253-73.28 202.56 0 69.334 18.346 126.186 55.040 170.56 39.68 48.214 94.4 72.32 164.16 72.32zM1026.761 447.040h64.32v-194.24h244.48v194.24h64.32v-470.080h-64.32v219.84h-244.48v-219.84h-64.32v470.080zM1555.922 447.040h342.72v-57.6h-280.64v-142.72h259.52v-54.4h-259.52v-159.36h285.44v-56h-347.52v470.080zM2236.442 459.84c59.52 0 105.707-15.68 138.56-47.040s51.093-66.986 54.72-106.88h-62.080c-7.040 30.293-21.067 54.293-42.080 72s-50.506 26.56-88.48 26.56c-46.294 0-83.68-16.267-112.16-48.8s-42.72-82.4-42.72-149.6c0-55.040 12.853-99.68 38.56-133.92s64.053-51.36 115.040-51.36c46.934 0 82.667 18.026 107.2 54.080 13.013 18.987 22.72 43.947 29.12 74.88h62.080c-5.547-49.494-23.893-90.986-55.040-124.48-37.334-40.32-87.68-60.48-151.040-60.48-54.614 0-100.48 16.533-137.6 49.6-48.854 43.734-73.28 111.253-73.28 202.56 0 69.334 18.346 126.186 55.040 170.56 39.68 48.214 94.4 72.32 164.16 72.32zM2563.043 447.040h62.080v-229.12l229.12 229.12h88l-195.52-189.44 200.96-280.64h-82.88l-164.48 235.84-75.2-72v-163.84h-62.080v470.080zM3077.484 447.040h64.96v-154.56l-15.68-203.52h-32.64l-16.64 203.52v154.56zM3077.484 43.52h63.68v-66.56h-63.68v66.56zM40.682 479.997l140.438-84.384c19.39-11.651 44.555-5.377 56.206 14.014s5.377 44.555-14.014 56.206l-140.438 84.384c-19.39 11.651-44.555 5.377-56.206-14.014s-5.377-44.555 14.014-56.206zM614.725 886.135l39.636-158.973c5.473-21.95 27.703-35.307 49.652-29.834s35.307 27.703 29.834 49.652l-39.636 158.973c-5.473 21.95-27.703 35.307-49.652 29.834s-35.307-27.703-29.834-49.652zM255.364 755.532l96.002-132.768c13.255-18.331 38.861-22.447 57.192-9.192s22.447 38.861 9.192 57.192l-96.002 132.768c-13.255 18.331-38.861 22.447-57.192 9.192s-22.447-38.861-9.192-57.192z" />
<glyph unicode="&#xe927;" glyph-name="close" d="M857.968 906.562l-804.53-804.53c-33.325-33.325-33.325-87.355 0-120.68s87.355-33.325 120.68 0l804.53 804.53c33.325 33.325 33.325 87.355 0 120.68s-87.355 33.325-120.68 0zM174.118 906.562l804.53-804.53c33.325-33.325 33.325-87.355 0-120.68s-87.355-33.325-120.68 0l-804.53 804.53c-33.325 33.325-33.325 87.355 0 120.68s87.355 33.325 120.68 0z" />
<glyph unicode="&#xe928;" glyph-name="head" horiz-adv-x="731" d="M84.222 125.778c-34.277-34.277-34.277-89.851 0-124.128s89.851-34.277 124.128 0l437.064 437.064-437.064 437.064c-34.277 34.277-89.851 34.277-124.128 0s-34.277-89.851 0-124.128l312.936-312.936-312.936-312.936z" />
</font>
</defs>
</svg>
