<?xml version="1.0" encoding="utf-8"?>
<!-- Generator: Adobe Illustrator 23.1.1, SVG Export Plug-In . SVG Version: 6.00 Build 0)  -->
<svg version="1.1" id="レイヤー_1" xmlns="http://www.w3.org/2000/svg" xmlns:xlink="http://www.w3.org/1999/xlink" x="0px"
	 y="0px" viewBox="0 0 449.1 500" style="enable-background:new 0 0 449.1 500;" xml:space="preserve">
<style type="text/css">
	.st0{fill:#F6D34F;}
	.st1{fill:#040000;}
</style>
<g>
	<ellipse class="st0" cx="224.55" cy="250" rx="99.06" ry="99.1"/>
	<g>
		<path class="st0" d="M418.5,102.59L255.15,8.2c-18.93-10.94-42.26-10.94-61.19,0L30.6,102.59C11.66,113.52,0,133.74,0,155.62
			l0,188.76c0,21.88,11.66,42.09,30.6,53.03l163.36,94.38c18.93,10.94,42.26,10.94,61.19,0l35.01-20.23
			c11.14-6.43,14.95-20.68,8.52-31.83l-12.89-22.34c-5.11-8.86-15.41-13.35-25.38-11.06c-66.81,15.37-138.58-13.65-174.64-76.16
			c-44.25-76.7-17.99-174.78,58.66-219.06s174.66-18,218.91,58.7c36.06,62.51,25.29,139.22-21.41,189.43
			c-6.97,7.49-8.23,18.66-3.12,27.52l12.89,22.34c6.43,11.14,20.67,14.96,31.81,8.53l35.01-20.23c18.93-10.94,30.6-31.15,30.6-53.03
			V155.62C449.1,133.74,437.44,113.52,418.5,102.59z"/>
	</g>
	<g>
		<path class="st1" d="M274.07,335.84c25.79-14.9,42.35-39.65,47.67-66.76c0.57-2.88-2.53-5.1-5.07-3.63l-124.81,72.11
			c-2.54,1.47-2.18,5.26,0.6,6.21C218.58,352.71,248.28,350.74,274.07,335.84z"/>
		<path class="st1" d="M175.03,164.16c-25.79,14.9-42.35,39.65-47.67,66.76c-0.57,2.88,2.53,5.1,5.07,3.63l124.82-72.11
			c2.54-1.47,2.18-5.25-0.6-6.2C230.52,147.29,200.82,149.26,175.03,164.16z"/>
		<path class="st1" d="M138.78,299.56c2.59,4.49,5.48,8.7,8.63,12.62c1.67,2.08,4.62,2.61,6.94,1.28l160.23-92.58
			c2.31-1.34,3.33-4.16,2.36-6.65c-1.82-4.69-4.02-9.3-6.61-13.79c-2.59-4.49-5.48-8.7-8.63-12.62c-1.67-2.08-4.62-2.61-6.94-1.28
			l-160.22,92.57c-2.32,1.34-3.33,4.17-2.37,6.66C133.99,290.46,136.19,295.07,138.78,299.56z"/>
	</g>
</g>
</svg>
