<?xml version="1.0" encoding="UTF-8"?>
<svg width="21px" height="19px" viewBox="0 0 21 19" version="1.1" xmlns="http://www.w3.org/2000/svg" xmlns:xlink="http://www.w3.org/1999/xlink">
    <!-- Generator: Sketch 55.1 (78136) - https://sketchapp.com -->
    <title>noun_Home_1360080</title>
    <desc>Created with Sketch.</desc>
    <g id="SP" stroke="none" stroke-width="1" fill="none" fill-rule="evenodd">
        <g id="menu_open_01" transform="translate(-29.000000, -99.000000)">
            <g id="li" transform="translate(13.000000, 94.000000)">
                <g id="noun_Home_1360080" transform="translate(16.000000, 5.000000)">
                    <path d="M5.5,17.5 C4.33398437,17.1308594 3.75097656,16.2376302 3.75097656,14.8203125 C3.75097656,13.4029948 3.75097656,10.8347982 3.75097656,7.11572266 L10.3846154,1.19433594 L17.0991211,7.11572266 L17.0991211,16.5253846 L5.5,17.5 Z" id="Path-2" fill="#FFD94A"></path>
                    <path d="M10.9984615,0.323076923 C10.6485375,0.0114995164 10.1206933,0.0114995164 9.77076923,0.323076923 L0.320769231,8.73 C-0.0615817499,9.06901787 -0.0967101772,9.65380287 0.242307692,10.0361538 C0.581325562,10.4185048 1.16611056,10.4536333 1.54846154,10.1146154 L2.76923077,9.01384615 L2.76923077,15.6023077 C2.76923077,17.1317116 4.00905762,18.3715385 5.53846154,18.3715385 L15.2307692,18.3715385 C16.7601732,18.3715385 18,17.1317116 18,15.6023077 L18,9.01384615 L19.2323077,10.11 C19.6146587,10.4490178 20.1994436,10.4138894 20.5384615,10.0315384 C20.8774794,9.64918746 20.842351,9.06440249 20.46,8.72538462 L10.9984615,0.323076923 Z M16.1538462,15.6023077 C16.1538462,16.112109 15.7405705,16.5253846 15.2307692,16.5253846 L5.53846154,16.5253846 C5.02866023,16.5253846 4.61538462,16.112109 4.61538462,15.6023077 L4.61538462,7.37307692 L10.3846154,2.25 L16.1538462,7.37307692 L16.1538462,15.6023077 Z" id="Shape" fill="#000000" fill-rule="nonzero"></path>
                </g>
            </g>
        </g>
    </g>
</svg>