<svg xmlns="http://www.w3.org/2000/svg" viewBox="0 0 80.01 69.57"><defs><style>.cls-1{fill:#787878;}.cls-2{fill:#ffd900;}</style></defs><title>アセット 2</title><g id="レイヤー_2" data-name="レイヤー 2"><g id="レイヤー_1-2" data-name="レイヤー 1"><path class="cls-1" d="M0,62.06a6.75,6.75,0,0,1,.27-2,8.3,8.3,0,0,1,.91-1.9,6.3,6.3,0,0,1,1.53-1.71,8.44,8.44,0,0,1,2.5-1.21,9.1,9.1,0,0,1,2.84-.37,8.48,8.48,0,0,1,2.25.31,7.91,7.91,0,0,1,2,.86,7.15,7.15,0,0,1,1.8,1.69,5.78,5.78,0,0,1,1,1.71,7.41,7.41,0,0,1,.42,2.47,9,9,0,0,1-.28,2.41,6.42,6.42,0,0,1-.94,1.89,8.55,8.55,0,0,1-1.77,1.67,6.63,6.63,0,0,1-2.08,1,8.9,8.9,0,0,1-2.68.39A9,9,0,0,1,5.12,69a7.32,7.32,0,0,1-1.9-.83A7.06,7.06,0,0,1,1.64,66.7,6.93,6.93,0,0,1,.42,64.58,7.32,7.32,0,0,1,0,62.06Zm7.63,6.85a7.76,7.76,0,0,0,1.92-.26,4.74,4.74,0,0,0,1.76-.86,4.51,4.51,0,0,0,1.2-1.36,6.85,6.85,0,0,0,.7-2,11,11,0,0,0,.27-2.41,10.29,10.29,0,0,0-.44-3,5.31,5.31,0,0,0-3-3.34,5.7,5.7,0,0,0-2.32-.48,5.77,5.77,0,0,0-2,.33,5,5,0,0,0-1.57.84,5,5,0,0,0-1.14,1.45A8.5,8.5,0,0,0,2.27,60,8.71,8.71,0,0,0,2,62a9,9,0,0,0,.27,2.06,7.87,7.87,0,0,0,.76,2,5.94,5.94,0,0,0,1.17,1.5,4.93,4.93,0,0,0,1.57,1A5,5,0,0,0,7.63,68.91Z"/><path class="cls-1" d="M19.45,59.23c0,.48,0,.91,0,1.3l2.93.06a2.85,2.85,0,0,1,0,.37q0,.13,0,.42a3.43,3.43,0,0,1-.56,0H21.4a11.5,11.5,0,0,0-1.9.1,3.07,3.07,0,0,0,0,.38,1.23,1.23,0,0,0,0,.17c0,1.15.05,1.84.05,2.09l0,2.82A2.34,2.34,0,0,0,19.73,68a.87.87,0,0,0,.45.38,4.32,4.32,0,0,0,1,.2l.82.12a1.73,1.73,0,0,1,0,.36h-.16l-1.37,0-.81,0-2.77.08h-.36v-.33l.24-.06A3.2,3.2,0,0,0,18,68.32a.56.56,0,0,0,.15-.32c0-.09,0-.5,0-1.23,0-2.09,0-3.76-.05-5a3.36,3.36,0,0,0-.88-.12c-.15,0-.38,0-.69,0l0-.12a.27.27,0,0,1,.1-.22s.34-.18.93-.47a1,1,0,0,0,.47-.38,1,1,0,0,0,.09-.51c0-.11,0-.31.07-.6a12.58,12.58,0,0,1,.21-1.4A4.94,4.94,0,0,1,19,56.44a5.53,5.53,0,0,1,1.12-1.29,3.44,3.44,0,0,1,1.1-.59,4.52,4.52,0,0,1,1.39-.2,2.66,2.66,0,0,1,1.53.34.69.69,0,0,1,.33.59.71.71,0,0,1-.23.52.81.81,0,0,1-.58.22,2.29,2.29,0,0,1-.9-.21c-.61-.24-1-.37-1-.39a1.54,1.54,0,0,0-.43-.06,1.74,1.74,0,0,0-1.1.39,1.64,1.64,0,0,0-.64,1,14.27,14.27,0,0,0-.13,2.52Z"/><path class="cls-1" d="M26.94,59.23c0,.48,0,.91,0,1.3l2.94.06c0,.16,0,.29,0,.37s0,.23,0,.42a3.53,3.53,0,0,1-.56,0h-.42a11.59,11.59,0,0,0-1.9.1c0,.17,0,.3,0,.38s0,.09,0,.17c0,1.15.05,1.84.05,2.09L27,67A2.34,2.34,0,0,0,27.22,68a.87.87,0,0,0,.45.38,4.32,4.32,0,0,0,1,.2l.81.12a1.73,1.73,0,0,1,0,.36h-.15l-1.38,0-.81,0-2.77.08H24v-.33l.24-.06a3.2,3.2,0,0,0,1.22-.39A.56.56,0,0,0,25.6,68c0-.09,0-.5,0-1.23,0-2.09,0-3.76-.05-5a3.36,3.36,0,0,0-.88-.12c-.15,0-.38,0-.69,0l0-.12a.27.27,0,0,1,.1-.22s.34-.18.93-.47a1,1,0,0,0,.48-.38,1.2,1.2,0,0,0,.09-.51c0-.11,0-.31.06-.6a12.58,12.58,0,0,1,.21-1.4,4.94,4.94,0,0,1,.67-1.47,5.53,5.53,0,0,1,1.12-1.29,3.44,3.44,0,0,1,1.1-.59,4.57,4.57,0,0,1,1.39-.2,2.66,2.66,0,0,1,1.53.34.69.69,0,0,1,.33.59.71.71,0,0,1-.23.52.8.8,0,0,1-.57.22,2.26,2.26,0,0,1-.91-.21c-.61-.24-1-.37-1-.39a1.49,1.49,0,0,0-.43-.06,1.74,1.74,0,0,0-1.1.39,1.64,1.64,0,0,0-.64,1,14.27,14.27,0,0,0-.13,2.52Z"/><path class="cls-1" d="M31.66,61.27V61l.77-.24a3.88,3.88,0,0,0,.83-.54,3.72,3.72,0,0,0,.73-.81.9.9,0,0,1,.21,0h.13c0,.35,0,.61,0,.77s0,.2,0,.49v3.76l0,3.35a.82.82,0,0,0,.13.57,2.1,2.1,0,0,0,.85.36,6.68,6.68,0,0,1,.66.21A.35.35,0,0,1,36,69a.41.41,0,0,1,0,.16c-.29,0-.66,0-1.1-.05-.61-.06-1-.08-1.21-.08l-1.76,0c-.22,0-.43,0-.64.06l-.17,0A.24.24,0,0,1,31,69q0-.16.21-.24s.4-.1,1.12-.26a.71.71,0,0,0,.46-.22,1.12,1.12,0,0,0,.19-.73c0-.57,0-2.12,0-4.65a4.33,4.33,0,0,0-.06-.95.92.92,0,0,0-.3-.3A3.35,3.35,0,0,0,31.66,61.27Z"/><path class="cls-1" d="M32.58,55.58a.87.87,0,0,1,.28-.63,1,1,0,0,1,.68-.26,1,1,0,0,1,.71.3.83.83,0,0,1,.31.63.87.87,0,0,1-.31.64,1,1,0,0,1-.71.31,1,1,0,0,1-1-1Z"/><path class="cls-1" d="M44.4,67.08v.71a5.31,5.31,0,0,1-1.69,1.28,5,5,0,0,1-2,.36,4,4,0,0,1-2.22-.64A4.17,4.17,0,0,1,37,67a5.62,5.62,0,0,1-.53-2.31,4.59,4.59,0,0,1,.64-2.35,4.11,4.11,0,0,1,1.71-1.65,5.8,5.8,0,0,1,2.66-.54,4.33,4.33,0,0,1,2.35.52.93.93,0,0,1,.44.8A.78.78,0,0,1,44,62a.81.81,0,0,1-.59.23,1.82,1.82,0,0,1-1.21-.68A2.45,2.45,0,0,0,41.5,61a1.6,1.6,0,0,0-.73-.16,2,2,0,0,0-1.63.8,4.5,4.5,0,0,0-.9,2.87,4.15,4.15,0,0,0,.92,2.83,2.79,2.79,0,0,0,2.16,1.06,4,4,0,0,0,1.52-.28A6.16,6.16,0,0,0,44.4,67.08Z"/><path class="cls-1" d="M53.14,63.3l-4.41,0h-.84c-.34,0-.68,0-1,0a1.76,1.76,0,0,0-.1.45v.76a4.34,4.34,0,0,0,.42,1.64,3.31,3.31,0,0,0,1.21,1.48,3.73,3.73,0,0,0,2,.54,3.47,3.47,0,0,0,1-.16,4.08,4.08,0,0,0,1.06-.56l.8-.65.06.44a1,1,0,0,1,0,.17A5,5,0,0,1,52,68.58a6.14,6.14,0,0,1-1.54.69,5.16,5.16,0,0,1-1.24.11,3.76,3.76,0,0,1-1.53-.33,3.66,3.66,0,0,1-1.77-1.55,4.94,4.94,0,0,1-.65-2.6,5.57,5.57,0,0,1,.18-1.24A7,7,0,0,1,46.12,62a3.18,3.18,0,0,1,.78-.95,5.31,5.31,0,0,1,1.16-.74,4.24,4.24,0,0,1,1.66-.3,3.3,3.3,0,0,1,1.67.38,3.36,3.36,0,0,1,1.31,1.28,3,3,0,0,1,.44,1.44ZM47.6,61.53A2.2,2.2,0,0,0,47,62.9h.52c.37,0,1.49-.06,3.34-.17a1.53,1.53,0,0,0,.54-.09.61.61,0,0,0,.2-.38,1.72,1.72,0,0,0-.22-.78,1.49,1.49,0,0,0-.68-.68,2.33,2.33,0,0,0-1.06-.23,2.48,2.48,0,0,0-2,1Z"/><path class="cls-1" d="M57.84,55.82c-.4-.16-.67-.28-.81-.35v-.25l.68-.21c.37-.11.91-.29,1.63-.53h.52v.61c0,6,0,9.6-.06,10.76,0,.68,0,1,0,1.09a4.35,4.35,0,0,0,.1,1.37c.09.13.36.22.81.28a3.11,3.11,0,0,1,.81.15.15.15,0,0,1,.08.15.23.23,0,0,1-.05.18.26.26,0,0,1-.18.05l-1.15,0-1.44,0-1.85.09a.35.35,0,0,1-.26-.07.22.22,0,0,1-.07-.16.18.18,0,0,1,.08-.16,3.4,3.4,0,0,1,.78-.17,3,3,0,0,0,.83-.21c.07,0,.11-.17.13-.36s0-1,0-2.23V63.23l0-2.62V58l0-1.29a1,1,0,0,0-.12-.55,1.14,1.14,0,0,0-.51-.34Z"/><path class="cls-1" d="M70.08,67.68a1.05,1.05,0,0,1,.24-.08.48.48,0,0,1,.06.21,1.25,1.25,0,0,1-.26.58,2.39,2.39,0,0,1-.76.81,1.37,1.37,0,0,1-.72.16,1.41,1.41,0,0,1-1.19-.49,2.1,2.1,0,0,1-.35-1l-1.23.87a4.53,4.53,0,0,1-1,.47,5,5,0,0,1-1.31.14,1.21,1.21,0,0,1-.89-.33,1.24,1.24,0,0,1-.32-.87,3,3,0,0,1,.93-1.81,6.72,6.72,0,0,1,2.53-1.73c.75-.32,1.21-.52,1.38-.61,0-.24,0-.5,0-.79a3.22,3.22,0,0,0-.39-1.88,1.33,1.33,0,0,0-1.12-.49,2.13,2.13,0,0,0-1.43.59,2.65,2.65,0,0,0-.62,1.39,2,2,0,0,1-.25.62,1.59,1.59,0,0,1-.76.31.73.73,0,0,1-.44-.15.21.21,0,0,1-.11-.17,3.94,3.94,0,0,1,.61-1.29,4.09,4.09,0,0,1,1.54-1.5,3.55,3.55,0,0,1,1.63-.49,4.16,4.16,0,0,1,1.4.17,2,2,0,0,1,1.24,1.53,16.13,16.13,0,0,1,0,1.73l0,1.75v1.27c0,.17,0,.31,0,.43s0,.37,0,.47a.82.82,0,0,0,.21.58.66.66,0,0,0,.5.22.86.86,0,0,0,.72-.41l.13-.18Zm-4.32.59a5.81,5.81,0,0,0,1.34-1c.05-.93.07-1.59.07-2,0-.2,0-.47,0-.8a7.52,7.52,0,0,0-1.57.8,4.49,4.49,0,0,0-1.31,1.25,1.69,1.69,0,0,0-.35,1,1,1,0,0,0,.29.71,1,1,0,0,0,.74.29,1.93,1.93,0,0,0,.82-.24Z"/><path class="cls-1" d="M71.15,56.09a2.67,2.67,0,0,0-1.38-.81v-.05a.79.79,0,0,1,.09-.31,19.64,19.64,0,0,0,2.56-.65h.23a.84.84,0,0,1,0,.23V60l0,.94s0,.16,0,.38l.9-.34,1-.29c.67-.11,1.08-.17,1.18-.17a5.14,5.14,0,0,1,2,.36,3.19,3.19,0,0,1,1.07.73,3.4,3.4,0,0,1,.79,1.08,4.84,4.84,0,0,1,.43,1.8,6.17,6.17,0,0,1-.15,1.66A5.34,5.34,0,0,1,79,67.87,4.24,4.24,0,0,1,77.44,69a4.92,4.92,0,0,1-4,.07,6.25,6.25,0,0,0-1-.37c-.23,0-.52.3-.87.91H71.3c0-.5,0-1.1,0-1.82l0-1.63v-.84l0-2.39,0-.47,0-1.13V59.92c0-.08,0-.4,0-1V58.3a6.08,6.08,0,0,0-.16-2.21Zm2.33,12.23A2.87,2.87,0,0,0,75,68.8a3.29,3.29,0,0,0,2.55-.94,4,4,0,0,0,.87-2.8,3.89,3.89,0,0,0-1-2.76,3.24,3.24,0,0,0-2.45-1,4.08,4.08,0,0,0-1.77.34c-.28.14-.45.27-.48.38s0,.91,0,2.36a22,22,0,0,0,.11,3,1.56,1.56,0,0,0,.69,1Z"/><path class="cls-2" d="M44.7,24.06S71.27,8.64,60.42,1.18,44.7,24.06,44.7,24.06Z"/><path class="cls-2" d="M44.7,24.06s.07,30.73,11.95,25.06S44.7,24.06,44.7,24.06Z"/><path class="cls-2" d="M44.7,24.06S15,16.18,17.4,29.12,44.7,24.06,44.7,24.06Z"/></g></g></svg>