<svg xmlns="http://www.w3.org/2000/svg" viewBox="0 0 241.5 51.45"><defs><style>.cls-1{fill:#787878;}.cls-2{fill:#ffd900;}</style></defs><title>アセット 1</title><g id="レイヤー_2" data-name="レイヤー 2"><g id="レイヤー_1-2" data-name="レイヤー 1"><path class="cls-1" d="M63.31,26.05a15.09,15.09,0,0,1,.6-4.44,18.8,18.8,0,0,1,2-4.22,14.14,14.14,0,0,1,3.43-3.81,19.12,19.12,0,0,1,5.55-2.7,20.53,20.53,0,0,1,6.32-.81,18.89,18.89,0,0,1,5,.68,17.62,17.62,0,0,1,4.47,1.91,15.78,15.78,0,0,1,4,3.77,12.61,12.61,0,0,1,2.11,3.8,16.65,16.65,0,0,1,.93,5.51,19.68,19.68,0,0,1-.62,5.36,14.35,14.35,0,0,1-2.1,4.22A18.46,18.46,0,0,1,91.12,39a14.89,14.89,0,0,1-4.62,2.29,20.18,20.18,0,0,1-6,.86,20.57,20.57,0,0,1-5.81-.75,16.6,16.6,0,0,1-4.24-1.85A16.15,16.15,0,0,1,67,36.37a15.31,15.31,0,0,1-2.72-4.7A16.21,16.21,0,0,1,63.31,26.05Zm17,15.25a16.65,16.65,0,0,0,4.27-.58,10.48,10.48,0,0,0,3.94-1.91,10.15,10.15,0,0,0,2.67-3,15.54,15.54,0,0,0,1.56-4.38,24.91,24.91,0,0,0,.59-5.35,22.76,22.76,0,0,0-1-6.58A12,12,0,0,0,89.87,15a11.57,11.57,0,0,0-4.13-3A12.73,12.73,0,0,0,80.57,11a13.1,13.1,0,0,0-4.36.74,11.44,11.44,0,0,0-3.5,1.86,11.79,11.79,0,0,0-2.55,3.25,18.79,18.79,0,0,0-1.78,4.62,19.69,19.69,0,0,0-.62,4.45,20.53,20.53,0,0,0,.62,4.61A16.65,16.65,0,0,0,70.06,35a14,14,0,0,0,2.61,3.35,11,11,0,0,0,7.63,3Z"/><path class="cls-1" d="M106.63,19.76c0,1,0,2,0,2.87l6.53.15c0,.36,0,.63,0,.81a8.71,8.71,0,0,1-.07.95,7.48,7.48,0,0,1-1.26.1H111a25.06,25.06,0,0,0-4.23.23c0,.37,0,.66,0,.85a3.32,3.32,0,0,0,0,.37q.12,3.84.12,4.65l0,6.28a5.36,5.36,0,0,0,.46,2.34,2,2,0,0,0,1,.85,9.18,9.18,0,0,0,2.26.44c.91.14,1.51.21,1.82.27a3.37,3.37,0,0,1-.07.8h-.34c-.79,0-1.8-.07-3.06-.11l-1.81-.07-6.16.18h-.81l0-.74a5.12,5.12,0,0,0,.53-.13A7.14,7.14,0,0,0,103.3,40a1.19,1.19,0,0,0,.34-.72c0-.19,0-1.11,0-2.74,0-4.65,0-8.37-.12-11.14a7.66,7.66,0,0,0-2-.25c-.32,0-.83,0-1.54-.1l0-.27a.58.58,0,0,1,.24-.48c.06-.07.75-.41,2-1a2.31,2.31,0,0,0,1.07-.85,2.39,2.39,0,0,0,.2-1.13c0-.26.06-.71.14-1.36a28.8,28.8,0,0,1,.47-3.11,12.06,12.06,0,0,1,1.48-3.28,13.19,13.19,0,0,1,2.51-2.86,7.59,7.59,0,0,1,2.44-1.32,9.83,9.83,0,0,1,3.1-.44,6,6,0,0,1,3.4.75,1.53,1.53,0,0,1,.74,1.32,1.59,1.59,0,0,1-.51,1.17,1.82,1.82,0,0,1-1.28.48,5.1,5.1,0,0,1-2-.46c-1.37-.54-2.14-.83-2.31-.89a3.89,3.89,0,0,0-1-.12,4,4,0,0,0-2.47.86,3.79,3.79,0,0,0-1.41,2.11,32.13,32.13,0,0,0-.29,5.64Z"/><path class="cls-1" d="M123.31,19.76c0,1,0,2,0,2.87l6.54.15c0,.36,0,.63,0,.81a9.37,9.37,0,0,1-.08.95,7.36,7.36,0,0,1-1.25.1h-.93a24.84,24.84,0,0,0-4.22.23c0,.37-.06.66-.06.85s0,.2,0,.37c.07,2.56.12,4.11.12,4.65l0,6.28a5.21,5.21,0,0,0,.47,2.34,1.87,1.87,0,0,0,1,.85,9.06,9.06,0,0,0,2.25.44c.9.14,1.51.21,1.82.27a2.85,2.85,0,0,1-.08.8h-.33c-.79,0-1.8-.07-3.06-.11l-1.81-.07-6.16.18h-.81l0-.74a4.53,4.53,0,0,0,.53-.13A7.14,7.14,0,0,0,120,40a1.19,1.19,0,0,0,.34-.72c0-.19.05-1.11.05-2.74,0-4.65,0-8.37-.12-11.14a7.59,7.59,0,0,0-2-.25c-.32,0-.84,0-1.54-.1l0-.27a.59.59,0,0,1,.25-.48c.06-.07.75-.41,2-1a2.25,2.25,0,0,0,1.07-.85,2.39,2.39,0,0,0,.2-1.13c0-.26.07-.71.14-1.36a28.8,28.8,0,0,1,.47-3.11,11.52,11.52,0,0,1,1.49-3.28,12.68,12.68,0,0,1,2.51-2.86,7.54,7.54,0,0,1,2.43-1.32,9.88,9.88,0,0,1,3.1-.44,6.06,6.06,0,0,1,3.41.75,1.54,1.54,0,0,1,.73,1.32,1.59,1.59,0,0,1-.51,1.17,1.81,1.81,0,0,1-1.27.48,5.07,5.07,0,0,1-2-.46c-1.36-.54-2.13-.83-2.31-.89a3.83,3.83,0,0,0-1-.12A3.94,3.94,0,0,0,125,12a3.76,3.76,0,0,0-1.42,2.11,32.13,32.13,0,0,0-.29,5.64Z"/><path class="cls-1" d="M133.82,24.3l0-.72c1.06-.31,1.63-.5,1.71-.54a7.81,7.81,0,0,0,1.85-1.2A8.21,8.21,0,0,0,139,20a3.28,3.28,0,0,1,.47-.05l.29,0c.06.79.09,1.37.09,1.72,0,.08,0,.45,0,1.11v1.29l0,7.07-.07,7.47a1.85,1.85,0,0,0,.29,1.27,4.9,4.9,0,0,0,1.89.79,15,15,0,0,1,1.47.48.82.82,0,0,1,.07.28.75.75,0,0,1-.13.36c-.63,0-1.45-.05-2.44-.12-1.35-.12-2.25-.17-2.69-.17l-3.91.12a10.58,10.58,0,0,0-1.42.12,1.58,1.58,0,0,1-.4-.07.53.53,0,0,1-.12-.29c0-.23.16-.41.47-.53.06,0,.89-.22,2.49-.57a1.63,1.63,0,0,0,1-.49,2.65,2.65,0,0,0,.41-1.64c0-1.26,0-4.71,0-10.35a8.79,8.79,0,0,0-.14-2.11,1.79,1.79,0,0,0-.65-.67A6.84,6.84,0,0,0,133.82,24.3Z"/><path class="cls-1" d="M135.88,11.61a1.82,1.82,0,0,1,.62-1.39,2.12,2.12,0,0,1,1.5-.59,2.17,2.17,0,0,1,1.59.67,1.91,1.91,0,0,1,.69,1.41,2,2,0,0,1-.69,1.43,2.17,2.17,0,0,1-1.59.67,2,2,0,0,1-1.51-.61A2.15,2.15,0,0,1,135.88,11.61Z"/><path class="cls-1" d="M162.19,37.23l0,1.58a11.71,11.71,0,0,1-3.77,2.85,11.1,11.1,0,0,1-4.39.81A8.82,8.82,0,0,1,149.11,41,9.17,9.17,0,0,1,145.72,37a12.3,12.3,0,0,1-1.2-5.14A10.31,10.31,0,0,1,146,26.6a9.22,9.22,0,0,1,3.8-3.66,12.75,12.75,0,0,1,5.93-1.22,9.59,9.59,0,0,1,5.22,1.17,2,2,0,0,1,1,1.77,1.74,1.74,0,0,1-.5,1.29,1.82,1.82,0,0,1-1.33.52A4,4,0,0,1,157.39,25a6.3,6.3,0,0,0-1.65-1.27,3.66,3.66,0,0,0-1.64-.36,4.45,4.45,0,0,0-3.62,1.79,10,10,0,0,0-2,6.38,9.3,9.3,0,0,0,2.05,6.33,6.25,6.25,0,0,0,4.81,2.34,8.79,8.79,0,0,0,3.39-.62A14.36,14.36,0,0,0,162.19,37.23Z"/><path class="cls-1" d="M181.65,28.81l-9.82.08H170c-.76,0-1.52,0-2.31.08a4.78,4.78,0,0,0-.22,1l0,.26v.24l0,1.2a9.47,9.47,0,0,0,.95,3.64,7.16,7.16,0,0,0,2.69,3.3,8.39,8.39,0,0,0,4.37,1.21,9.06,9.06,0,0,0,2.23-.35A10.67,10.67,0,0,0,180,38.22l1.77-1.46.15,1c0,.11,0,.23,0,.37a10.77,10.77,0,0,1-2.8,2.44,13.51,13.51,0,0,1-3.42,1.55,11.87,11.87,0,0,1-2.76.23,8.74,8.74,0,0,1-3.41-.72,8.23,8.23,0,0,1-3.94-3.46,11,11,0,0,1-1.44-5.78,12.91,12.91,0,0,1,.4-2.77A14.78,14.78,0,0,1,166,26a7.06,7.06,0,0,1,1.74-2.13,11.51,11.51,0,0,1,2.57-1.64,9.62,9.62,0,0,1,3.7-.66,7.28,7.28,0,0,1,6.65,3.69,6.72,6.72,0,0,1,1,3.2ZM169.3,24.87a5,5,0,0,0-1.32,3h1.15c.84,0,3.31-.13,7.45-.38a2.92,2.92,0,0,0,1.2-.2,1.28,1.28,0,0,0,.44-.83,4,4,0,0,0-.48-1.75,3.47,3.47,0,0,0-1.51-1.5,5.11,5.11,0,0,0-2.37-.53,5.55,5.55,0,0,0-4.56,2.15Z"/><path class="cls-1" d="M192.11,12.15q-1.32-.54-1.8-.78v-.54l1.51-.47c.82-.25,2-.66,3.64-1.19h1.15v1.35q0,20.09-.13,24-.09,2.28-.09,2.43a9.57,9.57,0,0,0,.23,3.06c.19.29.79.49,1.81.61a6.57,6.57,0,0,1,1.79.34.35.35,0,0,1,.19.34.62.62,0,0,1-.11.4.66.66,0,0,1-.41.1l-2.56-.08-3.21-.11-4.11.19a.8.8,0,0,1-.59-.14.46.46,0,0,1-.15-.36.41.41,0,0,1,.17-.36,7.61,7.61,0,0,1,1.75-.38,6.15,6.15,0,0,0,1.83-.46,1.14,1.14,0,0,0,.3-.81c.07-.59.11-2.25.11-5l0-5.64.08-5.82,0-5.82.08-2.86a2.17,2.17,0,0,0-.27-1.24,2.72,2.72,0,0,0-1.15-.75Z"/><path class="cls-1" d="M219.37,38.56a3.17,3.17,0,0,1,.54-.17,1.21,1.21,0,0,1,.14.47,3.09,3.09,0,0,1-.58,1.29,5.35,5.35,0,0,1-1.7,1.79,3.07,3.07,0,0,1-1.61.36,3.21,3.21,0,0,1-2.65-1.08,4.71,4.71,0,0,1-.77-2.29L210,40.85a10.38,10.38,0,0,1-2.2,1,11.3,11.3,0,0,1-2.93.32,2.62,2.62,0,0,1-2-.75,2.66,2.66,0,0,1-.72-1.92c0-1.12.69-2.48,2.08-4a15.08,15.08,0,0,1,5.63-3.84c1.67-.71,2.7-1.16,3.07-1.36,0-.53.06-1.12.06-1.75,0-2.07-.3-3.46-.88-4.19a3,3,0,0,0-2.5-1.09,4.69,4.69,0,0,0-3.17,1.31,5.75,5.75,0,0,0-1.38,3.1,5,5,0,0,1-.57,1.37,3.45,3.45,0,0,1-1.69.68,1.63,1.63,0,0,1-1-.32.46.46,0,0,1-.25-.39A8.36,8.36,0,0,1,203,26.16a9,9,0,0,1,3.43-3.33A7.77,7.77,0,0,1,210,21.72a9.42,9.42,0,0,1,3.13.38,4.53,4.53,0,0,1,2.77,3.41c.06.37.09,1.65.09,3.85l-.07,3.89,0,2.84c0,.37,0,.7,0,1,0,.47,0,.82,0,1a1.87,1.87,0,0,0,.46,1.31,1.52,1.52,0,0,0,1.11.49,1.92,1.92,0,0,0,1.59-.93l.3-.4Zm-9.61,1.31a12.56,12.56,0,0,0,3-2.21c.11-2.08.17-3.55.17-4.4,0-.44,0-1-.07-1.79a17,17,0,0,0-3.49,1.79A10,10,0,0,0,206.42,36a3.73,3.73,0,0,0-.79,2.13,2.16,2.16,0,0,0,.66,1.6,2.24,2.24,0,0,0,1.63.64,4.31,4.31,0,0,0,1.84-.54Z"/><path class="cls-1" d="M221.76,12.76A5.85,5.85,0,0,0,218.68,11v-.12a2,2,0,0,1,.19-.68,43.93,43.93,0,0,0,5.71-1.45l.52,0a2.24,2.24,0,0,1,.12.52v7.29l0,2.32,0,2.6-.05,2.1c0,.08,0,.36.06.83l2-.75,2.1-.64c1.51-.24,2.41-.37,2.65-.37a11.86,11.86,0,0,1,4.41.79A7.56,7.56,0,0,1,238.78,25a7.75,7.75,0,0,1,1.74,2.41,10.67,10.67,0,0,1,1,4,13.31,13.31,0,0,1-.35,3.7,11.69,11.69,0,0,1-2,3.87,9.57,9.57,0,0,1-3.35,2.42,11,11,0,0,1-8.79.16,14.71,14.71,0,0,0-2.23-.83c-.51,0-1.15.68-1.93,2l-.71,0c-.06-1.09-.1-2.43-.1-4l.05-3.64,0-1.86,0-5.33,0-1,.1-2.53V22.16l0-.88c0-.18,0-.89,0-2.13V17.68q.07-4.26-.36-4.92ZM226.94,40a6.49,6.49,0,0,0,3.38,1A7.34,7.34,0,0,0,236,39q1.94-2.09,1.94-6.23a8.62,8.62,0,0,0-2.19-6.14,7.21,7.21,0,0,0-5.44-2.35,9.32,9.32,0,0,0-4,.76c-.63.32-1,.6-1.06.86s-.11,2-.11,5.24a46.13,46.13,0,0,0,.25,6.73A3.38,3.38,0,0,0,226.94,40Z"/><path class="cls-2" d="M28.33,24.85S55.78,8.92,44.57,1.22,28.33,24.85,28.33,24.85Z"/><path class="cls-2" d="M28.33,24.85s.08,31.73,12.35,25.88S28.33,24.85,28.33,24.85Z"/><path class="cls-2" d="M28.33,24.85S-2.34,16.71.14,30.08,28.33,24.85,28.33,24.85Z"/></g></g></svg>